<?xml version="1.0" encoding="utf-8"?>
<!-- Generator: Adobe Illustrator 16.0.0, SVG Export Plug-In . SVG Version: 6.00 Build 0)  -->
<!DOCTYPE svg PUBLIC "-//W3C//DTD SVG 1.1//EN" "http://www.w3.org/Graphics/SVG/1.1/DTD/svg11.dtd">
<svg version="1.1" id="Capa_1" xmlns="http://www.w3.org/2000/svg" xmlns:xlink="http://www.w3.org/1999/xlink" x="0px" y="0px"
	 width="23px" height="23px" viewBox="0 0 23 23" enable-background="new 0 0 23 23" xml:space="preserve">
<g>
	<path id="Facebook__x28_alt_x29_" fill="#FFFFFF" d="M23,3.833C23,1.819,21.182,0,19.166,0H3.833C1.818,0,0,1.819,0,3.833v15.333
		C0,21.181,1.818,23,3.833,23H11.5v-8.688H8.689v-3.834H11.5V8.984c0-2.576,1.934-4.896,4.312-4.896h3.099v3.833h-3.099
		c-0.34,0-0.734,0.412-0.734,1.028v1.527h3.833v3.834h-3.833V23h4.088C21.182,23,23,21.181,23,19.166V3.833z"/>
</g>
</svg>
