<?xml version="1.0" encoding="utf-8"?>
<!-- Generator: Adobe Illustrator 16.0.0, SVG Export Plug-In . SVG Version: 6.00 Build 0)  -->
<!DOCTYPE svg PUBLIC "-//W3C//DTD SVG 1.1//EN" "http://www.w3.org/Graphics/SVG/1.1/DTD/svg11.dtd">
<svg version="1.1" id="Layer_1" xmlns="http://www.w3.org/2000/svg" xmlns:xlink="http://www.w3.org/1999/xlink" x="0px" y="0px"
	 width="23px" height="23px" viewBox="73.031 73.031 23 23" enable-background="new 73.031 73.031 23 23" xml:space="preserve">
<g>
	<path fill="#FFFFFF" d="M89.683,73.031H79.378c-3.5,0-6.347,2.848-6.347,6.347v10.306c0,3.499,2.847,6.347,6.347,6.347h10.306
		c3.5,0,6.348-2.848,6.348-6.347V79.378C96.031,75.879,93.183,73.031,89.683,73.031z M93.99,89.683c0,2.375-1.932,4.307-4.307,4.307
		H79.378c-2.375,0-4.307-1.932-4.307-4.307V79.378c0-2.375,1.932-4.307,4.307-4.307h10.305c2.375,0,4.307,1.932,4.307,4.307V89.683
		L93.99,89.683z"/>
	<path fill="#FFFFFF" d="M84.531,78.605c-3.268,0-5.927,2.659-5.927,5.927s2.659,5.926,5.927,5.926c3.268,0,5.926-2.658,5.926-5.926
		S87.799,78.605,84.531,78.605z M84.531,88.417c-2.143,0-3.886-1.743-3.886-3.886s1.743-3.886,3.886-3.886s3.886,1.743,3.886,3.886
		S86.674,88.417,84.531,88.417z"/>
	<path fill="#FFFFFF" d="M90.706,76.874c-0.394,0-0.779,0.159-1.058,0.438c-0.278,0.277-0.438,0.664-0.438,1.058
		c0,0.394,0.161,0.779,0.438,1.059c0.278,0.277,0.664,0.438,1.058,0.438c0.395,0,0.78-0.161,1.059-0.438
		c0.278-0.279,0.438-0.666,0.438-1.059c0-0.395-0.16-0.781-0.438-1.058C91.487,77.033,91.101,76.874,90.706,76.874z"/>
</g>
</svg>
