<?xml version="1.0" encoding="utf-8"?>
<!-- Generator: Adobe Illustrator 16.0.0, SVG Export Plug-In . SVG Version: 6.00 Build 0)  -->
<!DOCTYPE svg PUBLIC "-//W3C//DTD SVG 1.1//EN" "http://www.w3.org/Graphics/SVG/1.1/DTD/svg11.dtd">
<svg version="1.1" id="Layer_1" xmlns="http://www.w3.org/2000/svg" xmlns:xlink="http://www.w3.org/1999/xlink" x="0px" y="0px"
	 width="56px" height="56px" viewBox="10.5 10.5 56 56" enable-background="new 10.5 10.5 56 56" xml:space="preserve">
<g>
	<g>
		<g>
			<path fill="#FFFFFF" d="M29.032,48.761c-0.16,0-0.324-0.036-0.48-0.108c-0.554-0.267-0.786-0.932-0.52-1.484l7.271-15.109
				c0.266-0.555,0.924-0.787,1.483-0.521c0.553,0.268,0.784,0.931,0.521,1.482l-7.271,15.111
				C29.843,48.529,29.447,48.761,29.032,48.761z"/>
		</g>
		<g>
			<path fill="#FFFFFF" d="M47.971,48.761c-0.42,0-0.813-0.233-1.006-0.636l-9.408-19.791c-0.264-0.556-0.027-1.218,0.524-1.481
				c0.562-0.261,1.218-0.025,1.481,0.528l9.405,19.791c0.265,0.555,0.029,1.219-0.522,1.48
				C48.291,48.727,48.127,48.761,47.971,48.761z"/>
		</g>
		<g>
			<path fill="#FFFFFF" d="M40.225,41.704h-7.838c-0.613,0-1.111-0.496-1.111-1.109c0-0.612,0.498-1.11,1.111-1.11h7.84
				c0.613,0,1.111,0.498,1.111,1.11C41.338,41.208,40.84,41.704,40.225,41.704z"/>
		</g>
	</g>
	<g>
		<path fill="#FFFFFF" d="M38.5,66c-15.165,0-27.502-12.337-27.502-27.5S23.335,11,38.5,11c15.164,0,27.502,12.337,27.502,27.5
			S53.664,66,38.5,66z M38.5,13.222c-13.938,0-25.279,11.339-25.279,25.278c0,13.938,11.341,25.277,25.279,25.277
			c13.939,0,25.279-11.34,25.279-25.277C63.779,24.561,52.439,13.222,38.5,13.222z"/>
	</g>
</g>
</svg>
