<?xml version="1.0" encoding="utf-8"?>
<!-- Generator: Adobe Illustrator 16.0.0, SVG Export Plug-In . SVG Version: 6.00 Build 0)  -->
<!DOCTYPE svg PUBLIC "-//W3C//DTD SVG 1.1//EN" "http://www.w3.org/Graphics/SVG/1.1/DTD/svg11.dtd">
<svg version="1.1" id="Layer_1" xmlns="http://www.w3.org/2000/svg" xmlns:xlink="http://www.w3.org/1999/xlink" x="0px" y="0px"
	 width="225px" height="222.067px" viewBox="0 0 225 222.067" enable-background="new 0 0 225 222.067" xml:space="preserve">
<g>
	<g>
		<g>
			<g>
				<path fill="#FFFFFF" d="M49.357,102.863c-0.68,0-1.332-0.382-1.643-1.032L31.594,68.095c-0.432-0.908-0.047-1.991,0.857-2.422
					c0.908-0.435,1.987-0.05,2.422,0.855l16.117,33.736c0.434,0.904,0.051,1.987-0.854,2.42
					C49.883,102.806,49.615,102.863,49.357,102.863z"/>
			</g>
			<g>
				<path fill="#FFFFFF" d="M17.111,102.863c-0.261,0-0.528-0.058-0.782-0.181c-0.904-0.431-1.286-1.514-0.855-2.418L28.261,73.51
					c0.431-0.902,1.511-1.294,2.421-0.855c0.908,0.432,1.29,1.517,0.855,2.422l-12.783,26.755
					C18.439,102.481,17.788,102.863,17.111,102.863z"/>
			</g>
			<g>
				<path fill="#FFFFFF" d="M37.964,92.985H21.836c-1.004,0-1.817-0.814-1.817-1.818c0-1.001,0.812-1.815,1.817-1.815h16.128
					c1.001,0,1.814,0.814,1.814,1.815C39.778,92.171,38.965,92.985,37.964,92.985z"/>
			</g>
		</g>
		<g>
			<g>
				<path fill="#FFFFFF" d="M77.086,69.127h-9.965c-1,0-1.814-0.813-1.814-1.817c0-1.002,0.814-1.814,1.814-1.814h9.965
					c1.004,0,1.816,0.812,1.816,1.814C78.902,68.313,78.09,69.127,77.086,69.127z"/>
			</g>
			<g>
				<path fill="#FFFFFF" d="M61.633,102.86c-1.004,0-1.816-0.811-1.816-1.814V67.31c0-1.002,0.812-1.814,1.816-1.814
					s1.816,0.812,1.816,1.814v33.736C63.449,102.05,62.637,102.86,61.633,102.86z"/>
			</g>
			<g>
				<path fill="#FFFFFF" d="M77.086,88.5h-9.965c-1,0-1.814-0.812-1.814-1.814c0-1.005,0.814-1.817,1.814-1.817h9.965
					c4.342,0,7.871-3.53,7.871-7.871c0-4.34-3.529-7.87-7.871-7.87c-1.004,0-1.816-0.813-1.816-1.817
					c0-1.002,0.812-1.814,1.816-1.814c6.344,0,11.506,5.162,11.506,11.502C88.592,83.341,83.43,88.5,77.086,88.5z"/>
			</g>
			<g>
				<path fill="#FFFFFF" d="M86.777,102.86c-0.562,0-1.119-0.258-1.475-0.747l-7.156-9.88c-0.59-0.812-0.406-1.947,0.404-2.535
					c0.814-0.594,1.947-0.405,2.535,0.405l7.16,9.878c0.586,0.811,0.406,1.945-0.404,2.533
					C87.516,102.751,87.146,102.86,86.777,102.86z"/>
			</g>
		</g>
		<g>
			<g>
				<path fill="#FFFFFF" d="M123.443,102.86h-17.729c-1.002,0-1.816-0.811-1.816-1.814s0.814-1.814,1.816-1.814h17.729
					c1.004,0,1.818,0.811,1.818,1.814S124.447,102.86,123.443,102.86z"/>
			</g>
			<g>
				<path fill="#FFFFFF" d="M100.225,102.86c-1.004,0-1.816-0.811-1.816-1.814V67.31c0-1.002,0.812-1.814,1.816-1.814
					s1.816,0.812,1.816,1.814v33.736C102.041,102.05,101.229,102.86,100.225,102.86z"/>
			</g>
			<g>
				<path fill="#FFFFFF" d="M123.443,69.127h-17.729c-1.002,0-1.816-0.813-1.816-1.817c0-1.002,0.814-1.814,1.816-1.814h17.729
					c1.004,0,1.818,0.812,1.818,1.814C125.262,68.313,124.447,69.127,123.443,69.127z"/>
			</g>
			<g>
				<path fill="#FFFFFF" d="M120.986,86.045h-15.271c-1.002,0-1.816-0.811-1.816-1.815c0-1.004,0.814-1.814,1.816-1.814h15.271
					c1.004,0,1.816,0.811,1.816,1.814C122.803,85.234,121.99,86.045,120.986,86.045z"/>
			</g>
		</g>
		<g>
			<path fill="#FFFFFF" d="M163.373,94.677c-1.002,0-1.816-0.811-1.816-1.815V67.31c0-1.002,0.814-1.814,1.816-1.814
				s1.816,0.812,1.816,1.814v25.552C165.189,93.866,164.375,94.677,163.373,94.677z"/>
		</g>
		<g>
			<path fill="#FFFFFF" d="M163.373,102.86c-0.527,0-1.053-0.227-1.408-0.669l-24.209-29.77v28.624c0,1.004-0.814,1.814-1.818,1.814
				s-1.818-0.811-1.818-1.814V67.31c0-0.766,0.488-1.453,1.209-1.71c0.73-0.256,1.529-0.031,2.02,0.564L164.781,99.9
				c0.633,0.779,0.514,1.923-0.262,2.555C164.18,102.729,163.773,102.86,163.373,102.86z"/>
		</g>
		<g>
			<g>
				<path fill="#FFFFFF" d="M207.889,102.863c-0.678,0-1.328-0.382-1.641-1.032l-16.119-33.736
					c-0.432-0.908-0.047-1.991,0.857-2.422c0.908-0.435,1.986-0.05,2.422,0.855l16.117,33.736c0.436,0.904,0.047,1.987-0.855,2.42
					C208.418,102.806,208.15,102.863,207.889,102.863z"/>
			</g>
			<g>
				<path fill="#FFFFFF" d="M175.645,102.863c-0.26,0-0.527-0.058-0.781-0.181c-0.904-0.431-1.285-1.514-0.855-2.418l12.787-26.755
					c0.432-0.902,1.512-1.294,2.422-0.855c0.904,0.432,1.289,1.517,0.855,2.422l-12.785,26.755
					C176.975,102.481,176.322,102.863,175.645,102.863z"/>
			</g>
			<g>
				<path fill="#FFFFFF" d="M196.498,92.985h-16.131c-1,0-1.812-0.814-1.812-1.818c0-1.001,0.812-1.815,1.812-1.815h16.131
					c1.002,0,1.814,0.814,1.814,1.815C198.312,92.171,197.5,92.985,196.498,92.985z"/>
			</g>
		</g>
	</g>
	<g>
		<g>
			<g>
				<path fill="#FFFFFF" d="M169.299,122.745h-9.963c-1.004,0-1.816-0.812-1.816-1.816c0-1.005,0.812-1.817,1.816-1.817h9.963
					c1.004,0,1.816,0.812,1.816,1.817C171.115,121.933,170.303,122.745,169.299,122.745z"/>
			</g>
			<g>
				<path fill="#FFFFFF" d="M153.848,156.479c-1.004,0-1.818-0.812-1.818-1.814v-33.736c0-1.005,0.814-1.817,1.818-1.817
					c1.002,0,1.814,0.812,1.814,1.817v33.736C155.662,155.667,154.85,156.479,153.848,156.479z"/>
			</g>
			<g>
				<path fill="#FFFFFF" d="M169.299,142.119h-9.963c-1.004,0-1.816-0.813-1.816-1.817s0.812-1.817,1.816-1.817h9.963
					c4.342,0,7.873-3.53,7.873-7.87c0-4.339-3.531-7.869-7.873-7.869c-1.002,0-1.814-0.812-1.814-1.816
					c0-1.005,0.812-1.817,1.814-1.817c6.344,0,11.504,5.159,11.504,11.503C180.803,136.957,175.643,142.119,169.299,142.119z"/>
			</g>
			<g>
				<path fill="#FFFFFF" d="M178.992,156.479c-0.566,0-1.121-0.259-1.475-0.75l-7.16-9.879c-0.588-0.813-0.406-1.946,0.404-2.536
					c0.816-0.591,1.951-0.405,2.541,0.405l7.156,9.878c0.588,0.812,0.404,1.946-0.406,2.537
					C179.732,156.366,179.357,156.479,178.992,156.479z"/>
			</g>
		</g>
		<g>
			<g>
				<path fill="#FFFFFF" d="M87.463,122.745H76.957c-1.002,0-1.814-0.812-1.814-1.816c0-1.005,0.812-1.817,1.814-1.817h10.506
					c1.004,0,1.818,0.812,1.818,1.817C89.281,121.933,88.467,122.745,87.463,122.745z"/>
			</g>
			<g>
				<path fill="#FFFFFF" d="M72.012,156.479c-1.004,0-1.816-0.812-1.816-1.814v-33.736c0-1.005,0.812-1.817,1.816-1.817
					c1.002,0,1.816,0.812,1.816,1.817v33.736C73.828,155.667,73.014,156.479,72.012,156.479z"/>
			</g>
			<g>
				<path fill="#FFFFFF" d="M87.463,142.119H76.957c-1.002,0-1.814-0.813-1.814-1.817s0.812-1.817,1.814-1.817h10.506
					c4.344,0,7.873-3.53,7.873-7.87c0-4.339-3.529-7.869-7.873-7.869c-1.002,0-1.814-0.812-1.814-1.816
					c0-1.005,0.812-1.817,1.814-1.817c6.344,0,11.506,5.159,11.506,11.503C98.969,136.957,93.807,142.119,87.463,142.119z"/>
			</g>
		</g>
		<g>
			<path fill="#FFFFFF" d="M10.573,156.425c-1.004,0-1.817-0.814-1.817-1.815v-33.681c0-1.005,0.813-1.817,1.817-1.817
				s1.817,0.812,1.817,1.817v33.681C12.39,155.61,11.577,156.425,10.573,156.425z"/>
		</g>
		<g>
			<path fill="#FFFFFF" d="M57.385,156.425c-1.004,0-1.816-0.814-1.816-1.815v-33.681c0-1.005,0.812-1.817,1.816-1.817
				c1.002,0,1.814,0.812,1.814,1.817v33.681C59.199,155.61,58.387,156.425,57.385,156.425z"/>
		</g>
		<g>
			<path fill="#FFFFFF" d="M45.012,139.611c-0.373,0-0.748-0.114-1.072-0.354c-0.807-0.593-0.982-1.729-0.389-2.535l12.371-16.869
				c0.592-0.805,1.73-0.982,2.535-0.39c0.809,0.594,0.984,1.729,0.389,2.537l-12.369,16.867
				C46.123,139.353,45.572,139.611,45.012,139.611z"/>
		</g>
		<g>
			<path fill="#FFFFFF" d="M41.534,144.362c-0.562,0-1.114-0.256-1.469-0.744l-15.798-21.62c-0.591-0.808-0.416-1.942,0.395-2.536
				c0.813-0.591,1.948-0.415,2.539,0.396l15.796,21.618c0.59,0.808,0.416,1.943-0.395,2.536
				C42.279,144.247,41.903,144.362,41.534,144.362z"/>
		</g>
		<g>
			<path fill="#FFFFFF" d="M25.733,156.425c-1.004,0-1.817-0.814-1.817-1.815v-33.681c0-1.005,0.813-1.817,1.817-1.817
				c1.004,0,1.814,0.812,1.814,1.817v33.681C27.548,155.61,26.737,156.425,25.733,156.425z"/>
		</g>
		<g>
			<path fill="#FFFFFF" d="M214.428,122.745h-26.742c-1.004,0-1.818-0.812-1.818-1.816c0-1.005,0.814-1.817,1.818-1.817h26.742
				c1.004,0,1.816,0.812,1.816,1.817C216.244,121.933,215.432,122.745,214.428,122.745z"/>
		</g>
		<g>
			<path fill="#FFFFFF" d="M201.348,156.425c-1.002,0-1.814-0.814-1.814-1.815v-28.311c0-1.001,0.812-1.814,1.814-1.814
				c1.004,0,1.818,0.813,1.818,1.814v28.311C203.166,155.61,202.352,156.425,201.348,156.425z"/>
		</g>
		<g>
			<g>
				<path fill="#FFFFFF" d="M122.988,156.479c-9.066,0-16.801-6.467-18.389-15.381c-0.176-0.985,0.482-1.927,1.471-2.102
					c0.99-0.186,1.93,0.479,2.105,1.467c1.277,7.178,7.506,12.384,14.812,12.384c7.303,0,13.533-5.206,14.814-12.386
					c0.174-0.986,1.094-1.65,2.107-1.465c0.986,0.175,1.643,1.116,1.467,2.105C139.787,150.013,132.053,156.479,122.988,156.479z"/>
			</g>
			<g>
				<path fill="#FFFFFF" d="M106.389,136.628c-0.105,0-0.211-0.011-0.318-0.028c-0.988-0.176-1.646-1.12-1.471-2.105
					c1.588-8.911,9.322-15.383,18.389-15.383s16.803,6.469,18.389,15.38c0.176,0.986-0.48,1.93-1.469,2.105
					c-0.998,0.185-1.932-0.481-2.105-1.47c-1.277-7.176-7.51-12.382-14.814-12.382c-7.303,0-13.535,5.21-14.812,12.384
					C108.018,136.011,107.252,136.628,106.389,136.628z"/>
			</g>
		</g>
	</g>
	<g>
		<g>
			<g>
				<path fill="#FFFFFF" d="M88.766,15.56H62.023c-1.004,0-1.816-0.811-1.816-1.814c0-1.005,0.812-1.815,1.816-1.815h26.742
					c1.004,0,1.816,0.811,1.816,1.815C90.582,14.749,89.77,15.56,88.766,15.56z"/>
			</g>
			<g>
				<path fill="#FFFFFF" d="M75.688,49.241c-1.002,0-1.816-0.811-1.816-1.814V19.118c0-1.004,0.814-1.817,1.816-1.817
					s1.816,0.813,1.816,1.817v28.309C77.504,48.431,76.689,49.241,75.688,49.241z"/>
			</g>
		</g>
		<g>
			<g>
				<path fill="#FFFFFF" d="M99.072,49.243c-1.004,0-1.816-0.811-1.816-1.814V13.69c0-1.005,0.812-1.815,1.816-1.815
					c1.002,0,1.814,0.811,1.814,1.815v33.738C100.887,48.433,100.074,49.243,99.072,49.243z"/>
			</g>
			<g>
				<path fill="#FFFFFF" d="M124.914,49.243c-1.004,0-1.816-0.811-1.816-1.814V13.69c0-1.005,0.812-1.815,1.816-1.815
					c1.002,0,1.816,0.811,1.816,1.815v33.738C126.73,48.433,125.916,49.243,124.914,49.243z"/>
			</g>
			<g>
				<path fill="#FFFFFF" d="M119.541,31.948h-15.098c-1.004,0-1.816-0.811-1.816-1.813c0-1.005,0.812-1.815,1.816-1.815h15.098
					c1.004,0,1.818,0.811,1.818,1.815C121.359,31.138,120.545,31.948,119.541,31.948z"/>
			</g>
		</g>
		<g>
			<g>
				<path fill="#FFFFFF" d="M162.977,49.241h-17.73c-1.002,0-1.816-0.811-1.816-1.814c0-1.005,0.814-1.815,1.816-1.815h17.73
					c1.004,0,1.816,0.811,1.816,1.815C164.793,48.431,163.98,49.241,162.977,49.241z"/>
			</g>
			<g>
				<path fill="#FFFFFF" d="M139.756,49.241c-1.004,0-1.816-0.811-1.816-1.814V13.69c0-1.005,0.812-1.815,1.816-1.815
					s1.816,0.811,1.816,1.815v33.736C141.572,48.431,140.76,49.241,139.756,49.241z"/>
			</g>
			<g>
				<path fill="#FFFFFF" d="M162.977,15.504h-17.73c-1.002,0-1.816-0.811-1.816-1.813c0-1.005,0.814-1.815,1.816-1.815h17.73
					c1.004,0,1.816,0.811,1.816,1.815C164.793,14.693,163.98,15.504,162.977,15.504z"/>
			</g>
			<g>
				<path fill="#FFFFFF" d="M160.518,32.425h-15.271c-1.002,0-1.816-0.813-1.816-1.814c0-1.004,0.814-1.817,1.816-1.817h15.271
					c1.004,0,1.818,0.813,1.818,1.817C162.336,31.611,161.521,32.425,160.518,32.425z"/>
			</g>
		</g>
	</g>
	<g>
		<g>
			<g>
				<path fill="#FFFFFF" d="M131.189,210.062c-9.068,0-16.801-6.466-18.387-15.38c-0.178-0.986,0.48-1.93,1.469-2.104
					c0.982-0.187,1.926,0.48,2.102,1.469c1.279,7.178,7.51,12.384,14.816,12.384c7.303,0,13.533-5.206,14.814-12.386
					c0.174-0.986,1.088-1.653,2.109-1.467c0.984,0.175,1.641,1.118,1.463,2.106C147.99,203.596,140.254,210.062,131.189,210.062z"/>
			</g>
			<g>
				<path fill="#FFFFFF" d="M114.59,190.21c-0.104,0-0.211-0.01-0.318-0.029c-0.988-0.174-1.646-1.118-1.469-2.104
					c1.586-8.911,9.318-15.383,18.387-15.383s16.803,6.469,18.387,15.381c0.178,0.985-0.479,1.929-1.467,2.104
					c-0.99,0.183-1.932-0.481-2.105-1.47c-1.277-7.175-7.508-12.384-14.814-12.384c-7.303,0-13.535,5.212-14.816,12.387
					C116.219,189.593,115.453,190.21,114.59,190.21z"/>
			</g>
		</g>
		<g>
			<g>
				<path fill="#FFFFFF" d="M75.219,210.064c-1,0-1.812-0.813-1.812-1.817v-33.735c0-1.005,0.812-1.818,1.812-1.818
					c1.004,0,1.818,0.813,1.818,1.818v33.735C77.037,209.251,76.223,210.064,75.219,210.064z"/>
			</g>
			<g>
				<path fill="#FFFFFF" d="M101.061,210.064c-1,0-1.814-0.813-1.814-1.817v-33.735c0-1.005,0.814-1.818,1.814-1.818
					c1.006,0,1.818,0.813,1.818,1.818v33.735C102.879,209.251,102.066,210.064,101.061,210.064z"/>
			</g>
			<g>
				<path fill="#FFFFFF" d="M95.691,192.77H80.594c-1.006,0-1.818-0.812-1.818-1.817c0-1.001,0.812-1.814,1.818-1.814h15.098
					c1.002,0,1.814,0.813,1.814,1.814C97.506,191.957,96.693,192.77,95.691,192.77z"/>
			</g>
		</g>
		<g>
			<g>
				<path fill="#FFFFFF" d="M61.262,179.134c-0.352,0-0.709-0.102-1.023-0.316c-2.494-1.702-4.488-2.123-7.25-2.573
					c-0.988-0.158-1.66-1.093-1.498-2.083c0.162-0.992,1.09-1.672,2.084-1.499c3.039,0.494,5.609,1.041,8.713,3.153
					c0.828,0.564,1.039,1.694,0.479,2.526C62.412,178.856,61.842,179.134,61.262,179.134z"/>
			</g>
			<g>
				<path fill="#FFFFFF" d="M53.365,210.163c-0.842,0-1.598-0.588-1.775-1.447c-0.205-0.98,0.426-1.94,1.408-2.147
					c3.211-0.664,6.449-2.876,6.449-6.32c0-2.913-3.133-5.298-9.309-7.089c-2.953-0.854-11.932-3.462-11.932-10.576
					c0-4.767,3.778-8.739,9.4-9.884c0.982-0.202,1.943,0.431,2.141,1.417c0.201,0.983-0.43,1.94-1.414,2.142
					c-3.234,0.656-6.495,2.868-6.495,6.325c0,2.91,3.134,5.295,9.31,7.089c2.949,0.857,11.934,3.456,11.934,10.576
					c0,4.748-3.758,8.719-9.346,9.879C53.613,210.153,53.488,210.163,53.365,210.163z"/>
			</g>
			<g>
				<path fill="#FFFFFF" d="M47.965,210.192c-0.098,0-0.201-0.008-0.299-0.025c-3.471-0.578-7.035-1.983-9.775-3.855
					c-0.829-0.562-1.043-1.693-0.476-2.523c0.562-0.822,1.689-1.048,2.521-0.476c2.322,1.585,5.357,2.78,8.326,3.271
					c0.99,0.165,1.656,1.101,1.492,2.089C49.607,209.562,48.836,210.192,47.965,210.192z"/>
			</g>
		</g>
		<g>
			<g>
				<path fill="#FFFFFF" d="M176.396,176.325h-10.506c-1.002,0-1.814-0.812-1.814-1.813c0-1.005,0.812-1.818,1.814-1.818h10.506
					c1.004,0,1.816,0.813,1.816,1.818C178.213,175.513,177.4,176.325,176.396,176.325z"/>
			</g>
			<g>
				<path fill="#FFFFFF" d="M160.945,210.062c-1.004,0-1.816-0.812-1.816-1.814v-33.735c0-1.005,0.812-1.818,1.816-1.818
					c1.002,0,1.814,0.813,1.814,1.818v33.735C162.76,209.249,161.947,210.062,160.945,210.062z"/>
			</g>
			<g>
				<path fill="#FFFFFF" d="M176.396,195.701h-10.506c-1.002,0-1.814-0.813-1.814-1.817s0.812-1.817,1.814-1.817h10.506
					c4.342,0,7.873-3.53,7.873-7.87c0-4.338-3.531-7.871-7.873-7.871c-1.002,0-1.814-0.812-1.814-1.813
					c0-1.005,0.812-1.818,1.814-1.818c6.344,0,11.504,5.159,11.504,11.503C187.9,190.539,182.74,195.701,176.396,195.701z"/>
			</g>
		</g>
	</g>
</g>
</svg>
