<?xml version="1.0" encoding="utf-8"?>
<!-- Generator: Adobe Illustrator 16.0.0, SVG Export Plug-In . SVG Version: 6.00 Build 0)  -->
<!DOCTYPE svg PUBLIC "-//W3C//DTD SVG 1.1//EN" "http://www.w3.org/Graphics/SVG/1.1/DTD/svg11.dtd">
<svg version="1.1" id="Layer_1" xmlns="http://www.w3.org/2000/svg" xmlns:xlink="http://www.w3.org/1999/xlink" x="0px" y="0px"
	 width="56px" height="56px" viewBox="0 0 56 56" enable-background="new 0 0 56 56" xml:space="preserve">
<g>
	<g>
		<g>
			<path d="M18.532,38.261c-0.16,0-0.324-0.036-0.48-0.108c-0.554-0.267-0.786-0.932-0.52-1.484l7.271-15.109
				c0.266-0.555,0.924-0.787,1.483-0.521c0.553,0.268,0.784,0.931,0.521,1.482l-7.271,15.111
				C19.343,38.029,18.947,38.261,18.532,38.261z"/>
		</g>
		<g>
			<path d="M37.471,38.261c-0.42,0-0.813-0.233-1.006-0.636l-9.408-19.791c-0.264-0.556-0.027-1.218,0.524-1.481
				c0.562-0.261,1.218-0.025,1.481,0.528l9.405,19.791c0.265,0.555,0.029,1.219-0.522,1.48
				C37.791,38.227,37.627,38.261,37.471,38.261z"/>
		</g>
		<g>
			<path d="M29.725,31.204h-7.838c-0.613,0-1.111-0.496-1.111-1.109c0-0.612,0.498-1.11,1.111-1.11h7.84
				c0.613,0,1.111,0.498,1.111,1.11C30.838,30.708,30.34,31.204,29.725,31.204z"/>
		</g>
	</g>
	<g>
		<path d="M28,55.5C12.835,55.5,0.498,43.163,0.498,28S12.835,0.5,28,0.5c15.164,0,27.502,12.337,27.502,27.5S43.164,55.5,28,55.5z
			 M28,2.722C14.062,2.722,2.721,14.061,2.721,28c0,13.938,11.341,25.277,25.279,25.277c13.939,0,25.279-11.34,25.279-25.277
			C53.279,14.061,41.939,2.722,28,2.722z"/>
	</g>
</g>
</svg>
