<?xml version="1.0" encoding="UTF-8"?>
<svg width="273px" height="54px" viewBox="0 0 273 54" version="1.1" xmlns="http://www.w3.org/2000/svg" xmlns:xlink="http://www.w3.org/1999/xlink">
    <!-- Generator: Sketch 42 (36781) - http://www.bohemiancoding.com/sketch -->
    <title>Group 6 + Group 9 Mask</title>
    <desc>Created with Sketch.</desc>
    <defs>
        <rect id="path-1" x="0.796875" y="0" width="306.597656" height="74.46875"></rect>
        <path d="M203.493123,99.4519248 C204.150744,98.5594397 205.581366,97.8359375 206.674686,97.8359375 L251.71512,97.8359375 C260.000424,97.8359375 266.722656,91.1244878 266.722656,82.8454951 L266.722656,14.9904424 C266.722656,6.7081163 260.003553,0 251.71512,0 L15.0075366,0 C6.72223234,0 0,6.71144969 0,14.9904424 L0,82.8454951 C0,91.1278212 6.719103,97.8359375 15.0075366,97.8359375 L179.092082,97.8359375 C180.194195,97.8359375 181.613491,98.5496016 182.278361,99.4519248 L189.916702,109.818245 C191.556035,112.043053 194.215027,112.043627 195.854782,109.818245 L203.493123,99.4519248 Z" id="path-3"></path>
        <filter x="-50%" y="-50%" width="200%" height="200%" filterUnits="objectBoundingBox" id="filter-4">
            <feOffset dx="3" dy="3" in="SourceAlpha" result="shadowOffsetOuter1"></feOffset>
            <feGaussianBlur stdDeviation="1.5" in="shadowOffsetOuter1" result="shadowBlurOuter1"></feGaussianBlur>
            <feComposite in="shadowBlurOuter1" in2="SourceAlpha" operator="out" result="shadowBlurOuter1"></feComposite>
            <feColorMatrix values="0 0 0 0 0   0 0 0 0 0   0 0 0 0 0  0 0 0 0.0157382246 0" type="matrix" in="shadowBlurOuter1"></feColorMatrix>
        </filter>
        <mask id="mask-5" maskContentUnits="userSpaceOnUse" maskUnits="objectBoundingBox" x="0" y="0" width="266.722656" height="111.487066" fill="white">
            <use xlink:href="#path-3"></use>
        </mask>
    </defs>
    <g id="Page-1" stroke="none" stroke-width="1" fill="none" fill-rule="evenodd">
        <g id="Desktop-HD-Copy" transform="translate(-732.000000, -185.000000)">
            <g id="Group-6-+-Group-9-Mask" transform="translate(717.000000, 185.000000)">
                <mask id="mask-2" fill="white">
                    <use xlink:href="#path-1"></use>
                </mask>
                <g id="Mask" transform="translate(154.095703, 37.234375) scale(1, -1) translate(-154.095703, -37.234375) "></g>
                <g id="Group-9" mask="url(#mask-2)">
                    <g transform="translate(15.000000, -64.000000)">
                        <g id="Combined-Shape" fill="none">
                            <use fill="black" fill-opacity="1" filter="url(#filter-4)" xlink:href="#path-3"></use>
                            <use stroke="#E1E1E1" mask="url(#mask-5)" stroke-width="2" fill="#FFFFFF" fill-rule="evenodd" xlink:href="#path-3"></use>
                        </g>
                        <path d="M67.8691875,29.3291875 C68.1731875,29.3291875 68.3651875,29.2811875 68.6211875,29.0251875 L69.8211875,27.8891875 C69.9491875,27.7611875 70.0451875,27.6491875 70.0451875,27.5211875 C70.0451875,27.2971875 69.5651875,27.0411875 69.1811875,27.0411875 C68.9411875,27.0411875 68.7651875,27.1691875 68.6051875,27.4091875 L67.6451875,28.8651875 C67.5971875,28.9291875 67.5651875,29.0251875 67.5651875,29.1051875 C67.5651875,29.2331875 67.6931875,29.3291875 67.8691875,29.3291875 Z M67.9011875,41.8091875 C64.4931875,41.8091875 62.2051875,39.1371875 62.2051875,36.0491875 L62.2051875,36.0171875 C62.2051875,32.9291875 64.5251875,30.2251875 67.9331875,30.2251875 C71.3411875,30.2251875 73.6291875,32.8971875 73.6291875,35.9851875 L73.6291875,36.0171875 C73.6291875,39.1051875 71.3091875,41.8091875 67.9011875,41.8091875 Z M67.9331875,40.6411875 C70.4931875,40.6411875 72.3171875,38.5931875 72.3171875,36.0491875 L72.3171875,36.0171875 C72.3171875,33.4731875 70.4611875,31.3931875 67.9011875,31.3931875 C65.3411875,31.3931875 63.5171875,33.4411875 63.5171875,35.9851875 L63.5171875,36.0171875 C63.5171875,38.5611875 65.3731875,40.6411875 67.9331875,40.6411875 Z M78.8611875,41.7611875 C79.3411875,41.7611875 79.7251875,41.6811875 80.0771875,41.5371875 C80.2851875,41.4571875 80.4291875,41.2811875 80.4291875,41.0571875 C80.4291875,40.7691875 80.1891875,40.5291875 79.9011875,40.5291875 C79.8051875,40.5291875 79.5811875,40.6411875 79.1491875,40.6411875 C78.3171875,40.6411875 77.7571875,40.2731875 77.7571875,39.2651875 L77.7571875,34.4331875 L79.9011875,34.4331875 C80.2051875,34.4331875 80.4611875,34.1931875 80.4611875,33.8891875 C80.4611875,33.6011875 80.2051875,33.3451875 79.9011875,33.3451875 L77.7571875,33.3451875 L77.7571875,31.3931875 C77.7571875,31.0571875 77.4691875,30.7691875 77.1331875,30.7691875 C76.7811875,30.7691875 76.5251875,31.0571875 76.5251875,31.3931875 L76.5251875,33.3451875 L75.8531875,33.3451875 C75.5651875,33.3451875 75.3091875,33.5851875 75.3091875,33.8891875 C75.3091875,34.1771875 75.5651875,34.4331875 75.8531875,34.4331875 L76.5251875,34.4331875 L76.5251875,39.4251875 C76.5251875,41.1051875 77.5331875,41.7611875 78.8611875,41.7611875 Z M82.5571875,30.9611875 C82.5571875,31.3451875 82.8771875,31.6171875 83.2771875,31.6171875 C83.6931875,31.6171875 84.0131875,31.3451875 84.0131875,30.9611875 L84.0131875,30.7531875 C84.0131875,30.3531875 83.6931875,30.0971875 83.2771875,30.0971875 C82.8771875,30.0971875 82.5571875,30.3531875 82.5571875,30.7531875 L82.5571875,30.9611875 Z M82.6691875,41.0731875 C82.6691875,41.4251875 82.9411875,41.6971875 83.2931875,41.6971875 C83.6451875,41.6971875 83.9011875,41.4251875 83.9011875,41.0731875 L83.9011875,33.8891875 C83.9011875,33.5371875 83.6291875,33.2651875 83.2771875,33.2651875 C82.9411875,33.2651875 82.6691875,33.5531875 82.6691875,33.8891875 L82.6691875,41.0731875 Z M86.7651875,41.0731875 C86.7651875,41.4251875 87.0371875,41.6971875 87.3891875,41.6971875 C87.7411875,41.6971875 87.9971875,41.4251875 87.9971875,41.0731875 L87.9971875,36.8971875 C87.9971875,35.3771875 88.9891875,34.2891875 90.3011875,34.2891875 C91.6131875,34.2891875 92.4291875,35.2011875 92.4291875,36.7531875 L92.4291875,41.0731875 C92.4291875,41.4251875 92.7011875,41.6971875 93.0371875,41.6971875 C93.3891875,41.6971875 93.6611875,41.4251875 93.6611875,41.0731875 L93.6611875,36.8491875 C93.6611875,35.2171875 94.6851875,34.2891875 95.9331875,34.2891875 C97.2771875,34.2891875 98.0771875,35.1851875 98.0771875,36.7851875 L98.0771875,41.0731875 C98.0771875,41.4251875 98.3491875,41.6971875 98.7011875,41.6971875 C99.0371875,41.6971875 99.3091875,41.4251875 99.3091875,41.0731875 L99.3091875,36.4971875 C99.3091875,34.4491875 98.1411875,33.1691875 96.2371875,33.1691875 C94.7971875,33.1691875 93.9171875,33.9051875 93.3251875,34.8171875 C92.8771875,33.8891875 92.0131875,33.1691875 90.6691875,33.1691875 C89.2771875,33.1691875 88.5411875,33.9211875 87.9971875,34.7371875 L87.9971875,33.8891875 C87.9971875,33.5371875 87.7251875,33.2651875 87.3731875,33.2651875 C87.0371875,33.2651875 86.7651875,33.5531875 86.7651875,33.8891875 L86.7651875,41.0731875 Z M105.757187,41.8091875 C103.277187,41.8091875 101.469187,39.8571875 101.469187,37.5211875 L101.469187,37.4891875 C101.469187,35.1531875 103.293187,33.1691875 105.789187,33.1691875 C108.269187,33.1691875 110.093187,35.1211875 110.093187,37.4571875 L110.093187,37.4891875 C110.093187,39.8251875 108.253187,41.8091875 105.757187,41.8091875 Z M105.789187,40.7051875 C107.581187,40.7051875 108.829187,39.2651875 108.829187,37.5211875 L108.829187,37.4891875 C108.829187,35.7131875 107.501187,34.2571875 105.757187,34.2571875 C103.965187,34.2571875 102.733187,35.7131875 102.733187,37.4571875 L102.733187,37.4891875 C102.733187,39.2651875 104.045187,40.7051875 105.789187,40.7051875 Z M121.133187,41.2171875 L124.253187,34.1771875 C124.285187,34.0971875 124.317187,33.9851875 124.317187,33.8731875 C124.317187,33.5371875 124.045187,33.2651875 123.709187,33.2651875 C123.389187,33.2651875 123.213187,33.4731875 123.133187,33.7131875 L120.413187,40.2091875 L117.741187,33.7451875 C117.645187,33.4731875 117.469187,33.2651875 117.117187,33.2651875 C116.765187,33.2651875 116.493187,33.5531875 116.493187,33.8731875 C116.493187,33.9851875 116.541187,34.0971875 116.573187,34.2091875 L119.677187,41.2171875 C119.821187,41.5371875 120.045187,41.7451875 120.381187,41.7451875 L120.445187,41.7451875 C120.781187,41.7451875 120.989187,41.5371875 121.133187,41.2171875 Z M127.197187,37.0251875 L132.525187,37.0251875 C132.397187,35.5211875 131.533187,34.2091875 129.885187,34.2091875 C128.445187,34.2091875 127.357187,35.4091875 127.197187,37.0251875 Z M133.197187,40.5611875 C132.413187,41.3131875 131.485187,41.8091875 130.077187,41.8091875 C127.805187,41.8091875 125.949187,40.0651875 125.949187,37.5051875 L125.949187,37.4731875 C125.949187,35.0891875 127.629187,33.1691875 129.917188,33.1691875 C132.365187,33.1691875 133.757187,35.1691875 133.757187,37.3611875 C133.757187,37.6971875 133.485187,37.9371875 133.181187,37.9371875 L127.197187,37.9371875 C127.373187,39.7291875 128.637187,40.7371875 130.109187,40.7371875 C131.133187,40.7371875 131.885187,40.3371875 132.493187,39.7771875 C132.589187,39.6971875 132.701187,39.6331875 132.845187,39.6331875 C133.149187,39.6331875 133.389187,39.8731875 133.389187,40.1611875 C133.389187,40.3051875 133.325187,40.4491875 133.197187,40.5611875 Z M135.933187,41.0731875 C135.933187,41.4251875 136.205187,41.6971875 136.557187,41.6971875 C136.909187,41.6971875 137.165187,41.4251875 137.165187,41.0731875 L137.165187,36.8811875 C137.165187,35.3291875 138.221187,34.2891875 139.645187,34.2891875 C141.101187,34.2891875 141.933187,35.2491875 141.933187,36.7851875 L141.933187,41.0731875 C141.933187,41.4251875 142.205187,41.6971875 142.557187,41.6971875 C142.893187,41.6971875 143.165187,41.4251875 143.165187,41.0731875 L143.165187,36.4811875 C143.165187,34.5131875 141.997187,33.1691875 139.997187,33.1691875 C138.573187,33.1691875 137.709187,33.8891875 137.165187,34.7851875 L137.165187,33.8891875 C137.165187,33.5371875 136.893187,33.2651875 136.541187,33.2651875 C136.205187,33.2651875 135.933187,33.5531875 135.933187,33.8891875 L135.933187,41.0731875 Z M153.661187,30.4811875 L153.661187,41.0731875 C153.661187,41.4251875 153.389187,41.6971875 153.053187,41.6971875 C152.701187,41.6971875 152.429187,41.4251875 152.429187,41.0731875 L152.429187,39.9531875 C151.757187,40.9451875 150.781187,41.7931875 149.261187,41.7931875 C147.277187,41.7931875 145.309187,40.2251875 145.309187,37.5051875 L145.309187,37.4731875 C145.309187,34.7691875 147.277187,33.1691875 149.261187,33.1691875 C150.797187,33.1691875 151.789187,34.0011875 152.429187,34.9291875 L152.429187,30.4811875 C152.429187,30.1291875 152.685187,29.8571875 153.037187,29.8571875 C153.389187,29.8571875 153.661187,30.1291875 153.661187,30.4811875 Z M149.485187,34.2731875 C147.885187,34.2731875 146.573187,35.4571875 146.573187,37.4571875 L146.573187,37.4891875 C146.573187,39.4411875 147.933187,40.6891875 149.485187,40.6891875 C151.021187,40.6891875 152.477187,39.3931875 152.477187,37.4891875 L152.477187,37.4571875 C152.477187,35.5531875 151.021187,34.2731875 149.485187,34.2731875 Z M157.149187,37.0251875 L162.477187,37.0251875 C162.349187,35.5211875 161.485187,34.2091875 159.837187,34.2091875 C158.397187,34.2091875 157.309187,35.4091875 157.149187,37.0251875 Z M163.149187,40.5611875 C162.365187,41.3131875 161.437187,41.8091875 160.029187,41.8091875 C157.757187,41.8091875 155.901187,40.0651875 155.901187,37.5051875 L155.901187,37.4731875 C155.901187,35.0891875 157.581187,33.1691875 159.869187,33.1691875 C162.317187,33.1691875 163.709187,35.1691875 163.709187,37.3611875 C163.709187,37.6971875 163.437187,37.9371875 163.133187,37.9371875 L157.149187,37.9371875 C157.325187,39.7291875 158.589187,40.7371875 160.061187,40.7371875 C161.085187,40.7371875 161.837187,40.3371875 162.445187,39.7771875 C162.541187,39.6971875 162.653187,39.6331875 162.797187,39.6331875 C163.101187,39.6331875 163.341187,39.8731875 163.341187,40.1611875 C163.341187,40.3051875 163.277187,40.4491875 163.149187,40.5611875 Z M173.757187,30.4811875 L173.757187,41.0731875 C173.757187,41.4251875 173.485187,41.6971875 173.149187,41.6971875 C172.797187,41.6971875 172.525187,41.4251875 172.525187,41.0731875 L172.525187,39.9531875 C171.853187,40.9451875 170.877187,41.7931875 169.357187,41.7931875 C167.373187,41.7931875 165.405187,40.2251875 165.405187,37.5051875 L165.405187,37.4731875 C165.405187,34.7691875 167.373187,33.1691875 169.357187,33.1691875 C170.893187,33.1691875 171.885187,34.0011875 172.525187,34.9291875 L172.525187,30.4811875 C172.525187,30.1291875 172.781187,29.8571875 173.133187,29.8571875 C173.485187,29.8571875 173.757187,30.1291875 173.757187,30.4811875 Z M169.581187,34.2731875 C167.981187,34.2731875 166.669187,35.4571875 166.669187,37.4571875 L166.669187,37.4891875 C166.669187,39.4411875 168.029187,40.6891875 169.581187,40.6891875 C171.117187,40.6891875 172.573187,39.3931875 172.573187,37.4891875 L172.573187,37.4571875 C172.573187,35.5531875 171.117187,34.2731875 169.581187,34.2731875 Z M180.285187,41.8091875 C177.805187,41.8091875 175.997187,39.8571875 175.997187,37.5211875 L175.997187,37.4891875 C175.997187,35.1531875 177.821187,33.1691875 180.317187,33.1691875 C182.797187,33.1691875 184.621187,35.1211875 184.621187,37.4571875 L184.621187,37.4891875 C184.621187,39.8251875 182.781187,41.8091875 180.285187,41.8091875 Z M180.317187,40.7051875 C182.109187,40.7051875 183.357187,39.2651875 183.357187,37.5211875 L183.357187,37.4891875 C183.357187,35.7131875 182.029187,34.2571875 180.285187,34.2571875 C178.493187,34.2571875 177.261187,35.7131875 177.261187,37.4571875 L177.261187,37.4891875 C177.261187,39.2651875 178.573187,40.7051875 180.317187,40.7051875 Z M186.845187,41.0731875 C186.845187,41.4251875 187.117187,41.6971875 187.469187,41.6971875 C187.821187,41.6971875 188.077187,41.4091875 188.077187,41.0731875 L188.077187,38.2571875 C188.077187,35.8731875 189.389187,34.6731875 190.989187,34.4811875 C191.309187,34.4331875 191.533187,34.1931875 191.533187,33.8571875 C191.533187,33.5051875 191.293187,33.2331875 190.925187,33.2331875 C189.885187,33.2331875 188.685187,34.0651875 188.077187,35.4411875 L188.077187,33.8891875 C188.077187,33.5371875 187.805187,33.2651875 187.453187,33.2651875 C187.117187,33.2651875 186.845187,33.5531875 186.845187,33.8891875 L186.845187,41.0731875 Z M192.669187,43.2171875 C192.669187,43.4091875 192.797187,43.5371875 193.005187,43.5371875 C193.261187,43.5371875 193.757187,43.2971875 194.093187,42.9611875 C194.461187,42.5931875 194.669187,42.0011875 194.669187,41.0411875 L194.669187,40.7371875 C194.669187,40.2091875 194.349187,39.8571875 193.885187,39.8571875 C193.453187,39.8571875 193.149187,40.1771875 193.149187,40.5931875 L193.149187,40.8491875 C193.149187,41.2811875 193.437187,41.5371875 193.773187,41.6171875 C193.805187,42.2411875 193.533187,42.6411875 192.877187,42.9291875 C192.749187,42.9771875 192.669187,43.0891875 192.669187,43.2171875 Z M62.7011875,66.0571875 L62.7011875,56.0571875 C62.7011875,55.7051875 62.9891875,55.4171875 63.3251875,55.4171875 L66.8931875,55.4171875 C69.4211875,55.4171875 71.0851875,56.7611875 71.0851875,58.9691875 L71.0851875,59.0011875 C71.0851875,61.4171875 69.0691875,62.6651875 66.6851875,62.6651875 L63.9651875,62.6651875 L63.9651875,66.0571875 C63.9651875,66.4091875 63.6771875,66.6971875 63.3251875,66.6971875 C62.9891875,66.6971875 62.7011875,66.4091875 62.7011875,66.0571875 Z M63.9651875,61.5131875 L66.7331875,61.5131875 C68.5891875,61.5131875 69.8051875,60.5211875 69.8051875,59.0491875 L69.8051875,59.0171875 C69.8051875,57.4171875 68.6051875,56.5851875 66.7971875,56.5851875 L63.9651875,56.5851875 L63.9651875,61.5131875 Z M73.1811875,66.0731875 C73.1811875,66.4251875 73.4531875,66.6971875 73.8051875,66.6971875 C74.1571875,66.6971875 74.4131875,66.4091875 74.4131875,66.0731875 L74.4131875,63.2571875 C74.4131875,60.8731875 75.7251875,59.6731875 77.3251875,59.4811875 C77.6451875,59.4331875 77.8691875,59.1931875 77.8691875,58.8571875 C77.8691875,58.5051875 77.6291875,58.2331875 77.2611875,58.2331875 C76.2211875,58.2331875 75.0211875,59.0651875 74.4131875,60.4411875 L74.4131875,58.8891875 C74.4131875,58.5371875 74.1411875,58.2651875 73.7891875,58.2651875 C73.4531875,58.2651875 73.1811875,58.5531875 73.1811875,58.8891875 L73.1811875,66.0731875 Z M83.4371875,66.8091875 C80.9571875,66.8091875 79.1491875,64.8571875 79.1491875,62.5211875 L79.1491875,62.4891875 C79.1491875,60.1531875 80.9731875,58.1691875 83.4691875,58.1691875 C85.9491875,58.1691875 87.7731875,60.1211875 87.7731875,62.4571875 L87.7731875,62.4891875 C87.7731875,64.8251875 85.9331875,66.8091875 83.4371875,66.8091875 Z M83.4691875,65.7051875 C85.2611875,65.7051875 86.5091875,64.2651875 86.5091875,62.5211875 L86.5091875,62.4891875 C86.5091875,60.7131875 85.1811875,59.2571875 83.4371875,59.2571875 C81.6451875,59.2571875 80.4131875,60.7131875 80.4131875,62.4571875 L80.4131875,62.4891875 C80.4131875,64.2651875 81.7251875,65.7051875 83.4691875,65.7051875 Z M97.8691875,55.4811875 L97.8691875,66.0731875 C97.8691875,66.4251875 97.5971875,66.6971875 97.2611875,66.6971875 C96.9091875,66.6971875 96.6371875,66.4251875 96.6371875,66.0731875 L96.6371875,64.9531875 C95.9651875,65.9451875 94.9891875,66.7931875 93.4691875,66.7931875 C91.4851875,66.7931875 89.5171875,65.2251875 89.5171875,62.5051875 L89.5171875,62.4731875 C89.5171875,59.7691875 91.4851875,58.1691875 93.4691875,58.1691875 C95.0051875,58.1691875 95.9971875,59.0011875 96.6371875,59.9291875 L96.6371875,55.4811875 C96.6371875,55.1291875 96.8931875,54.8571875 97.2451875,54.8571875 C97.5971875,54.8571875 97.8691875,55.1291875 97.8691875,55.4811875 Z M93.6931875,59.2731875 C92.0931875,59.2731875 90.7811875,60.4571875 90.7811875,62.4571875 L90.7811875,62.4891875 C90.7811875,64.4411875 92.1411875,65.6891875 93.6931875,65.6891875 C95.2291875,65.6891875 96.6851875,64.3931875 96.6851875,62.4891875 L96.6851875,62.4571875 C96.6851875,60.5531875 95.2291875,59.2731875 93.6931875,59.2731875 Z M107.709187,58.8891875 C107.709187,58.5371875 107.437187,58.2651875 107.101187,58.2651875 C106.749187,58.2651875 106.493187,58.5371875 106.493187,58.8891875 L106.493187,63.0811875 C106.493187,64.6331875 105.421187,65.6731875 104.013187,65.6731875 C102.557187,65.6731875 101.725187,64.7131875 101.725187,63.1771875 L101.725187,58.8891875 C101.725187,58.5371875 101.437187,58.2651875 101.101187,58.2651875 C100.749187,58.2651875 100.493187,58.5371875 100.493187,58.8891875 L100.493187,63.4811875 C100.493187,65.4491875 101.661187,66.7931875 103.661187,66.7931875 C105.085187,66.7931875 105.933187,66.0731875 106.493187,65.1771875 L106.493187,66.0731875 C106.493187,66.4251875 106.765187,66.6971875 107.101187,66.6971875 C107.453187,66.6971875 107.709187,66.4091875 107.709187,66.0731875 L107.709187,58.8891875 Z M113.245187,66.7611875 C113.725187,66.7611875 114.109187,66.6811875 114.461187,66.5371875 C114.669187,66.4571875 114.813187,66.2811875 114.813187,66.0571875 C114.813187,65.7691875 114.573187,65.5291875 114.285187,65.5291875 C114.189187,65.5291875 113.965187,65.6411875 113.533187,65.6411875 C112.701187,65.6411875 112.141187,65.2731875 112.141187,64.2651875 L112.141187,59.4331875 L114.285187,59.4331875 C114.589187,59.4331875 114.845187,59.1931875 114.845187,58.8891875 C114.845187,58.6011875 114.589187,58.3451875 114.285187,58.3451875 L112.141187,58.3451875 L112.141187,56.3931875 C112.141187,56.0571875 111.853187,55.7691875 111.517187,55.7691875 C111.165187,55.7691875 110.909187,56.0571875 110.909187,56.3931875 L110.909187,58.3451875 L110.237187,58.3451875 C109.949187,58.3451875 109.693187,58.5851875 109.693187,58.8891875 C109.693187,59.1771875 109.949187,59.4331875 110.237187,59.4331875 L110.909187,59.4331875 L110.909187,64.4251875 C110.909187,66.1051875 111.917187,66.7611875 113.245187,66.7611875 Z M120.717187,66.8091875 C118.237187,66.8091875 116.429187,64.8571875 116.429187,62.5211875 L116.429187,62.4891875 C116.429187,60.1531875 118.253187,58.1691875 120.749187,58.1691875 C123.229187,58.1691875 125.053187,60.1211875 125.053187,62.4571875 L125.053187,62.4891875 C125.053187,64.8251875 123.213187,66.8091875 120.717187,66.8091875 Z M120.749187,65.7051875 C122.541187,65.7051875 123.789187,64.2651875 123.789187,62.5211875 L123.789187,62.4891875 C123.789187,60.7131875 122.461187,59.2571875 120.717187,59.2571875 C118.925187,59.2571875 117.693187,60.7131875 117.693187,62.4571875 L117.693187,62.4891875 C117.693187,64.2651875 119.005187,65.7051875 120.749187,65.7051875 Z M139.949187,55.4811875 L139.949187,66.0731875 C139.949187,66.4251875 139.677187,66.6971875 139.341187,66.6971875 C138.989187,66.6971875 138.717187,66.4251875 138.717187,66.0731875 L138.717187,64.9531875 C138.045187,65.9451875 137.069187,66.7931875 135.549187,66.7931875 C133.565187,66.7931875 131.597187,65.2251875 131.597187,62.5051875 L131.597187,62.4731875 C131.597187,59.7691875 133.565187,58.1691875 135.549187,58.1691875 C137.085187,58.1691875 138.077187,59.0011875 138.717187,59.9291875 L138.717187,55.4811875 C138.717187,55.1291875 138.973187,54.8571875 139.325187,54.8571875 C139.677187,54.8571875 139.949187,55.1291875 139.949187,55.4811875 Z M135.773187,59.2731875 C134.173187,59.2731875 132.861187,60.4571875 132.861187,62.4571875 L132.861187,62.4891875 C132.861187,64.4411875 134.221187,65.6891875 135.773187,65.6891875 C137.309187,65.6891875 138.765187,64.3931875 138.765187,62.4891875 L138.765187,62.4571875 C138.765187,60.5531875 137.309187,59.2731875 135.773187,59.2731875 Z M143.437187,62.0251875 L148.765187,62.0251875 C148.637187,60.5211875 147.773187,59.2091875 146.125187,59.2091875 C144.685187,59.2091875 143.597187,60.4091875 143.437187,62.0251875 Z M149.437187,65.5611875 C148.653187,66.3131875 147.725187,66.8091875 146.317187,66.8091875 C144.045187,66.8091875 142.189187,65.0651875 142.189187,62.5051875 L142.189187,62.4731875 C142.189187,60.0891875 143.869187,58.1691875 146.157187,58.1691875 C148.605187,58.1691875 149.997187,60.1691875 149.997187,62.3611875 C149.997187,62.6971875 149.725187,62.9371875 149.421187,62.9371875 L143.437187,62.9371875 C143.613187,64.7291875 144.877187,65.7371875 146.349187,65.7371875 C147.373187,65.7371875 148.125187,65.3371875 148.733187,64.7771875 C148.829187,64.6971875 148.941187,64.6331875 149.085187,64.6331875 C149.389187,64.6331875 149.629187,64.8731875 149.629187,65.1611875 C149.629187,65.3051875 149.565187,65.4491875 149.437187,65.5611875 Z M156.973187,68.6331875 L156.973187,58.8891875 C156.973187,58.5371875 157.245187,58.2651875 157.581187,58.2651875 C157.933187,58.2651875 158.205187,58.5371875 158.205187,58.8891875 L158.205187,60.0091875 C158.877187,59.0171875 159.853187,58.1691875 161.373187,58.1691875 C163.357187,58.1691875 165.325187,59.7371875 165.325187,62.4571875 L165.325187,62.4891875 C165.325187,65.1931875 163.373187,66.7931875 161.373187,66.7931875 C159.837187,66.7931875 158.845187,65.9611875 158.205187,65.0331875 L158.205187,68.6331875 C158.205187,68.9851875 157.949187,69.2571875 157.597187,69.2571875 C157.245187,69.2571875 156.973187,68.9851875 156.973187,68.6331875 Z M161.149187,65.6891875 C162.749187,65.6891875 164.061187,64.5051875 164.061187,62.5051875 L164.061187,62.4731875 C164.061187,60.5211875 162.717187,59.2731875 161.149187,59.2731875 C159.613187,59.2731875 158.157187,60.5691875 158.157187,62.4571875 L158.157187,62.4891875 C158.157187,64.4091875 159.613187,65.6891875 161.149187,65.6891875 Z M167.597187,66.0731875 C167.597187,66.4251875 167.869187,66.6971875 168.221187,66.6971875 C168.573187,66.6971875 168.829187,66.4091875 168.829187,66.0731875 L168.829187,63.2571875 C168.829187,60.8731875 170.141187,59.6731875 171.741187,59.4811875 C172.061187,59.4331875 172.285187,59.1931875 172.285187,58.8571875 C172.285187,58.5051875 172.045187,58.2331875 171.677187,58.2331875 C170.637187,58.2331875 169.437187,59.0651875 168.829187,60.4411875 L168.829187,58.8891875 C168.829187,58.5371875 168.557187,58.2651875 168.205187,58.2651875 C167.869187,58.2651875 167.597187,58.5531875 167.597187,58.8891875 L167.597187,66.0731875 Z M174.077187,55.9611875 C174.077187,56.3451875 174.397187,56.6171875 174.797188,56.6171875 C175.213188,56.6171875 175.533187,56.3451875 175.533187,55.9611875 L175.533187,55.7531875 C175.533187,55.3531875 175.213188,55.0971875 174.797188,55.0971875 C174.397187,55.0971875 174.077187,55.3531875 174.077187,55.7531875 L174.077187,55.9611875 Z M174.189187,66.0731875 C174.189187,66.4251875 174.461187,66.6971875 174.813187,66.6971875 C175.165187,66.6971875 175.421187,66.4251875 175.421187,66.0731875 L175.421187,58.8891875 C175.421187,58.5371875 175.149187,58.2651875 174.797187,58.2651875 C174.461187,58.2651875 174.189187,58.5531875 174.189187,58.8891875 L174.189187,66.0731875 Z M178.285187,66.0731875 C178.285187,66.4251875 178.557187,66.6971875 178.909187,66.6971875 C179.261187,66.6971875 179.517187,66.4251875 179.517187,66.0731875 L179.517187,61.8971875 C179.517187,60.3771875 180.509187,59.2891875 181.821187,59.2891875 C183.133187,59.2891875 183.949187,60.2011875 183.949187,61.7531875 L183.949187,66.0731875 C183.949187,66.4251875 184.221187,66.6971875 184.557187,66.6971875 C184.909187,66.6971875 185.181187,66.4251875 185.181187,66.0731875 L185.181187,61.8491875 C185.181187,60.2171875 186.205187,59.2891875 187.453187,59.2891875 C188.797187,59.2891875 189.597187,60.1851875 189.597187,61.7851875 L189.597187,66.0731875 C189.597187,66.4251875 189.869187,66.6971875 190.221187,66.6971875 C190.557187,66.6971875 190.829187,66.4251875 190.829187,66.0731875 L190.829187,61.4971875 C190.829187,59.4491875 189.661187,58.1691875 187.757187,58.1691875 C186.317187,58.1691875 185.437187,58.9051875 184.845187,59.8171875 C184.397187,58.8891875 183.533187,58.1691875 182.189187,58.1691875 C180.797187,58.1691875 180.061187,58.9211875 179.517187,59.7371875 L179.517187,58.8891875 C179.517187,58.5371875 179.245187,58.2651875 178.893187,58.2651875 C178.557187,58.2651875 178.285187,58.5531875 178.285187,58.8891875 L178.285187,66.0731875 Z M194.237187,62.0251875 L199.565187,62.0251875 C199.437187,60.5211875 198.573187,59.2091875 196.925187,59.2091875 C195.485187,59.2091875 194.397187,60.4091875 194.237187,62.0251875 Z M200.237187,65.5611875 C199.453187,66.3131875 198.525187,66.8091875 197.117187,66.8091875 C194.845187,66.8091875 192.989187,65.0651875 192.989187,62.5051875 L192.989187,62.4731875 C192.989187,60.0891875 194.669187,58.1691875 196.957187,58.1691875 C199.405187,58.1691875 200.797187,60.1691875 200.797187,62.3611875 C200.797187,62.6971875 200.525187,62.9371875 200.221187,62.9371875 L194.237187,62.9371875 C194.413187,64.7291875 195.677187,65.7371875 197.149187,65.7371875 C198.173187,65.7371875 198.925187,65.3371875 199.533187,64.7771875 C199.629187,64.6971875 199.741187,64.6331875 199.885187,64.6331875 C200.189187,64.6331875 200.429187,64.8731875 200.429187,65.1611875 C200.429187,65.3051875 200.365187,65.4491875 200.237187,65.5611875 Z M202.973187,55.9611875 C202.973187,56.3451875 203.293187,56.6171875 203.693187,56.6171875 C204.109187,56.6171875 204.429187,56.3451875 204.429187,55.9611875 L204.429187,55.7531875 C204.429187,55.3531875 204.109187,55.0971875 203.693187,55.0971875 C203.293187,55.0971875 202.973187,55.3531875 202.973187,55.7531875 L202.973187,55.9611875 Z M203.085187,66.0731875 C203.085187,66.4251875 203.357187,66.6971875 203.709187,66.6971875 C204.061187,66.6971875 204.317187,66.4251875 204.317187,66.0731875 L204.317187,58.8891875 C204.317187,58.5371875 204.045187,58.2651875 203.693187,58.2651875 C203.357187,58.2651875 203.085187,58.5531875 203.085187,58.8891875 L203.085187,66.0731875 Z M207.181187,66.0731875 C207.181187,66.4251875 207.453187,66.6971875 207.805187,66.6971875 C208.157187,66.6971875 208.413187,66.4091875 208.413187,66.0731875 L208.413187,63.2571875 C208.413187,60.8731875 209.725187,59.6731875 211.325187,59.4811875 C211.645187,59.4331875 211.869187,59.1931875 211.869187,58.8571875 C211.869187,58.5051875 211.629187,58.2331875 211.261187,58.2331875 C210.221187,58.2331875 209.021187,59.0651875 208.413187,60.4411875 L208.413187,58.8891875 C208.413187,58.5371875 208.141187,58.2651875 207.789187,58.2651875 C207.453187,58.2651875 207.181187,58.5531875 207.181187,58.8891875 L207.181187,66.0731875 Z M216.125187,66.7931875 C214.589187,66.7931875 213.037187,65.9131875 213.037187,64.2171875 L213.037187,64.1851875 C213.037187,62.4411875 214.477187,61.5131875 216.573187,61.5131875 C217.629187,61.5131875 218.381187,61.6571875 219.117187,61.8651875 L219.117187,61.5771875 C219.117187,60.0891875 218.205187,59.3211875 216.653187,59.3211875 C215.821187,59.3211875 215.117187,59.5131875 214.509187,59.7851875 C214.429187,59.8171875 214.349187,59.8331875 214.285187,59.8331875 C213.997187,59.8331875 213.741187,59.5931875 213.741187,59.3051875 C213.741187,59.0491875 213.917187,58.8571875 214.077187,58.7931875 C214.893187,58.4411875 215.725187,58.2331875 216.781187,58.2331875 C217.949187,58.2331875 218.845187,58.5371875 219.453187,59.1451875 C220.013187,59.7051875 220.301187,60.5051875 220.301187,61.5611875 L220.301187,66.0891875 C220.301187,66.4411875 220.045187,66.6971875 219.709187,66.6971875 C219.357187,66.6971875 219.117187,66.4411875 219.117187,66.1211875 L219.117187,65.3691875 C218.541187,66.1211875 217.581187,66.7931875 216.125187,66.7931875 Z M216.365187,65.8171875 C217.885187,65.8171875 219.133187,64.8891875 219.133187,63.5771875 L219.133187,62.7771875 C218.525187,62.6011875 217.709187,62.4251875 216.701187,62.4251875 C215.149187,62.4251875 214.285187,63.0971875 214.285187,64.1371875 L214.285187,64.1691875 C214.285187,65.2091875 215.245187,65.8171875 216.365187,65.8171875 Z M223.341187,63.1451875 C223.357187,63.3531875 223.517187,63.5131875 223.725187,63.5131875 C223.917187,63.5131875 224.077187,63.3531875 224.093187,63.1451875 L224.461187,55.8811875 C224.477187,55.5931875 224.285187,55.3691875 223.997187,55.3691875 L223.437187,55.3691875 C223.165187,55.3691875 222.957187,55.5931875 222.973187,55.8811875 L223.341187,63.1451875 Z M222.957187,65.6091875 L222.957187,65.9291875 C222.957187,66.3611875 223.277187,66.6971875 223.725187,66.6971875 C224.157187,66.6971875 224.477187,66.3611875 224.477187,65.9291875 L224.477187,65.6091875 C224.477187,65.1771875 224.157187,64.8571875 223.725187,64.8571875 C223.277187,64.8571875 222.957187,65.1771875 222.957187,65.6091875 Z" id="Ótimo-vendedor,-Prod" fill="#9B9B9B" fill-rule="evenodd"></path>
                    </g>
                </g>
            </g>
        </g>
    </g>
</svg>