<?xml version="1.0" encoding="UTF-8"?>
<svg width="254px" height="93px" viewBox="0 0 254 93" version="1.1" xmlns="http://www.w3.org/2000/svg" xmlns:xlink="http://www.w3.org/1999/xlink">
    <!-- Generator: Sketch 42 (36781) - http://www.bohemiancoding.com/sketch -->
    <title>Group 6 + Group 9 Mask Copy</title>
    <desc>Created with Sketch.</desc>
    <defs>
        <rect id="path-1" x="0.83984375" y="0" width="291.945312" height="108.261719"></rect>
        <path d="M203.493123,129.451925 C204.150744,128.55944 205.584753,127.835938 206.677319,127.835938 L232.71512,127.835938 C241.000424,127.835938 247.722656,121.124488 247.722656,112.845495 L247.722656,14.9904424 C247.722656,6.7081163 241.003553,0 232.71512,0 L15.0075366,0 C6.72223234,0 0,6.71144969 0,14.9904424 L0,112.845495 C0,121.127821 6.719103,127.835938 15.0075366,127.835938 L179.092082,127.835938 C180.194195,127.835938 181.613491,128.549602 182.278361,129.451925 L189.916702,139.818245 C191.556035,142.043053 194.215027,142.043627 195.854782,139.818245 L203.493123,129.451925 Z" id="path-3"></path>
        <filter x="-50%" y="-50%" width="200%" height="200%" filterUnits="objectBoundingBox" id="filter-4">
            <feOffset dx="3" dy="3" in="SourceAlpha" result="shadowOffsetOuter1"></feOffset>
            <feGaussianBlur stdDeviation="1.5" in="shadowOffsetOuter1" result="shadowBlurOuter1"></feGaussianBlur>
            <feComposite in="shadowBlurOuter1" in2="SourceAlpha" operator="out" result="shadowBlurOuter1"></feComposite>
            <feColorMatrix values="0 0 0 0 0   0 0 0 0 0   0 0 0 0 0  0 0 0 0.0157382246 0" type="matrix" in="shadowBlurOuter1"></feColorMatrix>
        </filter>
        <mask id="mask-5" maskContentUnits="userSpaceOnUse" maskUnits="objectBoundingBox" x="0" y="0" width="247.722656" height="141.487066" fill="white">
            <use xlink:href="#path-3"></use>
        </mask>
    </defs>
    <g id="Page-1" stroke="none" stroke-width="1" fill="none" fill-rule="evenodd">
        <g id="Desktop-HD-Copy" transform="translate(-369.000000, -185.000000)">
            <g id="Group-6-+-Group-9-Mask-Copy" transform="translate(352.000000, 185.000000)">
                <mask id="mask-2" fill="white">
                    <use xlink:href="#path-1"></use>
                </mask>
                <g id="Mask" transform="translate(146.812500, 54.130859) scale(1, -1) translate(-146.812500, -54.130859) "></g>
                <g id="Group-6" mask="url(#mask-2)">
                    <g transform="translate(17.000000, -55.000000)">
                        <g id="Combined-Shape" fill="none">
                            <use fill="black" fill-opacity="1" filter="url(#filter-4)" xlink:href="#path-3"></use>
                            <use stroke="#E1E1E1" mask="url(#mask-5)" stroke-width="2" fill="#FFFFFF" fill-rule="evenodd" xlink:href="#path-3"></use>
                        </g>
                        <path d="M63.3251875,42.6171875 L70.3651875,42.6171875 C70.6851875,42.6171875 70.9411875,42.3611875 70.9411875,42.0411875 C70.9411875,41.7211875 70.6851875,41.4651875 70.3651875,41.4651875 L63.9651875,41.4651875 L63.9651875,37.5451875 L69.5651875,37.5451875 C69.8851875,37.5451875 70.1411875,37.2891875 70.1411875,36.9691875 C70.1411875,36.6651875 69.8851875,36.3931875 69.5651875,36.3931875 L63.9651875,36.3931875 L63.9651875,32.5691875 L70.2851875,32.5691875 C70.6051875,32.5691875 70.8611875,32.3131875 70.8611875,31.9931875 C70.8611875,31.6731875 70.6051875,31.4171875 70.2851875,31.4171875 L63.3251875,31.4171875 C62.9891875,31.4171875 62.7011875,31.7051875 62.7011875,32.0571875 L62.7011875,41.9771875 C62.7011875,42.3291875 62.9891875,42.6171875 63.3251875,42.6171875 Z M73.2131875,42.0731875 C73.2131875,42.4251875 73.4851875,42.6971875 73.8371875,42.6971875 C74.1891875,42.6971875 74.4451875,42.4251875 74.4451875,42.0731875 L74.4451875,37.8811875 C74.4451875,36.3291875 75.5011875,35.2891875 76.9251875,35.2891875 C78.3811875,35.2891875 79.2131875,36.2491875 79.2131875,37.7851875 L79.2131875,42.0731875 C79.2131875,42.4251875 79.4851875,42.6971875 79.8371875,42.6971875 C80.1731875,42.6971875 80.4451875,42.4251875 80.4451875,42.0731875 L80.4451875,37.4811875 C80.4451875,35.5131875 79.2771875,34.1691875 77.2771875,34.1691875 C75.8531875,34.1691875 74.9891875,34.8891875 74.4451875,35.7851875 L74.4451875,34.8891875 C74.4451875,34.5371875 74.1731875,34.2651875 73.8211875,34.2651875 C73.4851875,34.2651875 73.2131875,34.5531875 73.2131875,34.8891875 L73.2131875,42.0731875 Z M85.8371875,42.7611875 C86.3171875,42.7611875 86.7011875,42.6811875 87.0531875,42.5371875 C87.2611875,42.4571875 87.4051875,42.2811875 87.4051875,42.0571875 C87.4051875,41.7691875 87.1651875,41.5291875 86.8771875,41.5291875 C86.7811875,41.5291875 86.5571875,41.6411875 86.1251875,41.6411875 C85.2931875,41.6411875 84.7331875,41.2731875 84.7331875,40.2651875 L84.7331875,35.4331875 L86.8771875,35.4331875 C87.1811875,35.4331875 87.4371875,35.1931875 87.4371875,34.8891875 C87.4371875,34.6011875 87.1811875,34.3451875 86.8771875,34.3451875 L84.7331875,34.3451875 L84.7331875,32.3931875 C84.7331875,32.0571875 84.4451875,31.7691875 84.1091875,31.7691875 C83.7571875,31.7691875 83.5011875,32.0571875 83.5011875,32.3931875 L83.5011875,34.3451875 L82.8291875,34.3451875 C82.5411875,34.3451875 82.2851875,34.5851875 82.2851875,34.8891875 C82.2851875,35.1771875 82.5411875,35.4331875 82.8291875,35.4331875 L83.5011875,35.4331875 L83.5011875,40.4251875 C83.5011875,42.1051875 84.5091875,42.7611875 85.8371875,42.7611875 Z M89.5331875,42.0731875 C89.5331875,42.4251875 89.8051875,42.6971875 90.1571875,42.6971875 C90.5091875,42.6971875 90.7651875,42.4091875 90.7651875,42.0731875 L90.7651875,39.2571875 C90.7651875,36.8731875 92.0771875,35.6731875 93.6771875,35.4811875 C93.9971875,35.4331875 94.2211875,35.1931875 94.2211875,34.8571875 C94.2211875,34.5051875 93.9811875,34.2331875 93.6131875,34.2331875 C92.5731875,34.2331875 91.3731875,35.0651875 90.7651875,36.4411875 L90.7651875,34.8891875 C90.7651875,34.5371875 90.4931875,34.2651875 90.1411875,34.2651875 C89.8051875,34.2651875 89.5331875,34.5531875 89.5331875,34.8891875 L89.5331875,42.0731875 Z M96.7491875,38.0251875 L102.077187,38.0251875 C101.949187,36.5211875 101.085187,35.2091875 99.4371875,35.2091875 C97.9971875,35.2091875 96.9091875,36.4091875 96.7491875,38.0251875 Z M102.749187,41.5611875 C101.965187,42.3131875 101.037187,42.8091875 99.6291875,42.8091875 C97.3571875,42.8091875 95.5011875,41.0651875 95.5011875,38.5051875 L95.5011875,38.4731875 C95.5011875,36.0891875 97.1811875,34.1691875 99.4691875,34.1691875 C101.917187,34.1691875 103.309187,36.1691875 103.309187,38.3611875 C103.309187,38.6971875 103.037187,38.9371875 102.733187,38.9371875 L96.7491875,38.9371875 C96.9251875,40.7291875 98.1891875,41.7371875 99.6611875,41.7371875 C100.685187,41.7371875 101.437187,41.3371875 102.045187,40.7771875 C102.141187,40.6971875 102.253187,40.6331875 102.397187,40.6331875 C102.701187,40.6331875 102.941187,40.8731875 102.941187,41.1611875 C102.941187,41.3051875 102.877187,41.4491875 102.749187,41.5611875 Z M109.149187,45.2091875 C107.885187,45.2091875 106.733187,44.8731875 105.693187,44.2331875 C105.501187,44.1371875 105.373187,43.9451875 105.373187,43.7211875 C105.373187,43.4491875 105.645187,43.1771875 105.933187,43.1771875 C106.045187,43.1771875 106.125187,43.2091875 106.205187,43.2571875 C107.069187,43.8331875 108.061187,44.1531875 109.133187,44.1531875 C110.957187,44.1531875 112.141187,43.1451875 112.141187,41.2091875 L112.141187,40.2331875 C111.421187,41.1931875 110.413187,41.9771875 108.893187,41.9771875 C106.909187,41.9771875 105.005187,40.4891875 105.005187,38.1051875 L105.005187,38.0731875 C105.005187,35.6571875 106.925187,34.1691875 108.893187,34.1691875 C110.445187,34.1691875 111.453187,34.9371875 112.125187,35.8331875 L112.125187,34.8891875 C112.125187,34.5531875 112.381187,34.2651875 112.733187,34.2651875 C113.085187,34.2651875 113.357187,34.5531875 113.357187,34.8891875 L113.357187,41.1771875 C113.357187,42.4571875 112.973187,43.4331875 112.301187,44.1051875 C111.565187,44.8411875 110.461187,45.2091875 109.149187,45.2091875 Z M109.133187,40.8891875 C110.701187,40.8891875 112.173187,39.7531875 112.173187,38.0891875 L112.173187,38.0571875 C112.173187,36.3611875 110.701187,35.2571875 109.133187,35.2571875 C107.565187,35.2571875 106.269187,36.3451875 106.269187,38.0411875 L106.269187,38.0731875 C106.269187,39.7371875 107.597187,40.8891875 109.133187,40.8891875 Z M118.573187,42.7931875 C117.037187,42.7931875 115.485187,41.9131875 115.485187,40.2171875 L115.485187,40.1851875 C115.485187,38.4411875 116.925187,37.5131875 119.021187,37.5131875 C120.077187,37.5131875 120.829187,37.6571875 121.565187,37.8651875 L121.565187,37.5771875 C121.565187,36.0891875 120.653187,35.3211875 119.101187,35.3211875 C118.269187,35.3211875 117.565187,35.5131875 116.957187,35.7851875 C116.877187,35.8171875 116.797187,35.8331875 116.733187,35.8331875 C116.445187,35.8331875 116.189187,35.5931875 116.189187,35.3051875 C116.189187,35.0491875 116.365187,34.8571875 116.525187,34.7931875 C117.341187,34.4411875 118.173187,34.2331875 119.229187,34.2331875 C120.397187,34.2331875 121.293187,34.5371875 121.901187,35.1451875 C122.461187,35.7051875 122.749187,36.5051875 122.749187,37.5611875 L122.749187,42.0891875 C122.749187,42.4411875 122.493187,42.6971875 122.157187,42.6971875 C121.805187,42.6971875 121.565187,42.4411875 121.565187,42.1211875 L121.565187,41.3691875 C120.989187,42.1211875 120.029187,42.7931875 118.573187,42.7931875 Z M118.813187,41.8171875 C120.333187,41.8171875 121.581187,40.8891875 121.581187,39.5771875 L121.581187,38.7771875 C120.973187,38.6011875 120.157187,38.4251875 119.149187,38.4251875 C117.597187,38.4251875 116.733187,39.0971875 116.733187,40.1371875 L116.733187,40.1691875 C116.733187,41.2091875 117.693187,41.8171875 118.813187,41.8171875 Z M130.173187,42.0731875 C130.173187,42.4251875 130.445187,42.6971875 130.797187,42.6971875 C131.149187,42.6971875 131.405187,42.4091875 131.405187,42.0731875 L131.405187,39.2571875 C131.405187,36.8731875 132.717187,35.6731875 134.317187,35.4811875 C134.637187,35.4331875 134.861187,35.1931875 134.861187,34.8571875 C134.861187,34.5051875 134.621187,34.2331875 134.253187,34.2331875 C133.213187,34.2331875 132.013187,35.0651875 131.405187,36.4411875 L131.405187,34.8891875 C131.405187,34.5371875 131.133187,34.2651875 130.781187,34.2651875 C130.445187,34.2651875 130.173187,34.5531875 130.173187,34.8891875 L130.173187,42.0731875 Z M139.117187,42.7931875 C137.581187,42.7931875 136.029187,41.9131875 136.029187,40.2171875 L136.029187,40.1851875 C136.029187,38.4411875 137.469187,37.5131875 139.565187,37.5131875 C140.621187,37.5131875 141.373187,37.6571875 142.109187,37.8651875 L142.109187,37.5771875 C142.109187,36.0891875 141.197187,35.3211875 139.645187,35.3211875 C138.813187,35.3211875 138.109187,35.5131875 137.501187,35.7851875 C137.421187,35.8171875 137.341187,35.8331875 137.277187,35.8331875 C136.989187,35.8331875 136.733187,35.5931875 136.733187,35.3051875 C136.733187,35.0491875 136.909187,34.8571875 137.069187,34.7931875 C137.885187,34.4411875 138.717187,34.2331875 139.773187,34.2331875 C140.941187,34.2331875 141.837187,34.5371875 142.445187,35.1451875 C143.005187,35.7051875 143.293187,36.5051875 143.293187,37.5611875 L143.293187,42.0891875 C143.293187,42.4411875 143.037187,42.6971875 142.701187,42.6971875 C142.349187,42.6971875 142.109187,42.4411875 142.109187,42.1211875 L142.109187,41.3691875 C141.533187,42.1211875 140.573187,42.7931875 139.117187,42.7931875 Z M139.357187,41.8171875 C140.877187,41.8171875 142.125187,40.8891875 142.125187,39.5771875 L142.125187,38.7771875 C141.517187,38.6011875 140.701187,38.4251875 139.693187,38.4251875 C138.141187,38.4251875 137.277187,39.0971875 137.277187,40.1371875 L137.277187,40.1691875 C137.277187,41.2091875 138.237187,41.8171875 139.357187,41.8171875 Z M139.869187,33.1611875 C140.173187,33.1611875 140.365187,33.1131875 140.621187,32.8571875 L141.821187,31.7211875 C141.949187,31.5931875 142.045187,31.4811875 142.045187,31.3531875 C142.045187,31.1291875 141.565187,30.8731875 141.181187,30.8731875 C140.941187,30.8731875 140.765187,31.0011875 140.605187,31.2411875 L139.645187,32.6971875 C139.597187,32.7611875 139.565187,32.8571875 139.565187,32.9371875 C139.565187,33.0651875 139.693187,33.1611875 139.869187,33.1611875 Z M145.917187,44.6331875 L145.917187,34.8891875 C145.917187,34.5371875 146.189187,34.2651875 146.525187,34.2651875 C146.877187,34.2651875 147.149187,34.5371875 147.149187,34.8891875 L147.149187,36.0091875 C147.821187,35.0171875 148.797187,34.1691875 150.317187,34.1691875 C152.301187,34.1691875 154.269187,35.7371875 154.269187,38.4571875 L154.269187,38.4891875 C154.269187,41.1931875 152.317187,42.7931875 150.317187,42.7931875 C148.781187,42.7931875 147.789187,41.9611875 147.149187,41.0331875 L147.149187,44.6331875 C147.149187,44.9851875 146.893187,45.2571875 146.541187,45.2571875 C146.189187,45.2571875 145.917187,44.9851875 145.917187,44.6331875 Z M150.093187,41.6891875 C151.693187,41.6891875 153.005187,40.5051875 153.005187,38.5051875 L153.005187,38.4731875 C153.005187,36.5211875 151.661187,35.2731875 150.093187,35.2731875 C148.557187,35.2731875 147.101187,36.5691875 147.101187,38.4571875 L147.101187,38.4891875 C147.101187,40.4091875 148.557187,41.6891875 150.093187,41.6891875 Z M156.541187,31.9611875 C156.541187,32.3451875 156.861187,32.6171875 157.261187,32.6171875 C157.677187,32.6171875 157.997187,32.3451875 157.997187,31.9611875 L157.997187,31.7531875 C157.997187,31.3531875 157.677187,31.0971875 157.261187,31.0971875 C156.861187,31.0971875 156.541187,31.3531875 156.541187,31.7531875 L156.541187,31.9611875 Z M156.653187,42.0731875 C156.653187,42.4251875 156.925187,42.6971875 157.277187,42.6971875 C157.629187,42.6971875 157.885187,42.4251875 157.885187,42.0731875 L157.885187,34.8891875 C157.885187,34.5371875 157.613187,34.2651875 157.261187,34.2651875 C156.925187,34.2651875 156.653187,34.5531875 156.653187,34.8891875 L156.653187,42.0731875 Z M168.621187,31.4811875 L168.621187,42.0731875 C168.621187,42.4251875 168.349187,42.6971875 168.013187,42.6971875 C167.661187,42.6971875 167.389187,42.4251875 167.389187,42.0731875 L167.389187,40.9531875 C166.717187,41.9451875 165.741187,42.7931875 164.221187,42.7931875 C162.237187,42.7931875 160.269187,41.2251875 160.269187,38.5051875 L160.269187,38.4731875 C160.269187,35.7691875 162.237187,34.1691875 164.221187,34.1691875 C165.757187,34.1691875 166.749187,35.0011875 167.389187,35.9291875 L167.389187,31.4811875 C167.389187,31.1291875 167.645187,30.8571875 167.997187,30.8571875 C168.349187,30.8571875 168.621187,31.1291875 168.621187,31.4811875 Z M164.445187,35.2731875 C162.845187,35.2731875 161.533187,36.4571875 161.533187,38.4571875 L161.533187,38.4891875 C161.533187,40.4411875 162.893187,41.6891875 164.445187,41.6891875 C165.981187,41.6891875 167.437187,40.3931875 167.437187,38.4891875 L167.437187,38.4571875 C167.437187,36.5531875 165.981187,35.2731875 164.445187,35.2731875 Z M173.837187,42.7931875 C172.301187,42.7931875 170.749187,41.9131875 170.749187,40.2171875 L170.749187,40.1851875 C170.749187,38.4411875 172.189187,37.5131875 174.285187,37.5131875 C175.341187,37.5131875 176.093187,37.6571875 176.829187,37.8651875 L176.829187,37.5771875 C176.829187,36.0891875 175.917187,35.3211875 174.365187,35.3211875 C173.533187,35.3211875 172.829187,35.5131875 172.221187,35.7851875 C172.141187,35.8171875 172.061187,35.8331875 171.997187,35.8331875 C171.709187,35.8331875 171.453187,35.5931875 171.453187,35.3051875 C171.453187,35.0491875 171.629187,34.8571875 171.789187,34.7931875 C172.605187,34.4411875 173.437187,34.2331875 174.493187,34.2331875 C175.661187,34.2331875 176.557187,34.5371875 177.165187,35.1451875 C177.725187,35.7051875 178.013187,36.5051875 178.013187,37.5611875 L178.013187,42.0891875 C178.013187,42.4411875 177.757187,42.6971875 177.421187,42.6971875 C177.069187,42.6971875 176.829187,42.4411875 176.829187,42.1211875 L176.829187,41.3691875 C176.253187,42.1211875 175.293187,42.7931875 173.837187,42.7931875 Z M174.077187,41.8171875 C175.597187,41.8171875 176.845187,40.8891875 176.845187,39.5771875 L176.845187,38.7771875 C176.237187,38.6011875 175.421187,38.4251875 174.413187,38.4251875 C172.861187,38.4251875 171.997187,39.0971875 171.997187,40.1371875 L171.997187,40.1691875 C171.997187,41.2091875 172.957187,41.8171875 174.077187,41.8171875 Z M186.173187,38.0251875 L191.501187,38.0251875 C191.373187,36.5211875 190.509187,35.2091875 188.861187,35.2091875 C187.421187,35.2091875 186.333187,36.4091875 186.173187,38.0251875 Z M192.173187,41.5611875 C191.389187,42.3131875 190.461187,42.8091875 189.053187,42.8091875 C186.781187,42.8091875 184.925187,41.0651875 184.925187,38.5051875 L184.925187,38.4731875 C184.925187,36.0891875 186.605187,34.1691875 188.893187,34.1691875 C191.341187,34.1691875 192.733187,36.1691875 192.733187,38.3611875 C192.733187,38.6971875 192.461187,38.9371875 192.157187,38.9371875 L186.173187,38.9371875 C186.349187,40.7291875 187.613187,41.7371875 189.085187,41.7371875 C190.109187,41.7371875 190.861187,41.3371875 191.469187,40.7771875 C191.565187,40.6971875 191.677187,40.6331875 191.821187,40.6331875 C192.125187,40.6331875 192.365187,40.8731875 192.365187,41.1611875 C192.365187,41.3051875 192.301187,41.4491875 192.173187,41.5611875 Z M62.4931875,69.6331875 L62.4931875,59.8891875 C62.4931875,59.5371875 62.7651875,59.2651875 63.1011875,59.2651875 C63.4531875,59.2651875 63.7251875,59.5371875 63.7251875,59.8891875 L63.7251875,61.0091875 C64.3971875,60.0171875 65.3731875,59.1691875 66.8931875,59.1691875 C68.8771875,59.1691875 70.8451875,60.7371875 70.8451875,63.4571875 L70.8451875,63.4891875 C70.8451875,66.1931875 68.8931875,67.7931875 66.8931875,67.7931875 C65.3571875,67.7931875 64.3651875,66.9611875 63.7251875,66.0331875 L63.7251875,69.6331875 C63.7251875,69.9851875 63.4691875,70.2571875 63.1171875,70.2571875 C62.7651875,70.2571875 62.4931875,69.9851875 62.4931875,69.6331875 Z M66.6691875,66.6891875 C68.2691875,66.6891875 69.5811875,65.5051875 69.5811875,63.5051875 L69.5811875,63.4731875 C69.5811875,61.5211875 68.2371875,60.2731875 66.6691875,60.2731875 C65.1331875,60.2731875 63.6771875,61.5691875 63.6771875,63.4571875 L63.6771875,63.4891875 C63.6771875,65.4091875 65.1331875,66.6891875 66.6691875,66.6891875 Z M73.1171875,67.0731875 C73.1171875,67.4251875 73.3891875,67.6971875 73.7411875,67.6971875 C74.0931875,67.6971875 74.3491875,67.4091875 74.3491875,67.0731875 L74.3491875,64.2571875 C74.3491875,61.8731875 75.6611875,60.6731875 77.2611875,60.4811875 C77.5811875,60.4331875 77.8051875,60.1931875 77.8051875,59.8571875 C77.8051875,59.5051875 77.5651875,59.2331875 77.1971875,59.2331875 C76.1571875,59.2331875 74.9571875,60.0651875 74.3491875,61.4411875 L74.3491875,59.8891875 C74.3491875,59.5371875 74.0771875,59.2651875 73.7251875,59.2651875 C73.3891875,59.2651875 73.1171875,59.5531875 73.1171875,59.8891875 L73.1171875,67.0731875 Z M83.3731875,67.8091875 C80.8931875,67.8091875 79.0851875,65.8571875 79.0851875,63.5211875 L79.0851875,63.4891875 C79.0851875,61.1531875 80.9091875,59.1691875 83.4051875,59.1691875 C85.8851875,59.1691875 87.7091875,61.1211875 87.7091875,63.4571875 L87.7091875,63.4891875 C87.7091875,65.8251875 85.8691875,67.8091875 83.3731875,67.8091875 Z M83.4051875,66.7051875 C85.1971875,66.7051875 86.4451875,65.2651875 86.4451875,63.5211875 L86.4451875,63.4891875 C86.4451875,61.7131875 85.1171875,60.2571875 83.3731875,60.2571875 C81.5811875,60.2571875 80.3491875,61.7131875 80.3491875,63.4571875 L80.3491875,63.4891875 C80.3491875,65.2651875 81.6611875,66.7051875 83.4051875,66.7051875 Z M97.8051875,56.4811875 L97.8051875,67.0731875 C97.8051875,67.4251875 97.5331875,67.6971875 97.1971875,67.6971875 C96.8451875,67.6971875 96.5731875,67.4251875 96.5731875,67.0731875 L96.5731875,65.9531875 C95.9011875,66.9451875 94.9251875,67.7931875 93.4051875,67.7931875 C91.4211875,67.7931875 89.4531875,66.2251875 89.4531875,63.5051875 L89.4531875,63.4731875 C89.4531875,60.7691875 91.4211875,59.1691875 93.4051875,59.1691875 C94.9411875,59.1691875 95.9331875,60.0011875 96.5731875,60.9291875 L96.5731875,56.4811875 C96.5731875,56.1291875 96.8291875,55.8571875 97.1811875,55.8571875 C97.5331875,55.8571875 97.8051875,56.1291875 97.8051875,56.4811875 Z M93.6291875,60.2731875 C92.0291875,60.2731875 90.7171875,61.4571875 90.7171875,63.4571875 L90.7171875,63.4891875 C90.7171875,65.4411875 92.0771875,66.6891875 93.6291875,66.6891875 C95.1651875,66.6891875 96.6211875,65.3931875 96.6211875,63.4891875 L96.6211875,63.4571875 C96.6211875,61.5531875 95.1651875,60.2731875 93.6291875,60.2731875 Z M107.645187,59.8891875 C107.645187,59.5371875 107.373187,59.2651875 107.037187,59.2651875 C106.685187,59.2651875 106.429187,59.5371875 106.429187,59.8891875 L106.429187,64.0811875 C106.429187,65.6331875 105.357187,66.6731875 103.949187,66.6731875 C102.493187,66.6731875 101.661187,65.7131875 101.661187,64.1771875 L101.661187,59.8891875 C101.661187,59.5371875 101.373187,59.2651875 101.037187,59.2651875 C100.685187,59.2651875 100.429187,59.5371875 100.429187,59.8891875 L100.429187,64.4811875 C100.429187,66.4491875 101.597187,67.7931875 103.597187,67.7931875 C105.021187,67.7931875 105.869187,67.0731875 106.429187,66.1771875 L106.429187,67.0731875 C106.429187,67.4251875 106.701187,67.6971875 107.037187,67.6971875 C107.389187,67.6971875 107.645187,67.4091875 107.645187,67.0731875 L107.645187,59.8891875 Z M113.181187,67.7611875 C113.661187,67.7611875 114.045187,67.6811875 114.397187,67.5371875 C114.605187,67.4571875 114.749187,67.2811875 114.749187,67.0571875 C114.749187,66.7691875 114.509187,66.5291875 114.221187,66.5291875 C114.125187,66.5291875 113.901187,66.6411875 113.469187,66.6411875 C112.637187,66.6411875 112.077187,66.2731875 112.077187,65.2651875 L112.077187,60.4331875 L114.221187,60.4331875 C114.525187,60.4331875 114.781187,60.1931875 114.781187,59.8891875 C114.781187,59.6011875 114.525187,59.3451875 114.221187,59.3451875 L112.077187,59.3451875 L112.077187,57.3931875 C112.077187,57.0571875 111.789187,56.7691875 111.453187,56.7691875 C111.101187,56.7691875 110.845187,57.0571875 110.845187,57.3931875 L110.845187,59.3451875 L110.173187,59.3451875 C109.885187,59.3451875 109.629187,59.5851875 109.629187,59.8891875 C109.629187,60.1771875 109.885187,60.4331875 110.173187,60.4331875 L110.845187,60.4331875 L110.845187,65.4251875 C110.845187,67.1051875 111.853187,67.7611875 113.181187,67.7611875 Z M120.653187,67.8091875 C118.173187,67.8091875 116.365187,65.8571875 116.365187,63.5211875 L116.365187,63.4891875 C116.365187,61.1531875 118.189187,59.1691875 120.685187,59.1691875 C123.165187,59.1691875 124.989187,61.1211875 124.989187,63.4571875 L124.989187,63.4891875 C124.989187,65.8251875 123.149187,67.8091875 120.653187,67.8091875 Z M120.685187,66.7051875 C122.477187,66.7051875 123.725187,65.2651875 123.725187,63.5211875 L123.725187,63.4891875 C123.725187,61.7131875 122.397187,60.2571875 120.653187,60.2571875 C118.861187,60.2571875 117.629187,61.7131875 117.629187,63.4571875 L117.629187,63.4891875 C117.629187,65.2651875 118.941187,66.7051875 120.685187,66.7051875 Z M132.749187,63.0251875 L138.077187,63.0251875 C137.949187,61.5211875 137.085187,60.2091875 135.437187,60.2091875 C133.997187,60.2091875 132.909187,61.4091875 132.749187,63.0251875 Z M138.749187,66.5611875 C137.965187,67.3131875 137.037187,67.8091875 135.629187,67.8091875 C133.357187,67.8091875 131.501187,66.0651875 131.501187,63.5051875 L131.501187,63.4731875 C131.501187,61.0891875 133.181187,59.1691875 135.469187,59.1691875 C137.917187,59.1691875 139.309187,61.1691875 139.309187,63.3611875 C139.309187,63.6971875 139.037187,63.9371875 138.733187,63.9371875 L132.749187,63.9371875 C132.925187,65.7291875 134.189187,66.7371875 135.661187,66.7371875 C136.685187,66.7371875 137.437187,66.3371875 138.045187,65.7771875 C138.141187,65.6971875 138.253187,65.6331875 138.397187,65.6331875 C138.701187,65.6331875 138.941187,65.8731875 138.941187,66.1611875 C138.941187,66.3051875 138.877187,66.4491875 138.749187,66.5611875 Z M141.069187,67.1371875 C141.069187,67.4411875 141.309187,67.6971875 141.629187,67.6971875 C141.853187,67.6971875 142.013187,67.5691875 142.157187,67.3931875 L144.653187,64.2251875 L147.165187,67.4091875 C147.309187,67.5851875 147.469187,67.6971875 147.709187,67.6971875 C148.029187,67.6971875 148.285187,67.4571875 148.285187,67.1211875 C148.285187,66.9611875 148.221187,66.8171875 148.109187,66.6731875 L145.421187,63.3771875 L147.997187,60.2251875 C148.093187,60.1131875 148.157187,59.9851875 148.157187,59.8251875 C148.157187,59.5051875 147.917187,59.2651875 147.597187,59.2651875 C147.373187,59.2651875 147.213187,59.3931875 147.069187,59.5691875 L144.701187,62.5771875 L142.317187,59.5531875 C142.173187,59.3771875 142.013187,59.2651875 141.773187,59.2651875 C141.453187,59.2651875 141.197187,59.4891875 141.197187,59.8411875 C141.197187,60.0011875 141.261187,60.1451875 141.389187,60.2891875 L143.933187,63.4091875 L141.229187,66.7371875 C141.117187,66.8491875 141.069187,66.9771875 141.069187,67.1371875 Z M154.349187,67.8091875 C155.741187,67.8091875 156.685187,67.2651875 157.469187,66.4811875 C157.565187,66.3851875 157.629187,66.2411875 157.629187,66.0971875 C157.629187,65.8091875 157.373187,65.5371875 157.069187,65.5371875 C156.909187,65.5371875 156.797187,65.6171875 156.717187,65.6971875 C156.109187,66.2731875 155.357187,66.7051875 154.413187,66.7051875 C152.685187,66.7051875 151.373187,65.2811875 151.373187,63.4891875 L151.373187,63.4571875 C151.373187,61.6811875 152.653187,60.2571875 154.333187,60.2571875 C155.325187,60.2571875 155.997187,60.7051875 156.589187,61.2491875 C156.685187,61.3291875 156.829187,61.3931875 156.989187,61.3931875 C157.309187,61.3931875 157.581187,61.1371875 157.581187,60.8011875 C157.581187,60.6091875 157.485187,60.4491875 157.389187,60.3691875 C156.653187,59.6971875 155.725187,59.1691875 154.349187,59.1691875 C151.933187,59.1691875 150.109187,61.1531875 150.109187,63.4891875 L150.109187,63.5211875 C150.109187,65.8411875 151.933187,67.8091875 154.349187,67.8091875 Z M160.493187,63.0251875 L165.821187,63.0251875 C165.693187,61.5211875 164.829187,60.2091875 163.181187,60.2091875 C161.741187,60.2091875 160.653187,61.4091875 160.493187,63.0251875 Z M166.493187,66.5611875 C165.709187,67.3131875 164.781187,67.8091875 163.373187,67.8091875 C161.101187,67.8091875 159.245187,66.0651875 159.245187,63.5051875 L159.245187,63.4731875 C159.245187,61.0891875 160.925187,59.1691875 163.213187,59.1691875 C165.661187,59.1691875 167.053187,61.1691875 167.053187,63.3611875 C167.053187,63.6971875 166.781187,63.9371875 166.477187,63.9371875 L160.493187,63.9371875 C160.669187,65.7291875 161.933187,66.7371875 163.405187,66.7371875 C164.429187,66.7371875 165.181187,66.3371875 165.789187,65.7771875 C165.885187,65.6971875 165.997187,65.6331875 166.141187,65.6331875 C166.445187,65.6331875 166.685187,65.8731875 166.685187,66.1611875 C166.685187,66.3051875 166.621187,66.4491875 166.493187,66.5611875 Z M169.341187,67.0731875 C169.341187,67.4251875 169.613187,67.6971875 169.965187,67.6971875 C170.317187,67.6971875 170.573187,67.4251875 170.573187,67.0731875 L170.573187,56.4811875 C170.573187,56.1451875 170.301187,55.8571875 169.949187,55.8571875 C169.613187,55.8571875 169.341187,56.1451875 169.341187,56.4811875 L169.341187,67.0731875 Z M174.173187,63.0251875 L179.501187,63.0251875 C179.373187,61.5211875 178.509187,60.2091875 176.861187,60.2091875 C175.421187,60.2091875 174.333187,61.4091875 174.173187,63.0251875 Z M180.173187,66.5611875 C179.389187,67.3131875 178.461187,67.8091875 177.053187,67.8091875 C174.781187,67.8091875 172.925187,66.0651875 172.925187,63.5051875 L172.925187,63.4731875 C172.925187,61.0891875 174.605187,59.1691875 176.893187,59.1691875 C179.341187,59.1691875 180.733187,61.1691875 180.733187,63.3611875 C180.733187,63.6971875 180.461187,63.9371875 180.157187,63.9371875 L174.173187,63.9371875 C174.349187,65.7291875 175.613187,66.7371875 177.085187,66.7371875 C178.109187,66.7371875 178.861187,66.3371875 179.469187,65.7771875 C179.565187,65.6971875 179.677187,65.6331875 179.821187,65.6331875 C180.125187,65.6331875 180.365187,65.8731875 180.365187,66.1611875 C180.365187,66.3051875 180.301187,66.4491875 180.173187,66.5611875 Z M182.909187,67.0731875 C182.909187,67.4251875 183.181187,67.6971875 183.533187,67.6971875 C183.885187,67.6971875 184.141187,67.4251875 184.141187,67.0731875 L184.141187,62.8811875 C184.141187,61.3291875 185.197187,60.2891875 186.621187,60.2891875 C188.077187,60.2891875 188.909187,61.2491875 188.909187,62.7851875 L188.909187,67.0731875 C188.909187,67.4251875 189.181187,67.6971875 189.533187,67.6971875 C189.869187,67.6971875 190.141187,67.4251875 190.141187,67.0731875 L190.141187,62.4811875 C190.141187,60.5131875 188.973187,59.1691875 186.973187,59.1691875 C185.549187,59.1691875 184.685187,59.8891875 184.141187,60.7851875 L184.141187,59.8891875 C184.141187,59.5371875 183.869187,59.2651875 183.517187,59.2651875 C183.181187,59.2651875 182.909187,59.5531875 182.909187,59.8891875 L182.909187,67.0731875 Z M195.533187,67.7611875 C196.013187,67.7611875 196.397187,67.6811875 196.749187,67.5371875 C196.957187,67.4571875 197.101187,67.2811875 197.101187,67.0571875 C197.101187,66.7691875 196.861187,66.5291875 196.573187,66.5291875 C196.477187,66.5291875 196.253187,66.6411875 195.821187,66.6411875 C194.989187,66.6411875 194.429187,66.2731875 194.429187,65.2651875 L194.429187,60.4331875 L196.573187,60.4331875 C196.877187,60.4331875 197.133187,60.1931875 197.133187,59.8891875 C197.133187,59.6011875 196.877187,59.3451875 196.573187,59.3451875 L194.429187,59.3451875 L194.429187,57.3931875 C194.429187,57.0571875 194.141187,56.7691875 193.805187,56.7691875 C193.453187,56.7691875 193.197187,57.0571875 193.197187,57.3931875 L193.197187,59.3451875 L192.525187,59.3451875 C192.237187,59.3451875 191.981187,59.5851875 191.981187,59.8891875 C191.981187,60.1771875 192.237187,60.4331875 192.525187,60.4331875 L193.197187,60.4331875 L193.197187,65.4251875 C193.197187,67.1051875 194.205187,67.7611875 195.533187,67.7611875 Z M199.965187,63.0251875 L205.293187,63.0251875 C205.165187,61.5211875 204.301187,60.2091875 202.653187,60.2091875 C201.213187,60.2091875 200.125187,61.4091875 199.965187,63.0251875 Z M205.965187,66.5611875 C205.181187,67.3131875 204.253187,67.8091875 202.845187,67.8091875 C200.573187,67.8091875 198.717187,66.0651875 198.717187,63.5051875 L198.717187,63.4731875 C198.717187,61.0891875 200.397187,59.1691875 202.685187,59.1691875 C205.133187,59.1691875 206.525187,61.1691875 206.525187,63.3611875 C206.525187,63.6971875 206.253187,63.9371875 205.949187,63.9371875 L199.965187,63.9371875 C200.141187,65.7291875 201.405187,66.7371875 202.877187,66.7371875 C203.901187,66.7371875 204.653187,66.3371875 205.261187,65.7771875 C205.357187,65.6971875 205.469187,65.6331875 205.613187,65.6331875 C205.917187,65.6331875 206.157187,65.8731875 206.157187,66.1611875 C206.157187,66.3051875 206.093187,66.4491875 205.965187,66.5611875 Z M208.525187,66.6091875 L208.525187,66.9291875 C208.525187,67.3611875 208.845187,67.6971875 209.293187,67.6971875 C209.725187,67.6971875 210.045187,67.3611875 210.045187,66.9291875 L210.045187,66.6091875 C210.045187,66.1771875 209.725187,65.8571875 209.293187,65.8571875 C208.845187,65.8571875 208.525187,66.1771875 208.525187,66.6091875 Z M62.7011875,92.0571875 L62.7011875,82.0571875 C62.7011875,81.7051875 62.9891875,81.4171875 63.3251875,81.4171875 L66.8931875,81.4171875 C69.4211875,81.4171875 71.0851875,82.7611875 71.0851875,84.9691875 L71.0851875,85.0011875 C71.0851875,87.4171875 69.0691875,88.6651875 66.6851875,88.6651875 L63.9651875,88.6651875 L63.9651875,92.0571875 C63.9651875,92.4091875 63.6771875,92.6971875 63.3251875,92.6971875 C62.9891875,92.6971875 62.7011875,92.4091875 62.7011875,92.0571875 Z M63.9651875,87.5131875 L66.7331875,87.5131875 C68.5891875,87.5131875 69.8051875,86.5211875 69.8051875,85.0491875 L69.8051875,85.0171875 C69.8051875,83.4171875 68.6051875,82.5851875 66.7971875,82.5851875 L63.9651875,82.5851875 L63.9651875,87.5131875 Z M73.9171875,88.0251875 L79.2451875,88.0251875 C79.1171875,86.5211875 78.2531875,85.2091875 76.6051875,85.2091875 C75.1651875,85.2091875 74.0771875,86.4091875 73.9171875,88.0251875 Z M79.9171875,91.5611875 C79.1331875,92.3131875 78.2051875,92.8091875 76.7971875,92.8091875 C74.5251875,92.8091875 72.6691875,91.0651875 72.6691875,88.5051875 L72.6691875,88.4731875 C72.6691875,86.0891875 74.3491875,84.1691875 76.6371875,84.1691875 C79.0851875,84.1691875 80.4771875,86.1691875 80.4771875,88.3611875 C80.4771875,88.6971875 80.2051875,88.9371875 79.9011875,88.9371875 L73.9171875,88.9371875 C74.0931875,90.7291875 75.3571875,91.7371875 76.8291875,91.7371875 C77.8531875,91.7371875 78.6051875,91.3371875 79.2131875,90.7771875 C79.3091875,90.6971875 79.4211875,90.6331875 79.5651875,90.6331875 C79.8691875,90.6331875 80.1091875,90.8731875 80.1091875,91.1611875 C80.1091875,91.3051875 80.0451875,91.4491875 79.9171875,91.5611875 Z M82.6531875,92.0731875 C82.6531875,92.4251875 82.9251875,92.6971875 83.2771875,92.6971875 C83.6291875,92.6971875 83.8851875,92.4091875 83.8851875,92.0731875 L83.8851875,89.2571875 C83.8851875,86.8731875 85.1971875,85.6731875 86.7971875,85.4811875 C87.1171875,85.4331875 87.3411875,85.1931875 87.3411875,84.8571875 C87.3411875,84.5051875 87.1011875,84.2331875 86.7331875,84.2331875 C85.6931875,84.2331875 84.4931875,85.0651875 83.8851875,86.4411875 L83.8851875,84.8891875 C83.8851875,84.5371875 83.6131875,84.2651875 83.2611875,84.2651875 C82.9251875,84.2651875 82.6531875,84.5531875 82.6531875,84.8891875 L82.6531875,92.0731875 Z M89.5971875,92.0731875 C89.5971875,92.4091875 89.8691875,92.6971875 90.2211875,92.6971875 C90.5731875,92.6971875 90.8291875,92.4091875 90.8291875,92.0731875 L90.8291875,85.4331875 L92.9571875,85.4331875 C93.2611875,85.4331875 93.5011875,85.1931875 93.5011875,84.9051875 C93.5011875,84.6011875 93.2611875,84.3771875 92.9571875,84.3771875 L90.8131875,84.3771875 L90.8131875,83.7051875 C90.8131875,82.5211875 91.2931875,81.9451875 92.2531875,81.9451875 C92.4931875,81.9451875 92.7171875,81.9931875 92.9251875,82.0251875 C93.2451875,82.0571875 93.5171875,81.8171875 93.5171875,81.4971875 C93.5171875,81.2251875 93.3091875,81.0171875 93.0691875,80.9691875 C92.7971875,80.9051875 92.4931875,80.8731875 92.0931875,80.8731875 C91.3411875,80.8731875 90.7331875,81.0971875 90.3171875,81.5131875 C89.8531875,81.9771875 89.5971875,82.6971875 89.5971875,83.6411875 L89.5971875,84.3611875 L88.9251875,84.3611875 C88.6371875,84.3611875 88.3971875,84.6011875 88.3971875,84.8891875 C88.3971875,85.1931875 88.6211875,85.4331875 88.9251875,85.4331875 L89.5971875,85.4331875 L89.5971875,92.0731875 Z M95.7411875,88.0251875 L101.069187,88.0251875 C100.941187,86.5211875 100.077187,85.2091875 98.4291875,85.2091875 C96.9891875,85.2091875 95.9011875,86.4091875 95.7411875,88.0251875 Z M101.741187,91.5611875 C100.957187,92.3131875 100.029187,92.8091875 98.6211875,92.8091875 C96.3491875,92.8091875 94.4931875,91.0651875 94.4931875,88.5051875 L94.4931875,88.4731875 C94.4931875,86.0891875 96.1731875,84.1691875 98.4611875,84.1691875 C100.909187,84.1691875 102.301187,86.1691875 102.301187,88.3611875 C102.301187,88.6971875 102.029187,88.9371875 101.725187,88.9371875 L95.7411875,88.9371875 C95.9171875,90.7291875 97.1811875,91.7371875 98.6531875,91.7371875 C99.6771875,91.7371875 100.429187,91.3371875 101.037187,90.7771875 C101.133187,90.6971875 101.245187,90.6331875 101.389187,90.6331875 C101.693187,90.6331875 101.933187,90.8731875 101.933187,91.1611875 C101.933187,91.3051875 101.869187,91.4491875 101.741187,91.5611875 Z M104.477187,81.9611875 C104.477187,82.3451875 104.797187,82.6171875 105.197187,82.6171875 C105.613187,82.6171875 105.933187,82.3451875 105.933187,81.9611875 L105.933187,81.7531875 C105.933187,81.3531875 105.613187,81.0971875 105.197187,81.0971875 C104.797187,81.0971875 104.477187,81.3531875 104.477187,81.7531875 L104.477187,81.9611875 Z M104.589187,92.0731875 C104.589187,92.4251875 104.861187,92.6971875 105.213187,92.6971875 C105.565187,92.6971875 105.821187,92.4251875 105.821187,92.0731875 L105.821187,84.8891875 C105.821187,84.5371875 105.549187,84.2651875 105.197187,84.2651875 C104.861187,84.2651875 104.589187,84.5531875 104.589187,84.8891875 L104.589187,92.0731875 Z M111.453187,92.7611875 C111.933187,92.7611875 112.317187,92.6811875 112.669187,92.5371875 C112.877187,92.4571875 113.021187,92.2811875 113.021187,92.0571875 C113.021187,91.7691875 112.781187,91.5291875 112.493187,91.5291875 C112.397187,91.5291875 112.173187,91.6411875 111.741187,91.6411875 C110.909187,91.6411875 110.349187,91.2731875 110.349187,90.2651875 L110.349187,85.4331875 L112.493187,85.4331875 C112.797187,85.4331875 113.053187,85.1931875 113.053187,84.8891875 C113.053187,84.6011875 112.797187,84.3451875 112.493187,84.3451875 L110.349187,84.3451875 L110.349187,82.3931875 C110.349187,82.0571875 110.061187,81.7691875 109.725187,81.7691875 C109.373187,81.7691875 109.117187,82.0571875 109.117187,82.3931875 L109.117187,84.3451875 L108.445187,84.3451875 C108.157187,84.3451875 107.901187,84.5851875 107.901187,84.8891875 C107.901187,85.1771875 108.157187,85.4331875 108.445187,85.4331875 L109.117187,85.4331875 L109.117187,90.4251875 C109.117187,92.1051875 110.125187,92.7611875 111.453187,92.7611875 Z M118.925187,92.8091875 C116.445187,92.8091875 114.637187,90.8571875 114.637187,88.5211875 L114.637187,88.4891875 C114.637187,86.1531875 116.461187,84.1691875 118.957187,84.1691875 C121.437187,84.1691875 123.261187,86.1211875 123.261187,88.4571875 L123.261187,88.4891875 C123.261187,90.8251875 121.421187,92.8091875 118.925187,92.8091875 Z M118.957187,91.7051875 C120.749187,91.7051875 121.997187,90.2651875 121.997187,88.5211875 L121.997187,88.4891875 C121.997187,86.7131875 120.669187,85.2571875 118.925187,85.2571875 C117.133187,85.2571875 115.901187,86.7131875 115.901187,88.4571875 L115.901187,88.4891875 C115.901187,90.2651875 117.213187,91.7051875 118.957187,91.7051875 Z M125.901187,89.1451875 C125.917187,89.3531875 126.077187,89.5131875 126.285187,89.5131875 C126.477187,89.5131875 126.637187,89.3531875 126.653187,89.1451875 L127.021187,81.8811875 C127.037187,81.5931875 126.845187,81.3691875 126.557187,81.3691875 L125.997187,81.3691875 C125.725187,81.3691875 125.517187,81.5931875 125.533187,81.8811875 L125.901187,89.1451875 Z M125.517187,91.6091875 L125.517187,91.9291875 C125.517187,92.3611875 125.837187,92.6971875 126.285187,92.6971875 C126.717187,92.6971875 127.037187,92.3611875 127.037187,91.9291875 L127.037187,91.6091875 C127.037187,91.1771875 126.717187,90.8571875 126.285187,90.8571875 C125.837187,90.8571875 125.517187,91.1771875 125.517187,91.6091875 Z" id="Entrega-rápida-e-pro" fill="#9B9B9B" fill-rule="evenodd"></path>
                    </g>
                </g>
            </g>
        </g>
    </g>
</svg>