<?xml version="1.0" encoding="UTF-8"?>
<svg width="191px" height="98px" viewBox="0 0 191 98" version="1.1" xmlns="http://www.w3.org/2000/svg" xmlns:xlink="http://www.w3.org/1999/xlink">
    <!-- Generator: Sketch 42 (36781) - http://www.bohemiancoding.com/sketch -->
    <title>Group 7</title>
    <desc>Created with Sketch.</desc>
    <defs>
        <path d="M140.493123,79.4519248 C141.150744,78.5594397 142.584753,77.8359375 143.677319,77.8359375 L169.71512,77.8359375 C178.000424,77.8359375 184.722656,71.1244878 184.722656,62.8454951 L184.722656,14.9904424 C184.722656,6.7081163 178.003553,1.42108547e-14 169.71512,1.42108547e-14 L15.0075366,0 C6.72223234,0 2.27373675e-13,6.71144969 2.27373675e-13,14.9904424 L2.27373675e-13,62.8454951 C2.27373675e-13,71.1278212 6.719103,77.8359375 15.0075366,77.8359375 L116.086267,77.8359375 C117.191591,77.8359375 118.613491,78.5496016 119.278361,79.4519248 L126.916702,89.8182449 C128.556035,92.043053 131.215027,92.0436274 132.854782,89.8182449 L140.493123,79.4519248 Z" id="path-1"></path>
        <filter x="-50%" y="-50%" width="200%" height="200%" filterUnits="objectBoundingBox" id="filter-2">
            <feOffset dx="3" dy="3" in="SourceAlpha" result="shadowOffsetOuter1"></feOffset>
            <feGaussianBlur stdDeviation="1.5" in="shadowOffsetOuter1" result="shadowBlurOuter1"></feGaussianBlur>
            <feComposite in="shadowBlurOuter1" in2="SourceAlpha" operator="out" result="shadowBlurOuter1"></feComposite>
            <feColorMatrix values="0 0 0 0 0   0 0 0 0 0   0 0 0 0 0  0 0 0 0.0157382246 0" type="matrix" in="shadowBlurOuter1"></feColorMatrix>
        </filter>
        <mask id="mask-3" maskContentUnits="userSpaceOnUse" maskUnits="objectBoundingBox" x="0" y="0" width="184.722656" height="91.4870664" fill="white">
            <use xlink:href="#path-1"></use>
        </mask>
    </defs>
    <g id="Page-1" stroke="none" stroke-width="1" fill="none" fill-rule="evenodd">
        <g id="Desktop-HD" transform="translate(-140.000000, -214.000000)">
            <g id="Group-7" transform="translate(140.000000, 214.000000)">
                <g id="Combined-Shape">
                    <use fill="black" fill-opacity="1" filter="url(#filter-2)" xlink:href="#path-1"></use>
                    <use stroke="#E1E1E1" mask="url(#mask-3)" stroke-width="2" fill="#FFFFFF" fill-rule="evenodd" xlink:href="#path-1"></use>
                </g>
                <path d="M63.3251875,43.6171875 L70.3651875,43.6171875 C70.6851875,43.6171875 70.9411875,43.3611875 70.9411875,43.0411875 C70.9411875,42.7211875 70.6851875,42.4651875 70.3651875,42.4651875 L63.9651875,42.4651875 L63.9651875,38.5451875 L69.5651875,38.5451875 C69.8851875,38.5451875 70.1411875,38.2891875 70.1411875,37.9691875 C70.1411875,37.6651875 69.8851875,37.3931875 69.5651875,37.3931875 L63.9651875,37.3931875 L63.9651875,33.5691875 L70.2851875,33.5691875 C70.6051875,33.5691875 70.8611875,33.3131875 70.8611875,32.9931875 C70.8611875,32.6731875 70.6051875,32.4171875 70.2851875,32.4171875 L63.3251875,32.4171875 C62.9891875,32.4171875 62.7011875,32.7051875 62.7011875,33.0571875 L62.7011875,42.9771875 C62.7011875,43.3291875 62.9891875,43.6171875 63.3251875,43.6171875 Z M72.7971875,43.1371875 C72.7971875,43.4411875 73.0371875,43.6971875 73.3571875,43.6971875 C73.5811875,43.6971875 73.7411875,43.5691875 73.8851875,43.3931875 L76.3811875,40.2251875 L78.8931875,43.4091875 C79.0371875,43.5851875 79.1971875,43.6971875 79.4371875,43.6971875 C79.7571875,43.6971875 80.0131875,43.4571875 80.0131875,43.1211875 C80.0131875,42.9611875 79.9491875,42.8171875 79.8371875,42.6731875 L77.1491875,39.3771875 L79.7251875,36.2251875 C79.8211875,36.1131875 79.8851875,35.9851875 79.8851875,35.8251875 C79.8851875,35.5051875 79.6451875,35.2651875 79.3251875,35.2651875 C79.1011875,35.2651875 78.9411875,35.3931875 78.7971875,35.5691875 L76.4291875,38.5771875 L74.0451875,35.5531875 C73.9011875,35.3771875 73.7411875,35.2651875 73.5011875,35.2651875 C73.1811875,35.2651875 72.9251875,35.4891875 72.9251875,35.8411875 C72.9251875,36.0011875 72.9891875,36.1451875 73.1171875,36.2891875 L75.6611875,39.4091875 L72.9571875,42.7371875 C72.8451875,42.8491875 72.7971875,42.9771875 72.7971875,43.1371875 Z M86.0771875,43.8091875 C87.4691875,43.8091875 88.4131875,43.2651875 89.1971875,42.4811875 C89.2931875,42.3851875 89.3571875,42.2411875 89.3571875,42.0971875 C89.3571875,41.8091875 89.1011875,41.5371875 88.7971875,41.5371875 C88.6371875,41.5371875 88.5251875,41.6171875 88.4451875,41.6971875 C87.8371875,42.2731875 87.0851875,42.7051875 86.1411875,42.7051875 C84.4131875,42.7051875 83.1011875,41.2811875 83.1011875,39.4891875 L83.1011875,39.4571875 C83.1011875,37.6811875 84.3811875,36.2571875 86.0611875,36.2571875 C87.0531875,36.2571875 87.7251875,36.7051875 88.3171875,37.2491875 C88.4131875,37.3291875 88.5571875,37.3931875 88.7171875,37.3931875 C89.0371875,37.3931875 89.3091875,37.1371875 89.3091875,36.8011875 C89.3091875,36.6091875 89.2131875,36.4491875 89.1171875,36.3691875 C88.3811875,35.6971875 87.4531875,35.1691875 86.0771875,35.1691875 C83.6611875,35.1691875 81.8371875,37.1531875 81.8371875,39.4891875 L81.8371875,39.5211875 C81.8371875,41.8411875 83.6611875,43.8091875 86.0771875,43.8091875 Z M92.2211875,39.0251875 L97.5491875,39.0251875 C97.4211875,37.5211875 96.5571875,36.2091875 94.9091875,36.2091875 C93.4691875,36.2091875 92.3811875,37.4091875 92.2211875,39.0251875 Z M98.2211875,42.5611875 C97.4371875,43.3131875 96.5091875,43.8091875 95.1011875,43.8091875 C92.8291875,43.8091875 90.9731875,42.0651875 90.9731875,39.5051875 L90.9731875,39.4731875 C90.9731875,37.0891875 92.6531875,35.1691875 94.9411875,35.1691875 C97.3891875,35.1691875 98.7811875,37.1691875 98.7811875,39.3611875 C98.7811875,39.6971875 98.5091875,39.9371875 98.2051875,39.9371875 L92.2211875,39.9371875 C92.3971875,41.7291875 93.6611875,42.7371875 95.1331875,42.7371875 C96.1571875,42.7371875 96.9091875,42.3371875 97.5171875,41.7771875 C97.6131875,41.6971875 97.7251875,41.6331875 97.8691875,41.6331875 C98.1731875,41.6331875 98.4131875,41.8731875 98.4131875,42.1611875 C98.4131875,42.3051875 98.3491875,42.4491875 98.2211875,42.5611875 Z M101.069188,43.0731875 C101.069188,43.4251875 101.341188,43.6971875 101.693188,43.6971875 C102.045188,43.6971875 102.301188,43.4251875 102.301188,43.0731875 L102.301188,32.4811875 C102.301188,32.1451875 102.029188,31.8571875 101.677188,31.8571875 C101.341188,31.8571875 101.069188,32.1451875 101.069188,32.4811875 L101.069188,43.0731875 Z M105.901188,39.0251875 L111.229188,39.0251875 C111.101188,37.5211875 110.237188,36.2091875 108.589188,36.2091875 C107.149188,36.2091875 106.061188,37.4091875 105.901188,39.0251875 Z M111.901188,42.5611875 C111.117188,43.3131875 110.189188,43.8091875 108.781188,43.8091875 C106.509188,43.8091875 104.653188,42.0651875 104.653188,39.5051875 L104.653188,39.4731875 C104.653188,37.0891875 106.333188,35.1691875 108.621188,35.1691875 C111.069188,35.1691875 112.461188,37.1691875 112.461188,39.3611875 C112.461188,39.6971875 112.189188,39.9371875 111.885188,39.9371875 L105.901188,39.9371875 C106.077188,41.7291875 107.341188,42.7371875 108.813188,42.7371875 C109.837188,42.7371875 110.589188,42.3371875 111.197188,41.7771875 C111.293188,41.6971875 111.405188,41.6331875 111.549188,41.6331875 C111.853188,41.6331875 112.093188,41.8731875 112.093188,42.1611875 C112.093188,42.3051875 112.029188,42.4491875 111.901188,42.5611875 Z M114.637188,43.0731875 C114.637188,43.4251875 114.909188,43.6971875 115.261188,43.6971875 C115.613188,43.6971875 115.869188,43.4251875 115.869188,43.0731875 L115.869188,38.8811875 C115.869188,37.3291875 116.925188,36.2891875 118.349188,36.2891875 C119.805188,36.2891875 120.637188,37.2491875 120.637188,38.7851875 L120.637188,43.0731875 C120.637188,43.4251875 120.909188,43.6971875 121.261188,43.6971875 C121.597188,43.6971875 121.869188,43.4251875 121.869188,43.0731875 L121.869188,38.4811875 C121.869188,36.5131875 120.701188,35.1691875 118.701188,35.1691875 C117.277188,35.1691875 116.413188,35.8891875 115.869188,36.7851875 L115.869188,35.8891875 C115.869188,35.5371875 115.597188,35.2651875 115.245188,35.2651875 C114.909188,35.2651875 114.637188,35.5531875 114.637188,35.8891875 L114.637188,43.0731875 Z M127.261188,43.7611875 C127.741188,43.7611875 128.125188,43.6811875 128.477188,43.5371875 C128.685188,43.4571875 128.829188,43.2811875 128.829188,43.0571875 C128.829188,42.7691875 128.589188,42.5291875 128.301188,42.5291875 C128.205188,42.5291875 127.981188,42.6411875 127.549188,42.6411875 C126.717188,42.6411875 126.157188,42.2731875 126.157188,41.2651875 L126.157188,36.4331875 L128.301188,36.4331875 C128.605188,36.4331875 128.861188,36.1931875 128.861188,35.8891875 C128.861188,35.6011875 128.605188,35.3451875 128.301188,35.3451875 L126.157188,35.3451875 L126.157188,33.3931875 C126.157188,33.0571875 125.869188,32.7691875 125.533188,32.7691875 C125.181188,32.7691875 124.925188,33.0571875 124.925188,33.3931875 L124.925188,35.3451875 L124.253188,35.3451875 C123.965188,35.3451875 123.709188,35.5851875 123.709188,35.8891875 C123.709188,36.1771875 123.965188,36.4331875 124.253188,36.4331875 L124.925188,36.4331875 L124.925188,41.4251875 C124.925188,43.1051875 125.933188,43.7611875 127.261188,43.7611875 Z M131.693188,39.0251875 L137.021188,39.0251875 C136.893188,37.5211875 136.029188,36.2091875 134.381188,36.2091875 C132.941188,36.2091875 131.853188,37.4091875 131.693188,39.0251875 Z M137.693188,42.5611875 C136.909188,43.3131875 135.981188,43.8091875 134.573188,43.8091875 C132.301188,43.8091875 130.445188,42.0651875 130.445188,39.5051875 L130.445188,39.4731875 C130.445188,37.0891875 132.125188,35.1691875 134.413188,35.1691875 C136.861188,35.1691875 138.253188,37.1691875 138.253188,39.3611875 C138.253188,39.6971875 137.981188,39.9371875 137.677188,39.9371875 L131.693188,39.9371875 C131.869188,41.7291875 133.133188,42.7371875 134.605188,42.7371875 C135.629188,42.7371875 136.381188,42.3371875 136.989188,41.7771875 C137.085188,41.6971875 137.197188,41.6331875 137.341188,41.6331875 C137.645188,41.6331875 137.885188,41.8731875 137.885188,42.1611875 C137.885188,42.3051875 137.821188,42.4491875 137.693188,42.5611875 Z M140.845188,40.1451875 C140.861188,40.3531875 141.021188,40.5131875 141.229188,40.5131875 C141.421188,40.5131875 141.581188,40.3531875 141.597188,40.1451875 L141.965188,32.8811875 C141.981188,32.5931875 141.789188,32.3691875 141.501188,32.3691875 L140.941188,32.3691875 C140.669188,32.3691875 140.461188,32.5931875 140.477188,32.8811875 L140.845188,40.1451875 Z M140.461188,42.6091875 L140.461188,42.9291875 C140.461188,43.3611875 140.781188,43.6971875 141.229188,43.6971875 C141.661188,43.6971875 141.981188,43.3611875 141.981188,42.9291875 L141.981188,42.6091875 C141.981188,42.1771875 141.661188,41.8571875 141.229188,41.8571875 C140.781188,41.8571875 140.461188,42.1771875 140.461188,42.6091875 Z" id="Excelente!" fill="#9B9B9B"></path>
                <g id="Group" transform="translate(29.000000, 30.000000)">
                    <path d="M9,18 C13.9705627,18 18,13.9705627 18,9 C18,4.02943725 13.9705627,0 9,0 C4.02943725,0 0,4.02943725 0,9 C0,13.9705627 4.02943725,18 9,18 Z" id="Oval" fill="#417505"></path>
                    <path d="M9,5 L9,13" id="Line" stroke="#FFFFFF" stroke-width="2" stroke-linecap="round" stroke-linejoin="round"></path>
                    <path d="M13,9 L5,9" id="Line" stroke="#FFFFFF" stroke-width="2" stroke-linecap="round" stroke-linejoin="round"></path>
                </g>
            </g>
        </g>
    </g>
</svg>