<?xml version="1.0" encoding="UTF-8"?>
<svg width="324px" height="198px" viewBox="0 0 324 198" version="1.1" xmlns="http://www.w3.org/2000/svg" xmlns:xlink="http://www.w3.org/1999/xlink">
    <!-- Generator: Sketch 42 (36781) - http://www.bohemiancoding.com/sketch -->
    <title>Group 8</title>
    <desc>Created with Sketch.</desc>
    <defs>
        <path d="M273.493123,179.451925 C274.150744,178.55944 275.584753,177.835937 276.677319,177.835937 L302.71512,177.835937 C311.000424,177.835937 317.722656,171.124488 317.722656,162.845495 L317.722656,14.9904424 C317.722656,6.7081163 311.003553,0 302.71512,0 L15.0075366,0 C6.72223234,0 0,6.71144969 0,14.9904424 L0,162.845495 C0,171.127821 6.719103,177.835937 15.0075366,177.835937 L249.082313,177.835937 C250.189821,177.835937 251.613491,178.549602 252.278361,179.451925 L259.916702,189.818245 C261.556035,192.043053 264.215027,192.043627 265.854782,189.818245 L273.493123,179.451925 Z" id="path-1"></path>
        <filter x="-50%" y="-50%" width="200%" height="200%" filterUnits="objectBoundingBox" id="filter-2">
            <feOffset dx="3" dy="3" in="SourceAlpha" result="shadowOffsetOuter1"></feOffset>
            <feGaussianBlur stdDeviation="1.5" in="shadowOffsetOuter1" result="shadowBlurOuter1"></feGaussianBlur>
            <feComposite in="shadowBlurOuter1" in2="SourceAlpha" operator="out" result="shadowBlurOuter1"></feComposite>
            <feColorMatrix values="0 0 0 0 0   0 0 0 0 0   0 0 0 0 0  0 0 0 0.0157382246 0" type="matrix" in="shadowBlurOuter1"></feColorMatrix>
        </filter>
        <mask id="mask-3" maskContentUnits="userSpaceOnUse" maskUnits="objectBoundingBox" x="0" y="0" width="317.722656" height="191.487066" fill="white">
            <use xlink:href="#path-1"></use>
        </mask>
    </defs>
    <g id="Page-1" stroke="none" stroke-width="1" fill="none" fill-rule="evenodd">
        <g id="Desktop-HD" transform="translate(-916.000000, -400.000000)">
            <g id="Group-8" transform="translate(922.000000, 400.000000)">
                <g id="Combined-Shape" transform="translate(158.861328, 95.743533) scale(-1, 1) translate(-158.861328, -95.743533) ">
                    <use fill="black" fill-opacity="1" filter="url(#filter-2)" xlink:href="#path-1"></use>
                    <use stroke="#E1E1E1" mask="url(#mask-3)" stroke-width="2" fill="#FFFFFF" fill-rule="evenodd" xlink:href="#path-1"></use>
                </g>
                <path d="M63.3251875,43.6171875 L70.3651875,43.6171875 C70.6851875,43.6171875 70.9411875,43.3611875 70.9411875,43.0411875 C70.9411875,42.7211875 70.6851875,42.4651875 70.3651875,42.4651875 L63.9651875,42.4651875 L63.9651875,38.5451875 L69.5651875,38.5451875 C69.8851875,38.5451875 70.1411875,38.2891875 70.1411875,37.9691875 C70.1411875,37.6651875 69.8851875,37.3931875 69.5651875,37.3931875 L63.9651875,37.3931875 L63.9651875,33.5691875 L70.2851875,33.5691875 C70.6051875,33.5691875 70.8611875,33.3131875 70.8611875,32.9931875 C70.8611875,32.6731875 70.6051875,32.4171875 70.2851875,32.4171875 L63.3251875,32.4171875 C62.9891875,32.4171875 62.7011875,32.7051875 62.7011875,33.0571875 L62.7011875,42.9771875 C62.7011875,43.3291875 62.9891875,43.6171875 63.3251875,43.6171875 Z M72.7971875,43.1371875 C72.7971875,43.4411875 73.0371875,43.6971875 73.3571875,43.6971875 C73.5811875,43.6971875 73.7411875,43.5691875 73.8851875,43.3931875 L76.3811875,40.2251875 L78.8931875,43.4091875 C79.0371875,43.5851875 79.1971875,43.6971875 79.4371875,43.6971875 C79.7571875,43.6971875 80.0131875,43.4571875 80.0131875,43.1211875 C80.0131875,42.9611875 79.9491875,42.8171875 79.8371875,42.6731875 L77.1491875,39.3771875 L79.7251875,36.2251875 C79.8211875,36.1131875 79.8851875,35.9851875 79.8851875,35.8251875 C79.8851875,35.5051875 79.6451875,35.2651875 79.3251875,35.2651875 C79.1011875,35.2651875 78.9411875,35.3931875 78.7971875,35.5691875 L76.4291875,38.5771875 L74.0451875,35.5531875 C73.9011875,35.3771875 73.7411875,35.2651875 73.5011875,35.2651875 C73.1811875,35.2651875 72.9251875,35.4891875 72.9251875,35.8411875 C72.9251875,36.0011875 72.9891875,36.1451875 73.1171875,36.2891875 L75.6611875,39.4091875 L72.9571875,42.7371875 C72.8451875,42.8491875 72.7971875,42.9771875 72.7971875,43.1371875 Z M86.0771875,43.8091875 C87.4691875,43.8091875 88.4131875,43.2651875 89.1971875,42.4811875 C89.2931875,42.3851875 89.3571875,42.2411875 89.3571875,42.0971875 C89.3571875,41.8091875 89.1011875,41.5371875 88.7971875,41.5371875 C88.6371875,41.5371875 88.5251875,41.6171875 88.4451875,41.6971875 C87.8371875,42.2731875 87.0851875,42.7051875 86.1411875,42.7051875 C84.4131875,42.7051875 83.1011875,41.2811875 83.1011875,39.4891875 L83.1011875,39.4571875 C83.1011875,37.6811875 84.3811875,36.2571875 86.0611875,36.2571875 C87.0531875,36.2571875 87.7251875,36.7051875 88.3171875,37.2491875 C88.4131875,37.3291875 88.5571875,37.3931875 88.7171875,37.3931875 C89.0371875,37.3931875 89.3091875,37.1371875 89.3091875,36.8011875 C89.3091875,36.6091875 89.2131875,36.4491875 89.1171875,36.3691875 C88.3811875,35.6971875 87.4531875,35.1691875 86.0771875,35.1691875 C83.6611875,35.1691875 81.8371875,37.1531875 81.8371875,39.4891875 L81.8371875,39.5211875 C81.8371875,41.8411875 83.6611875,43.8091875 86.0771875,43.8091875 Z M92.2211875,39.0251875 L97.5491875,39.0251875 C97.4211875,37.5211875 96.5571875,36.2091875 94.9091875,36.2091875 C93.4691875,36.2091875 92.3811875,37.4091875 92.2211875,39.0251875 Z M98.2211875,42.5611875 C97.4371875,43.3131875 96.5091875,43.8091875 95.1011875,43.8091875 C92.8291875,43.8091875 90.9731875,42.0651875 90.9731875,39.5051875 L90.9731875,39.4731875 C90.9731875,37.0891875 92.6531875,35.1691875 94.9411875,35.1691875 C97.3891875,35.1691875 98.7811875,37.1691875 98.7811875,39.3611875 C98.7811875,39.6971875 98.5091875,39.9371875 98.2051875,39.9371875 L92.2211875,39.9371875 C92.3971875,41.7291875 93.6611875,42.7371875 95.1331875,42.7371875 C96.1571875,42.7371875 96.9091875,42.3371875 97.5171875,41.7771875 C97.6131875,41.6971875 97.7251875,41.6331875 97.8691875,41.6331875 C98.1731875,41.6331875 98.4131875,41.8731875 98.4131875,42.1611875 C98.4131875,42.3051875 98.3491875,42.4491875 98.2211875,42.5611875 Z M101.069188,43.0731875 C101.069188,43.4251875 101.341188,43.6971875 101.693188,43.6971875 C102.045188,43.6971875 102.301188,43.4251875 102.301188,43.0731875 L102.301188,32.4811875 C102.301188,32.1451875 102.029188,31.8571875 101.677188,31.8571875 C101.341188,31.8571875 101.069188,32.1451875 101.069188,32.4811875 L101.069188,43.0731875 Z M105.901188,39.0251875 L111.229188,39.0251875 C111.101188,37.5211875 110.237188,36.2091875 108.589188,36.2091875 C107.149188,36.2091875 106.061188,37.4091875 105.901188,39.0251875 Z M111.901188,42.5611875 C111.117188,43.3131875 110.189188,43.8091875 108.781188,43.8091875 C106.509188,43.8091875 104.653188,42.0651875 104.653188,39.5051875 L104.653188,39.4731875 C104.653188,37.0891875 106.333188,35.1691875 108.621188,35.1691875 C111.069188,35.1691875 112.461188,37.1691875 112.461188,39.3611875 C112.461188,39.6971875 112.189188,39.9371875 111.885188,39.9371875 L105.901188,39.9371875 C106.077188,41.7291875 107.341188,42.7371875 108.813188,42.7371875 C109.837188,42.7371875 110.589188,42.3371875 111.197188,41.7771875 C111.293188,41.6971875 111.405188,41.6331875 111.549188,41.6331875 C111.853188,41.6331875 112.093188,41.8731875 112.093188,42.1611875 C112.093188,42.3051875 112.029188,42.4491875 111.901188,42.5611875 Z M114.637188,43.0731875 C114.637188,43.4251875 114.909188,43.6971875 115.261188,43.6971875 C115.613188,43.6971875 115.869188,43.4251875 115.869188,43.0731875 L115.869188,38.8811875 C115.869188,37.3291875 116.925188,36.2891875 118.349188,36.2891875 C119.805188,36.2891875 120.637188,37.2491875 120.637188,38.7851875 L120.637188,43.0731875 C120.637188,43.4251875 120.909188,43.6971875 121.261188,43.6971875 C121.597188,43.6971875 121.869188,43.4251875 121.869188,43.0731875 L121.869188,38.4811875 C121.869188,36.5131875 120.701188,35.1691875 118.701188,35.1691875 C117.277188,35.1691875 116.413188,35.8891875 115.869188,36.7851875 L115.869188,35.8891875 C115.869188,35.5371875 115.597188,35.2651875 115.245188,35.2651875 C114.909188,35.2651875 114.637188,35.5531875 114.637188,35.8891875 L114.637188,43.0731875 Z M127.261188,43.7611875 C127.741188,43.7611875 128.125188,43.6811875 128.477188,43.5371875 C128.685188,43.4571875 128.829188,43.2811875 128.829188,43.0571875 C128.829188,42.7691875 128.589188,42.5291875 128.301188,42.5291875 C128.205188,42.5291875 127.981188,42.6411875 127.549188,42.6411875 C126.717188,42.6411875 126.157188,42.2731875 126.157188,41.2651875 L126.157188,36.4331875 L128.301188,36.4331875 C128.605188,36.4331875 128.861188,36.1931875 128.861188,35.8891875 C128.861188,35.6011875 128.605188,35.3451875 128.301188,35.3451875 L126.157188,35.3451875 L126.157188,33.3931875 C126.157188,33.0571875 125.869188,32.7691875 125.533188,32.7691875 C125.181188,32.7691875 124.925188,33.0571875 124.925188,33.3931875 L124.925188,35.3451875 L124.253188,35.3451875 C123.965188,35.3451875 123.709188,35.5851875 123.709188,35.8891875 C123.709188,36.1771875 123.965188,36.4331875 124.253188,36.4331875 L124.925188,36.4331875 L124.925188,41.4251875 C124.925188,43.1051875 125.933188,43.7611875 127.261188,43.7611875 Z M131.693188,39.0251875 L137.021188,39.0251875 C136.893188,37.5211875 136.029188,36.2091875 134.381188,36.2091875 C132.941188,36.2091875 131.853188,37.4091875 131.693188,39.0251875 Z M137.693188,42.5611875 C136.909188,43.3131875 135.981188,43.8091875 134.573188,43.8091875 C132.301188,43.8091875 130.445188,42.0651875 130.445188,39.5051875 L130.445188,39.4731875 C130.445188,37.0891875 132.125188,35.1691875 134.413188,35.1691875 C136.861188,35.1691875 138.253188,37.1691875 138.253188,39.3611875 C138.253188,39.6971875 137.981188,39.9371875 137.677188,39.9371875 L131.693188,39.9371875 C131.869188,41.7291875 133.133188,42.7371875 134.605188,42.7371875 C135.629188,42.7371875 136.381188,42.3371875 136.989188,41.7771875 C137.085188,41.6971875 137.197188,41.6331875 137.341188,41.6331875 C137.645188,41.6331875 137.885188,41.8731875 137.885188,42.1611875 C137.885188,42.3051875 137.821188,42.4491875 137.693188,42.5611875 Z M149.245188,43.2171875 L152.365188,36.1771875 C152.397188,36.0971875 152.429188,35.9851875 152.429188,35.8731875 C152.429188,35.5371875 152.157188,35.2651875 151.821188,35.2651875 C151.501188,35.2651875 151.325188,35.4731875 151.245188,35.7131875 L148.525188,42.2091875 L145.853188,35.7451875 C145.757188,35.4731875 145.581188,35.2651875 145.229188,35.2651875 C144.877188,35.2651875 144.605188,35.5531875 144.605188,35.8731875 C144.605188,35.9851875 144.653188,36.0971875 144.685188,36.2091875 L147.789188,43.2171875 C147.933188,43.5371875 148.157188,43.7451875 148.493188,43.7451875 L148.557188,43.7451875 C148.893188,43.7451875 149.101188,43.5371875 149.245188,43.2171875 Z M155.309188,39.0251875 L160.637187,39.0251875 C160.509187,37.5211875 159.645187,36.2091875 157.997187,36.2091875 C156.557187,36.2091875 155.469188,37.4091875 155.309188,39.0251875 Z M161.309188,42.5611875 C160.525188,43.3131875 159.597188,43.8091875 158.189188,43.8091875 C155.917188,43.8091875 154.061188,42.0651875 154.061188,39.5051875 L154.061188,39.4731875 C154.061188,37.0891875 155.741188,35.1691875 158.029188,35.1691875 C160.477188,35.1691875 161.869188,37.1691875 161.869188,39.3611875 C161.869188,39.6971875 161.597188,39.9371875 161.293188,39.9371875 L155.309188,39.9371875 C155.485188,41.7291875 156.749188,42.7371875 158.221188,42.7371875 C159.245188,42.7371875 159.997188,42.3371875 160.605188,41.7771875 C160.701188,41.6971875 160.813188,41.6331875 160.957188,41.6331875 C161.261188,41.6331875 161.501188,41.8731875 161.501188,42.1611875 C161.501188,42.3051875 161.437188,42.4491875 161.309188,42.5611875 Z M164.045187,43.0731875 C164.045187,43.4251875 164.317187,43.6971875 164.669187,43.6971875 C165.021187,43.6971875 165.277187,43.4251875 165.277187,43.0731875 L165.277187,38.8811875 C165.277187,37.3291875 166.333188,36.2891875 167.757187,36.2891875 C169.213188,36.2891875 170.045187,37.2491875 170.045187,38.7851875 L170.045187,43.0731875 C170.045187,43.4251875 170.317187,43.6971875 170.669187,43.6971875 C171.005187,43.6971875 171.277187,43.4251875 171.277187,43.0731875 L171.277187,38.4811875 C171.277187,36.5131875 170.109187,35.1691875 168.109187,35.1691875 C166.685187,35.1691875 165.821188,35.8891875 165.277187,36.7851875 L165.277187,35.8891875 C165.277187,35.5371875 165.005187,35.2651875 164.653188,35.2651875 C164.317187,35.2651875 164.045187,35.5531875 164.045187,35.8891875 L164.045187,43.0731875 Z M181.773188,32.4811875 L181.773188,43.0731875 C181.773188,43.4251875 181.501187,43.6971875 181.165188,43.6971875 C180.813187,43.6971875 180.541187,43.4251875 180.541187,43.0731875 L180.541187,41.9531875 C179.869187,42.9451875 178.893187,43.7931875 177.373187,43.7931875 C175.389187,43.7931875 173.421187,42.2251875 173.421187,39.5051875 L173.421187,39.4731875 C173.421187,36.7691875 175.389187,35.1691875 177.373187,35.1691875 C178.909187,35.1691875 179.901187,36.0011875 180.541187,36.9291875 L180.541187,32.4811875 C180.541187,32.1291875 180.797188,31.8571875 181.149187,31.8571875 C181.501187,31.8571875 181.773188,32.1291875 181.773188,32.4811875 Z M177.597188,36.2731875 C175.997188,36.2731875 174.685188,37.4571875 174.685188,39.4571875 L174.685188,39.4891875 C174.685188,41.4411875 176.045188,42.6891875 177.597188,42.6891875 C179.133188,42.6891875 180.589188,41.3931875 180.589188,39.4891875 L180.589188,39.4571875 C180.589188,37.5531875 179.133188,36.2731875 177.597188,36.2731875 Z M185.261187,39.0251875 L190.589187,39.0251875 C190.461187,37.5211875 189.597187,36.2091875 187.949187,36.2091875 C186.509187,36.2091875 185.421187,37.4091875 185.261187,39.0251875 Z M191.261188,42.5611875 C190.477188,43.3131875 189.549188,43.8091875 188.141188,43.8091875 C185.869188,43.8091875 184.013188,42.0651875 184.013188,39.5051875 L184.013188,39.4731875 C184.013188,37.0891875 185.693188,35.1691875 187.981188,35.1691875 C190.429188,35.1691875 191.821188,37.1691875 191.821188,39.3611875 C191.821188,39.6971875 191.549188,39.9371875 191.245188,39.9371875 L185.261188,39.9371875 C185.437188,41.7291875 186.701188,42.7371875 188.173188,42.7371875 C189.197188,42.7371875 189.949188,42.3371875 190.557188,41.7771875 C190.653188,41.6971875 190.765188,41.6331875 190.909188,41.6331875 C191.213188,41.6331875 191.453188,41.8731875 191.453188,42.1611875 C191.453188,42.3051875 191.389188,42.4491875 191.261188,42.5611875 Z M201.869188,32.4811875 L201.869188,43.0731875 C201.869188,43.4251875 201.597188,43.6971875 201.261188,43.6971875 C200.909188,43.6971875 200.637188,43.4251875 200.637188,43.0731875 L200.637188,41.9531875 C199.965188,42.9451875 198.989188,43.7931875 197.469188,43.7931875 C195.485188,43.7931875 193.517188,42.2251875 193.517188,39.5051875 L193.517188,39.4731875 C193.517188,36.7691875 195.485188,35.1691875 197.469188,35.1691875 C199.005188,35.1691875 199.997188,36.0011875 200.637188,36.9291875 L200.637188,32.4811875 C200.637188,32.1291875 200.893188,31.8571875 201.245188,31.8571875 C201.597188,31.8571875 201.869188,32.1291875 201.869188,32.4811875 Z M197.693188,36.2731875 C196.093188,36.2731875 194.781188,37.4571875 194.781188,39.4571875 L194.781188,39.4891875 C194.781188,41.4411875 196.141188,42.6891875 197.693188,42.6891875 C199.229188,42.6891875 200.685188,41.3931875 200.685188,39.4891875 L200.685188,39.4571875 C200.685188,37.5531875 199.229188,36.2731875 197.693188,36.2731875 Z M208.397188,43.8091875 C205.917188,43.8091875 204.109188,41.8571875 204.109188,39.5211875 L204.109188,39.4891875 C204.109188,37.1531875 205.933188,35.1691875 208.429188,35.1691875 C210.909188,35.1691875 212.733188,37.1211875 212.733188,39.4571875 L212.733188,39.4891875 C212.733188,41.8251875 210.893188,43.8091875 208.397188,43.8091875 Z M208.429187,42.7051875 C210.221187,42.7051875 211.469187,41.2651875 211.469187,39.5211875 L211.469187,39.4891875 C211.469187,37.7131875 210.141187,36.2571875 208.397187,36.2571875 C206.605187,36.2571875 205.373187,37.7131875 205.373187,39.4571875 L205.373187,39.4891875 C205.373187,41.2651875 206.685187,42.7051875 208.429187,42.7051875 Z M214.957188,43.0731875 C214.957188,43.4251875 215.229187,43.6971875 215.581187,43.6971875 C215.933188,43.6971875 216.189188,43.4091875 216.189188,43.0731875 L216.189188,40.2571875 C216.189188,37.8731875 217.501187,36.6731875 219.101188,36.4811875 C219.421188,36.4331875 219.645187,36.1931875 219.645187,35.8571875 C219.645187,35.5051875 219.405188,35.2331875 219.037187,35.2331875 C217.997187,35.2331875 216.797188,36.0651875 216.189188,37.4411875 L216.189188,35.8891875 C216.189188,35.5371875 215.917188,35.2651875 215.565188,35.2651875 C215.229187,35.2651875 214.957188,35.5531875 214.957188,35.8891875 L214.957188,43.0731875 Z M226.973187,39.0251875 L232.301187,39.0251875 C232.173188,37.5211875 231.309188,36.2091875 229.661188,36.2091875 C228.221188,36.2091875 227.133187,37.4091875 226.973187,39.0251875 Z M232.973188,42.5611875 C232.189188,43.3131875 231.261188,43.8091875 229.853188,43.8091875 C227.581188,43.8091875 225.725188,42.0651875 225.725188,39.5051875 L225.725188,39.4731875 C225.725188,37.0891875 227.405188,35.1691875 229.693188,35.1691875 C232.141188,35.1691875 233.533188,37.1691875 233.533188,39.3611875 C233.533188,39.6971875 233.261188,39.9371875 232.957188,39.9371875 L226.973188,39.9371875 C227.149188,41.7291875 228.413188,42.7371875 229.885188,42.7371875 C230.909188,42.7371875 231.661188,42.3371875 232.269188,41.7771875 C232.365188,41.6971875 232.477188,41.6331875 232.621188,41.6331875 C232.925188,41.6331875 233.165188,41.8731875 233.165188,42.1611875 C233.165188,42.3051875 233.101188,42.4491875 232.973188,42.5611875 Z M62.4931875,70.6331875 L62.4931875,60.8891875 C62.4931875,60.5371875 62.7651875,60.2651875 63.1011875,60.2651875 C63.4531875,60.2651875 63.7251875,60.5371875 63.7251875,60.8891875 L63.7251875,62.0091875 C64.3971875,61.0171875 65.3731875,60.1691875 66.8931875,60.1691875 C68.8771875,60.1691875 70.8451875,61.7371875 70.8451875,64.4571875 L70.8451875,64.4891875 C70.8451875,67.1931875 68.8931875,68.7931875 66.8931875,68.7931875 C65.3571875,68.7931875 64.3651875,67.9611875 63.7251875,67.0331875 L63.7251875,70.6331875 C63.7251875,70.9851875 63.4691875,71.2571875 63.1171875,71.2571875 C62.7651875,71.2571875 62.4931875,70.9851875 62.4931875,70.6331875 Z M66.6691875,67.6891875 C68.2691875,67.6891875 69.5811875,66.5051875 69.5811875,64.5051875 L69.5811875,64.4731875 C69.5811875,62.5211875 68.2371875,61.2731875 66.6691875,61.2731875 C65.1331875,61.2731875 63.6771875,62.5691875 63.6771875,64.4571875 L63.6771875,64.4891875 C63.6771875,66.4091875 65.1331875,67.6891875 66.6691875,67.6891875 Z M73.8531875,64.0251875 L79.1811875,64.0251875 C79.0531875,62.5211875 78.1891875,61.2091875 76.5411875,61.2091875 C75.1011875,61.2091875 74.0131875,62.4091875 73.8531875,64.0251875 Z M79.8531875,67.5611875 C79.0691875,68.3131875 78.1411875,68.8091875 76.7331875,68.8091875 C74.4611875,68.8091875 72.6051875,67.0651875 72.6051875,64.5051875 L72.6051875,64.4731875 C72.6051875,62.0891875 74.2851875,60.1691875 76.5731875,60.1691875 C79.0211875,60.1691875 80.4131875,62.1691875 80.4131875,64.3611875 C80.4131875,64.6971875 80.1411875,64.9371875 79.8371875,64.9371875 L73.8531875,64.9371875 C74.0291875,66.7291875 75.2931875,67.7371875 76.7651875,67.7371875 C77.7891875,67.7371875 78.5411875,67.3371875 79.1491875,66.7771875 C79.2451875,66.6971875 79.3571875,66.6331875 79.5011875,66.6331875 C79.8051875,66.6331875 80.0451875,66.8731875 80.0451875,67.1611875 C80.0451875,67.3051875 79.9811875,67.4491875 79.8531875,67.5611875 Z M85.3251875,68.7771875 C86.9731875,68.7771875 88.2691875,67.8651875 88.2691875,66.2971875 L88.2691875,66.2651875 C88.2691875,64.7771875 86.8931875,64.2811875 85.6131875,63.8971875 C84.5091875,63.5611875 83.4851875,63.2571875 83.4851875,62.4731875 L83.4851875,62.4411875 C83.4851875,61.7531875 84.1091875,61.2411875 85.0851875,61.2411875 C85.7891875,61.2411875 86.5411875,61.4811875 87.2451875,61.8811875 C87.3091875,61.9131875 87.4051875,61.9451875 87.5171875,61.9451875 C87.8211875,61.9451875 88.0611875,61.7051875 88.0611875,61.4171875 C88.0611875,61.1771875 87.9171875,61.0011875 87.7571875,60.9051875 C86.9571875,60.4731875 85.9971875,60.2011875 85.1171875,60.2011875 C83.4851875,60.2011875 82.3011875,61.1451875 82.3011875,62.5691875 L82.3011875,62.6011875 C82.3011875,64.1211875 83.7411875,64.5691875 85.0371875,64.9371875 C86.1251875,65.2411875 87.1011875,65.5611875 87.1011875,66.3931875 L87.1011875,66.4251875 C87.1011875,67.2251875 86.3811875,67.7371875 85.3891875,67.7371875 C84.4931875,67.7371875 83.6131875,67.4331875 82.7651875,66.8571875 C82.6851875,66.7931875 82.5731875,66.7611875 82.4611875,66.7611875 C82.1571875,66.7611875 81.9171875,67.0011875 81.9171875,67.2891875 C81.9171875,67.4971875 82.0291875,67.6571875 82.1411875,67.7371875 C83.0371875,68.3771875 84.2371875,68.7771875 85.3251875,68.7771875 Z M93.2931875,68.7771875 C94.9411875,68.7771875 96.2371875,67.8651875 96.2371875,66.2971875 L96.2371875,66.2651875 C96.2371875,64.7771875 94.8611875,64.2811875 93.5811875,63.8971875 C92.4771875,63.5611875 91.4531875,63.2571875 91.4531875,62.4731875 L91.4531875,62.4411875 C91.4531875,61.7531875 92.0771875,61.2411875 93.0531875,61.2411875 C93.7571875,61.2411875 94.5091875,61.4811875 95.2131875,61.8811875 C95.2771875,61.9131875 95.3731875,61.9451875 95.4851875,61.9451875 C95.7891875,61.9451875 96.0291875,61.7051875 96.0291875,61.4171875 C96.0291875,61.1771875 95.8851875,61.0011875 95.7251875,60.9051875 C94.9251875,60.4731875 93.9651875,60.2011875 93.0851875,60.2011875 C91.4531875,60.2011875 90.2691875,61.1451875 90.2691875,62.5691875 L90.2691875,62.6011875 C90.2691875,64.1211875 91.7091875,64.5691875 93.0051875,64.9371875 C94.0931875,65.2411875 95.0691875,65.5611875 95.0691875,66.3931875 L95.0691875,66.4251875 C95.0691875,67.2251875 94.3491875,67.7371875 93.3571875,67.7371875 C92.4611875,67.7371875 91.5811875,67.4331875 90.7331875,66.8571875 C90.6531875,66.7931875 90.5411875,66.7611875 90.4291875,66.7611875 C90.1251875,66.7611875 89.8851875,67.0011875 89.8851875,67.2891875 C89.8851875,67.4971875 89.9971875,67.6571875 90.1091875,67.7371875 C91.0051875,68.3771875 92.2051875,68.7771875 93.2931875,68.7771875 Z M102.301188,68.8091875 C99.8211875,68.8091875 98.0131875,66.8571875 98.0131875,64.5211875 L98.0131875,64.4891875 C98.0131875,62.1531875 99.8371875,60.1691875 102.333188,60.1691875 C104.813188,60.1691875 106.637188,62.1211875 106.637188,64.4571875 L106.637188,64.4891875 C106.637188,66.8251875 104.797188,68.8091875 102.301188,68.8091875 Z M102.333188,67.7051875 C104.125188,67.7051875 105.373188,66.2651875 105.373188,64.5211875 L105.373188,64.4891875 C105.373188,62.7131875 104.045188,61.2571875 102.301188,61.2571875 C100.509188,61.2571875 99.2771875,62.7131875 99.2771875,64.4571875 L99.2771875,64.4891875 C99.2771875,66.2651875 100.589188,67.7051875 102.333188,67.7051875 Z M111.325188,68.7931875 C109.789188,68.7931875 108.237188,67.9131875 108.237188,66.2171875 L108.237188,66.1851875 C108.237188,64.4411875 109.677188,63.5131875 111.773188,63.5131875 C112.829188,63.5131875 113.581188,63.6571875 114.317188,63.8651875 L114.317188,63.5771875 C114.317188,62.0891875 113.405188,61.3211875 111.853188,61.3211875 C111.021188,61.3211875 110.317188,61.5131875 109.709188,61.7851875 C109.629188,61.8171875 109.549188,61.8331875 109.485188,61.8331875 C109.197188,61.8331875 108.941188,61.5931875 108.941188,61.3051875 C108.941188,61.0491875 109.117188,60.8571875 109.277188,60.7931875 C110.093188,60.4411875 110.925188,60.2331875 111.981188,60.2331875 C113.149188,60.2331875 114.045188,60.5371875 114.653188,61.1451875 C115.213188,61.7051875 115.501188,62.5051875 115.501188,63.5611875 L115.501188,68.0891875 C115.501188,68.4411875 115.245188,68.6971875 114.909188,68.6971875 C114.557188,68.6971875 114.317188,68.4411875 114.317188,68.1211875 L114.317188,67.3691875 C113.741188,68.1211875 112.781188,68.7931875 111.325188,68.7931875 Z M111.565188,67.8171875 C113.085188,67.8171875 114.333188,66.8891875 114.333188,65.5771875 L114.333188,64.7771875 C113.725188,64.6011875 112.909188,64.4251875 111.901188,64.4251875 C110.349188,64.4251875 109.485188,65.0971875 109.485188,66.1371875 L109.485188,66.1691875 C109.485188,67.2091875 110.445188,67.8171875 111.565188,67.8171875 Z M117.949188,67.6091875 L117.949188,67.9291875 C117.949188,68.3611875 118.269188,68.6971875 118.717188,68.6971875 C119.149188,68.6971875 119.469188,68.3611875 119.469188,67.9291875 L119.469188,67.6091875 C119.469188,67.1771875 119.149188,66.8571875 118.717188,66.8571875 C118.269188,66.8571875 117.949188,67.1771875 117.949188,67.6091875 Z M129.421188,68.7771875 C130.413188,68.7771875 131.261188,68.4571875 131.885188,67.8491875 C132.525188,67.2091875 132.909188,66.2171875 132.909188,64.9051875 L132.909188,57.9771875 C132.909188,57.6251875 132.637188,57.3371875 132.285188,57.3371875 C131.933188,57.3371875 131.645188,57.6251875 131.645188,57.9771875 L131.645188,64.9211875 C131.645188,66.6971875 130.717188,67.6091875 129.453188,67.6091875 C128.413188,67.6091875 127.757188,67.1771875 127.149188,66.3451875 C127.053188,66.2331875 126.909188,66.1211875 126.701188,66.1211875 C126.365188,66.1211875 126.077188,66.4091875 126.077188,66.7451875 C126.077188,66.9211875 126.157188,67.0811875 126.253188,67.1771875 C126.941188,68.1051875 127.949188,68.7771875 129.421188,68.7771875 Z M138.157188,68.7931875 C136.621188,68.7931875 135.069188,67.9131875 135.069188,66.2171875 L135.069188,66.1851875 C135.069188,64.4411875 136.509188,63.5131875 138.605188,63.5131875 C139.661188,63.5131875 140.413188,63.6571875 141.149188,63.8651875 L141.149188,63.5771875 C141.149188,62.0891875 140.237188,61.3211875 138.685188,61.3211875 C137.853188,61.3211875 137.149188,61.5131875 136.541188,61.7851875 C136.461188,61.8171875 136.381188,61.8331875 136.317188,61.8331875 C136.029188,61.8331875 135.773188,61.5931875 135.773188,61.3051875 C135.773188,61.0491875 135.949188,60.8571875 136.109188,60.7931875 C136.925188,60.4411875 137.757188,60.2331875 138.813187,60.2331875 C139.981188,60.2331875 140.877188,60.5371875 141.485188,61.1451875 C142.045188,61.7051875 142.333188,62.5051875 142.333188,63.5611875 L142.333188,68.0891875 C142.333188,68.4411875 142.077188,68.6971875 141.741188,68.6971875 C141.389188,68.6971875 141.149188,68.4411875 141.149188,68.1211875 L141.149188,67.3691875 C140.573188,68.1211875 139.613188,68.7931875 138.157188,68.7931875 Z M138.397187,67.8171875 C139.917187,67.8171875 141.165188,66.8891875 141.165188,65.5771875 L141.165188,64.7771875 C140.557187,64.6011875 139.741187,64.4251875 138.733187,64.4251875 C137.181187,64.4251875 136.317187,65.0971875 136.317187,66.1371875 L136.317187,66.1691875 C136.317187,67.2091875 137.277187,67.8171875 138.397187,67.8171875 Z M138.909187,59.1611875 C139.213188,59.1611875 139.405187,59.1131875 139.661187,58.8571875 L140.861187,57.7211875 C140.989187,57.5931875 141.085187,57.4811875 141.085187,57.3531875 C141.085187,57.1291875 140.605187,56.8731875 140.221187,56.8731875 C139.981187,56.8731875 139.805187,57.0011875 139.645187,57.2411875 L138.685187,58.6971875 C138.637187,58.7611875 138.605187,58.8571875 138.605187,58.9371875 C138.605187,59.0651875 138.733187,59.1611875 138.909187,59.1611875 Z M153.485187,68.8091875 C154.877187,68.8091875 155.821187,68.2651875 156.605187,67.4811875 C156.701187,67.3851875 156.765187,67.2411875 156.765187,67.0971875 C156.765187,66.8091875 156.509187,66.5371875 156.205187,66.5371875 C156.045187,66.5371875 155.933187,66.6171875 155.853187,66.6971875 C155.245187,67.2731875 154.493187,67.7051875 153.549187,67.7051875 C151.821187,67.7051875 150.509187,66.2811875 150.509187,64.4891875 L150.509187,64.4571875 C150.509187,62.6811875 151.789187,61.2571875 153.469187,61.2571875 C154.461187,61.2571875 155.133187,61.7051875 155.725187,62.2491875 C155.821187,62.3291875 155.965187,62.3931875 156.125187,62.3931875 C156.445187,62.3931875 156.717187,62.1371875 156.717187,61.8011875 C156.717187,61.6091875 156.621187,61.4491875 156.525187,61.3691875 C155.789187,60.6971875 154.861187,60.1691875 153.485187,60.1691875 C151.069187,60.1691875 149.245187,62.1531875 149.245187,64.4891875 L149.245187,64.5211875 C149.245187,66.8411875 151.069187,68.8091875 153.485187,68.8091875 Z M162.669187,68.8091875 C160.189187,68.8091875 158.381187,66.8571875 158.381187,64.5211875 L158.381187,64.4891875 C158.381187,62.1531875 160.205187,60.1691875 162.701187,60.1691875 C165.181187,60.1691875 167.005187,62.1211875 167.005187,64.4571875 L167.005187,64.4891875 C167.005187,66.8251875 165.165187,68.8091875 162.669187,68.8091875 Z M162.701188,67.7051875 C164.493187,67.7051875 165.741187,66.2651875 165.741187,64.5211875 L165.741187,64.4891875 C165.741187,62.7131875 164.413187,61.2571875 162.669187,61.2571875 C160.877187,61.2571875 159.645187,62.7131875 159.645187,64.4571875 L159.645187,64.4891875 C159.645187,66.2651875 160.957187,67.7051875 162.701188,67.7051875 Z M169.229187,68.0731875 C169.229187,68.4251875 169.501187,68.6971875 169.853187,68.6971875 C170.205187,68.6971875 170.461187,68.4251875 170.461187,68.0731875 L170.461187,63.8971875 C170.461187,62.3771875 171.453187,61.2891875 172.765187,61.2891875 C174.077187,61.2891875 174.893187,62.2011875 174.893187,63.7531875 L174.893187,68.0731875 C174.893187,68.4251875 175.165187,68.6971875 175.501187,68.6971875 C175.853187,68.6971875 176.125187,68.4251875 176.125187,68.0731875 L176.125187,63.8491875 C176.125187,62.2171875 177.149187,61.2891875 178.397187,61.2891875 C179.741187,61.2891875 180.541187,62.1851875 180.541187,63.7851875 L180.541187,68.0731875 C180.541187,68.4251875 180.813187,68.6971875 181.165187,68.6971875 C181.501187,68.6971875 181.773187,68.4251875 181.773187,68.0731875 L181.773187,63.4971875 C181.773187,61.4491875 180.605187,60.1691875 178.701187,60.1691875 C177.261187,60.1691875 176.381187,60.9051875 175.789187,61.8171875 C175.341187,60.8891875 174.477187,60.1691875 173.133187,60.1691875 C171.741187,60.1691875 171.005187,60.9211875 170.461187,61.7371875 L170.461187,60.8891875 C170.461187,60.5371875 170.189187,60.2651875 169.837187,60.2651875 C169.501187,60.2651875 169.229187,60.5531875 169.229187,60.8891875 L169.229187,68.0731875 Z M184.445187,70.6331875 L184.445187,60.8891875 C184.445187,60.5371875 184.717187,60.2651875 185.053187,60.2651875 C185.405187,60.2651875 185.677188,60.5371875 185.677188,60.8891875 L185.677188,62.0091875 C186.349187,61.0171875 187.325187,60.1691875 188.845187,60.1691875 C190.829187,60.1691875 192.797188,61.7371875 192.797188,64.4571875 L192.797188,64.4891875 C192.797188,67.1931875 190.845188,68.7931875 188.845187,68.7931875 C187.309187,68.7931875 186.317187,67.9611875 185.677188,67.0331875 L185.677188,70.6331875 C185.677188,70.9851875 185.421187,71.2571875 185.069187,71.2571875 C184.717187,71.2571875 184.445187,70.9851875 184.445187,70.6331875 Z M188.621187,67.6891875 C190.221188,67.6891875 191.533188,66.5051875 191.533188,64.5051875 L191.533188,64.4731875 C191.533188,62.5211875 190.189188,61.2731875 188.621187,61.2731875 C187.085187,61.2731875 185.629188,62.5691875 185.629188,64.4571875 L185.629188,64.4891875 C185.629188,66.4091875 187.085187,67.6891875 188.621187,67.6891875 Z M195.069187,68.0731875 C195.069187,68.4251875 195.341187,68.6971875 195.693187,68.6971875 C196.045187,68.6971875 196.301187,68.4091875 196.301187,68.0731875 L196.301187,65.2571875 C196.301187,62.8731875 197.613187,61.6731875 199.213188,61.4811875 C199.533187,61.4331875 199.757187,61.1931875 199.757187,60.8571875 C199.757187,60.5051875 199.517188,60.2331875 199.149187,60.2331875 C198.109187,60.2331875 196.909188,61.0651875 196.301187,62.4411875 L196.301187,60.8891875 C196.301187,60.5371875 196.029188,60.2651875 195.677188,60.2651875 C195.341187,60.2651875 195.069187,60.5531875 195.069187,60.8891875 L195.069187,68.0731875 Z M202.285188,64.0251875 L207.613188,64.0251875 C207.485188,62.5211875 206.621188,61.2091875 204.973188,61.2091875 C203.533188,61.2091875 202.445188,62.4091875 202.285188,64.0251875 Z M208.285187,67.5611875 C207.501187,68.3131875 206.573187,68.8091875 205.165187,68.8091875 C202.893187,68.8091875 201.037187,67.0651875 201.037187,64.5051875 L201.037187,64.4731875 C201.037187,62.0891875 202.717187,60.1691875 205.005187,60.1691875 C207.453187,60.1691875 208.845187,62.1691875 208.845187,64.3611875 C208.845187,64.6971875 208.573187,64.9371875 208.269187,64.9371875 L202.285187,64.9371875 C202.461187,66.7291875 203.725187,67.7371875 205.197187,67.7371875 C206.221187,67.7371875 206.973187,67.3371875 207.581187,66.7771875 C207.677187,66.6971875 207.789187,66.6331875 207.933187,66.6331875 C208.237187,66.6331875 208.477187,66.8731875 208.477187,67.1611875 C208.477187,67.3051875 208.413187,67.4491875 208.285187,67.5611875 Z M211.021187,57.9611875 C211.021187,58.3451875 211.341187,58.6171875 211.741187,58.6171875 C212.157187,58.6171875 212.477187,58.3451875 212.477187,57.9611875 L212.477187,57.7531875 C212.477187,57.3531875 212.157187,57.0971875 211.741187,57.0971875 C211.341187,57.0971875 211.021187,57.3531875 211.021187,57.7531875 L211.021187,57.9611875 Z M211.133187,68.0731875 C211.133187,68.4251875 211.405187,68.6971875 211.757187,68.6971875 C212.109187,68.6971875 212.365187,68.4251875 212.365187,68.0731875 L212.365187,60.8891875 C212.365187,60.5371875 212.093187,60.2651875 211.741187,60.2651875 C211.405187,60.2651875 211.133187,60.5531875 211.133187,60.8891875 L211.133187,68.0731875 Z M223.757188,68.8091875 C225.149188,68.8091875 226.093187,68.2651875 226.877187,67.4811875 C226.973187,67.3851875 227.037187,67.2411875 227.037187,67.0971875 C227.037187,66.8091875 226.781188,66.5371875 226.477188,66.5371875 C226.317187,66.5371875 226.205187,66.6171875 226.125188,66.6971875 C225.517188,67.2731875 224.765187,67.7051875 223.821188,67.7051875 C222.093187,67.7051875 220.781188,66.2811875 220.781188,64.4891875 L220.781188,64.4571875 C220.781188,62.6811875 222.061187,61.2571875 223.741187,61.2571875 C224.733188,61.2571875 225.405188,61.7051875 225.997187,62.2491875 C226.093187,62.3291875 226.237188,62.3931875 226.397188,62.3931875 C226.717187,62.3931875 226.989188,62.1371875 226.989188,61.8011875 C226.989188,61.6091875 226.893188,61.4491875 226.797188,61.3691875 C226.061187,60.6971875 225.133187,60.1691875 223.757188,60.1691875 C221.341187,60.1691875 219.517188,62.1531875 219.517188,64.4891875 L219.517188,64.5211875 C219.517188,66.8411875 221.341187,68.8091875 223.757188,68.8091875 Z M232.941187,68.8091875 C230.461187,68.8091875 228.653187,66.8571875 228.653187,64.5211875 L228.653187,64.4891875 C228.653187,62.1531875 230.477187,60.1691875 232.973187,60.1691875 C235.453187,60.1691875 237.277187,62.1211875 237.277187,64.4571875 L237.277187,64.4891875 C237.277187,66.8251875 235.437187,68.8091875 232.941187,68.8091875 Z M232.973187,67.7051875 C234.765187,67.7051875 236.013187,66.2651875 236.013187,64.5211875 L236.013187,64.4891875 C236.013187,62.7131875 234.685187,61.2571875 232.941187,61.2571875 C231.149188,61.2571875 229.917187,62.7131875 229.917187,64.4571875 L229.917187,64.4891875 C229.917187,66.2651875 231.229187,67.7051875 232.973187,67.7051875 Z M239.501188,68.0731875 C239.501188,68.4251875 239.773188,68.6971875 240.125188,68.6971875 C240.477188,68.6971875 240.733188,68.4251875 240.733188,68.0731875 L240.733188,63.8971875 C240.733188,62.3771875 241.725188,61.2891875 243.037188,61.2891875 C244.349188,61.2891875 245.165188,62.2011875 245.165188,63.7531875 L245.165188,68.0731875 C245.165188,68.4251875 245.437188,68.6971875 245.773188,68.6971875 C246.125188,68.6971875 246.397188,68.4251875 246.397188,68.0731875 L246.397188,63.8491875 C246.397188,62.2171875 247.421188,61.2891875 248.669188,61.2891875 C250.013188,61.2891875 250.813188,62.1851875 250.813188,63.7851875 L250.813188,68.0731875 C250.813188,68.4251875 251.085188,68.6971875 251.437188,68.6971875 C251.773188,68.6971875 252.045188,68.4251875 252.045188,68.0731875 L252.045188,63.4971875 C252.045188,61.4491875 250.877188,60.1691875 248.973188,60.1691875 C247.533188,60.1691875 246.653188,60.9051875 246.061188,61.8171875 C245.613188,60.8891875 244.749188,60.1691875 243.405188,60.1691875 C242.013188,60.1691875 241.277188,60.9211875 240.733188,61.7371875 L240.733188,60.8891875 C240.733188,60.5371875 240.461188,60.2651875 240.109188,60.2651875 C239.773188,60.2651875 239.501188,60.5531875 239.501188,60.8891875 L239.501188,68.0731875 Z M260.253187,64.0251875 L265.581187,64.0251875 C265.453188,62.5211875 264.589187,61.2091875 262.941188,61.2091875 C261.501188,61.2091875 260.413187,62.4091875 260.253187,64.0251875 Z M266.253187,67.5611875 C265.469187,68.3131875 264.541187,68.8091875 263.133187,68.8091875 C260.861188,68.8091875 259.005188,67.0651875 259.005188,64.5051875 L259.005188,64.4731875 C259.005188,62.0891875 260.685187,60.1691875 262.973187,60.1691875 C265.421187,60.1691875 266.813188,62.1691875 266.813188,64.3611875 C266.813188,64.6971875 266.541187,64.9371875 266.237188,64.9371875 L260.253187,64.9371875 C260.429188,66.7291875 261.693188,67.7371875 263.165188,67.7371875 C264.189188,67.7371875 264.941188,67.3371875 265.549188,66.7771875 C265.645188,66.6971875 265.757187,66.6331875 265.901187,66.6331875 C266.205187,66.6331875 266.445187,66.8731875 266.445187,67.1611875 C266.445187,67.3051875 266.381188,67.4491875 266.253187,67.5611875 Z M269.101188,68.0731875 C269.101188,68.4251875 269.373187,68.6971875 269.725188,68.6971875 C270.077188,68.6971875 270.333188,68.4251875 270.333188,68.0731875 L270.333188,57.4811875 C270.333188,57.1451875 270.061188,56.8571875 269.709187,56.8571875 C269.373187,56.8571875 269.101188,57.1451875 269.101188,57.4811875 L269.101188,68.0731875 Z M273.933188,64.0251875 L279.261188,64.0251875 C279.133187,62.5211875 278.269188,61.2091875 276.621188,61.2091875 C275.181187,61.2091875 274.093187,62.4091875 273.933188,64.0251875 Z M279.933188,67.5611875 C279.149188,68.3131875 278.221188,68.8091875 276.813188,68.8091875 C274.541187,68.8091875 272.685187,67.0651875 272.685187,64.5051875 L272.685187,64.4731875 C272.685187,62.0891875 274.365188,60.1691875 276.653188,60.1691875 C279.101188,60.1691875 280.493187,62.1691875 280.493187,64.3611875 C280.493187,64.6971875 280.221188,64.9371875 279.917188,64.9371875 L273.933188,64.9371875 C274.109188,66.7291875 275.373187,67.7371875 276.845188,67.7371875 C277.869188,67.7371875 278.621188,67.3371875 279.229187,66.7771875 C279.325187,66.6971875 279.437188,66.6331875 279.581188,66.6331875 C279.885188,66.6331875 280.125188,66.8731875 280.125188,67.1611875 C280.125188,67.3051875 280.061188,67.4491875 279.933188,67.5611875 Z M63.2291875,89.0251875 L68.5571875,89.0251875 C68.4291875,87.5211875 67.5651875,86.2091875 65.9171875,86.2091875 C64.4771875,86.2091875 63.3891875,87.4091875 63.2291875,89.0251875 Z M69.2291875,92.5611875 C68.4451875,93.3131875 67.5171875,93.8091875 66.1091875,93.8091875 C63.8371875,93.8091875 61.9811875,92.0651875 61.9811875,89.5051875 L61.9811875,89.4731875 C61.9811875,87.0891875 63.6611875,85.1691875 65.9491875,85.1691875 C68.3971875,85.1691875 69.7891875,87.1691875 69.7891875,89.3611875 C69.7891875,89.6971875 69.5171875,89.9371875 69.2131875,89.9371875 L63.2291875,89.9371875 C63.4051875,91.7291875 64.6691875,92.7371875 66.1411875,92.7371875 C67.1651875,92.7371875 67.9171875,92.3371875 68.5251875,91.7771875 C68.6211875,91.6971875 68.7331875,91.6331875 68.8771875,91.6331875 C69.1811875,91.6331875 69.4211875,91.8731875 69.4211875,92.1611875 C69.4211875,92.3051875 69.3571875,92.4491875 69.2291875,92.5611875 Z M80.4931875,93.8091875 C81.8851875,93.8091875 82.8291875,93.2651875 83.6131875,92.4811875 C83.7091875,92.3851875 83.7731875,92.2411875 83.7731875,92.0971875 C83.7731875,91.8091875 83.5171875,91.5371875 83.2131875,91.5371875 C83.0531875,91.5371875 82.9411875,91.6171875 82.8611875,91.6971875 C82.2531875,92.2731875 81.5011875,92.7051875 80.5571875,92.7051875 C78.8291875,92.7051875 77.5171875,91.2811875 77.5171875,89.4891875 L77.5171875,89.4571875 C77.5171875,87.6811875 78.7971875,86.2571875 80.4771875,86.2571875 C81.4691875,86.2571875 82.1411875,86.7051875 82.7331875,87.2491875 C82.8291875,87.3291875 82.9731875,87.3931875 83.1331875,87.3931875 C83.4531875,87.3931875 83.7251875,87.1371875 83.7251875,86.8011875 C83.7251875,86.6091875 83.6291875,86.4491875 83.5331875,86.3691875 C82.7971875,85.6971875 81.8691875,85.1691875 80.4931875,85.1691875 C78.0771875,85.1691875 76.2531875,87.1531875 76.2531875,89.4891875 L76.2531875,89.5211875 C76.2531875,91.8411875 78.0771875,93.8091875 80.4931875,93.8091875 Z M89.6771875,93.8091875 C87.1971875,93.8091875 85.3891875,91.8571875 85.3891875,89.5211875 L85.3891875,89.4891875 C85.3891875,87.1531875 87.2131875,85.1691875 89.7091875,85.1691875 C92.1891875,85.1691875 94.0131875,87.1211875 94.0131875,89.4571875 L94.0131875,89.4891875 C94.0131875,91.8251875 92.1731875,93.8091875 89.6771875,93.8091875 Z M89.7091875,92.7051875 C91.5011875,92.7051875 92.7491875,91.2651875 92.7491875,89.5211875 L92.7491875,89.4891875 C92.7491875,87.7131875 91.4211875,86.2571875 89.6771875,86.2571875 C87.8851875,86.2571875 86.6531875,87.7131875 86.6531875,89.4571875 L86.6531875,89.4891875 C86.6531875,91.2651875 87.9651875,92.7051875 89.7091875,92.7051875 Z M96.2371875,93.0731875 C96.2371875,93.4251875 96.5091875,93.6971875 96.8611875,93.6971875 C97.2131875,93.6971875 97.4691875,93.4251875 97.4691875,93.0731875 L97.4691875,88.8811875 C97.4691875,87.3291875 98.5251875,86.2891875 99.9491875,86.2891875 C101.405188,86.2891875 102.237188,87.2491875 102.237188,88.7851875 L102.237188,93.0731875 C102.237188,93.4251875 102.509188,93.6971875 102.861188,93.6971875 C103.197188,93.6971875 103.469188,93.4251875 103.469188,93.0731875 L103.469188,88.4811875 C103.469188,86.5131875 102.301188,85.1691875 100.301188,85.1691875 C98.8771875,85.1691875 98.0131875,85.8891875 97.4691875,86.7851875 L97.4691875,85.8891875 C97.4691875,85.5371875 97.1971875,85.2651875 96.8451875,85.2651875 C96.5091875,85.2651875 96.2371875,85.5531875 96.2371875,85.8891875 L96.2371875,93.0731875 Z M108.861188,93.7611875 C109.341188,93.7611875 109.725188,93.6811875 110.077188,93.5371875 C110.285188,93.4571875 110.429188,93.2811875 110.429188,93.0571875 C110.429188,92.7691875 110.189188,92.5291875 109.901188,92.5291875 C109.805188,92.5291875 109.581188,92.6411875 109.149188,92.6411875 C108.317188,92.6411875 107.757188,92.2731875 107.757188,91.2651875 L107.757188,86.4331875 L109.901188,86.4331875 C110.205188,86.4331875 110.461188,86.1931875 110.461188,85.8891875 C110.461188,85.6011875 110.205188,85.3451875 109.901188,85.3451875 L107.757188,85.3451875 L107.757188,83.3931875 C107.757188,83.0571875 107.469188,82.7691875 107.133188,82.7691875 C106.781188,82.7691875 106.525188,83.0571875 106.525188,83.3931875 L106.525188,85.3451875 L105.853188,85.3451875 C105.565188,85.3451875 105.309188,85.5851875 105.309188,85.8891875 C105.309188,86.1771875 105.565188,86.4331875 105.853188,86.4331875 L106.525188,86.4331875 L106.525188,91.4251875 C106.525188,93.1051875 107.533188,93.7611875 108.861188,93.7611875 Z M112.557188,82.9611875 C112.557188,83.3451875 112.877188,83.6171875 113.277188,83.6171875 C113.693188,83.6171875 114.013188,83.3451875 114.013188,82.9611875 L114.013188,82.7531875 C114.013188,82.3531875 113.693188,82.0971875 113.277188,82.0971875 C112.877188,82.0971875 112.557188,82.3531875 112.557188,82.7531875 L112.557188,82.9611875 Z M112.669188,93.0731875 C112.669188,93.4251875 112.941188,93.6971875 113.293188,93.6971875 C113.645188,93.6971875 113.901188,93.4251875 113.901188,93.0731875 L113.901188,85.8891875 C113.901188,85.5371875 113.629188,85.2651875 113.277188,85.2651875 C112.941188,85.2651875 112.669188,85.5531875 112.669188,85.8891875 L112.669188,93.0731875 Z M116.765188,93.0731875 C116.765188,93.4251875 117.037188,93.6971875 117.389188,93.6971875 C117.741188,93.6971875 117.997188,93.4251875 117.997188,93.0731875 L117.997188,88.8811875 C117.997188,87.3291875 119.053188,86.2891875 120.477188,86.2891875 C121.933188,86.2891875 122.765188,87.2491875 122.765188,88.7851875 L122.765188,93.0731875 C122.765188,93.4251875 123.037188,93.6971875 123.389188,93.6971875 C123.725188,93.6971875 123.997188,93.4251875 123.997188,93.0731875 L123.997188,88.4811875 C123.997188,86.5131875 122.829188,85.1691875 120.829188,85.1691875 C119.405188,85.1691875 118.541188,85.8891875 117.997188,86.7851875 L117.997188,85.8891875 C117.997188,85.5371875 117.725188,85.2651875 117.373188,85.2651875 C117.037188,85.2651875 116.765188,85.5531875 116.765188,85.8891875 L116.765188,93.0731875 Z M133.709188,85.8891875 C133.709188,85.5371875 133.437188,85.2651875 133.101188,85.2651875 C132.749188,85.2651875 132.493188,85.5371875 132.493188,85.8891875 L132.493188,90.0811875 C132.493188,91.6331875 131.421188,92.6731875 130.013188,92.6731875 C128.557188,92.6731875 127.725188,91.7131875 127.725188,90.1771875 L127.725188,85.8891875 C127.725188,85.5371875 127.437188,85.2651875 127.101188,85.2651875 C126.749188,85.2651875 126.493188,85.5371875 126.493188,85.8891875 L126.493188,90.4811875 C126.493188,92.4491875 127.661188,93.7931875 129.661188,93.7931875 C131.085188,93.7931875 131.933188,93.0731875 132.493188,92.1771875 L132.493188,93.0731875 C132.493188,93.4251875 132.765188,93.6971875 133.101188,93.6971875 C133.453188,93.6971875 133.709188,93.4091875 133.709188,93.0731875 L133.709188,85.8891875 Z M138.941188,93.7931875 C137.405188,93.7931875 135.853187,92.9131875 135.853187,91.2171875 L135.853187,91.1851875 C135.853187,89.4411875 137.293187,88.5131875 139.389187,88.5131875 C140.445187,88.5131875 141.197187,88.6571875 141.933187,88.8651875 L141.933187,88.5771875 C141.933187,87.0891875 141.021187,86.3211875 139.469187,86.3211875 C138.637187,86.3211875 137.933187,86.5131875 137.325187,86.7851875 C137.245187,86.8171875 137.165188,86.8331875 137.101187,86.8331875 C136.813187,86.8331875 136.557187,86.5931875 136.557187,86.3051875 C136.557187,86.0491875 136.733187,85.8571875 136.893188,85.7931875 C137.709187,85.4411875 138.541187,85.2331875 139.597187,85.2331875 C140.765187,85.2331875 141.661187,85.5371875 142.269187,86.1451875 C142.829187,86.7051875 143.117188,87.5051875 143.117188,88.5611875 L143.117188,93.0891875 C143.117188,93.4411875 142.861187,93.6971875 142.525188,93.6971875 C142.173187,93.6971875 141.933187,93.4411875 141.933187,93.1211875 L141.933187,92.3691875 C141.357188,93.1211875 140.397188,93.7931875 138.941188,93.7931875 Z M139.181187,92.8171875 C140.701188,92.8171875 141.949187,91.8891875 141.949187,90.5771875 L141.949187,89.7771875 C141.341187,89.6011875 140.525188,89.4251875 139.517187,89.4251875 C137.965188,89.4251875 137.101187,90.0971875 137.101187,91.1371875 L137.101187,91.1691875 C137.101187,92.2091875 138.061187,92.8171875 139.181187,92.8171875 Z M145.741188,93.0731875 C145.741188,93.4251875 146.013188,93.6971875 146.365188,93.6971875 C146.717188,93.6971875 146.973188,93.4091875 146.973188,93.0731875 L146.973188,90.2571875 C146.973188,87.8731875 148.285188,86.6731875 149.885188,86.4811875 C150.205188,86.4331875 150.429188,86.1931875 150.429188,85.8571875 C150.429188,85.5051875 150.189188,85.2331875 149.821188,85.2331875 C148.781188,85.2331875 147.581188,86.0651875 146.973188,87.4411875 L146.973188,85.8891875 C146.973188,85.5371875 146.701188,85.2651875 146.349187,85.2651875 C146.013188,85.2651875 145.741188,85.5531875 145.741188,85.8891875 L145.741188,93.0731875 Z M152.957187,89.0251875 L158.285188,89.0251875 C158.157187,87.5211875 157.293187,86.2091875 155.645187,86.2091875 C154.205187,86.2091875 153.117188,87.4091875 152.957187,89.0251875 Z M158.957187,92.5611875 C158.173187,93.3131875 157.245187,93.8091875 155.837187,93.8091875 C153.565187,93.8091875 151.709187,92.0651875 151.709187,89.5051875 L151.709187,89.4731875 C151.709187,87.0891875 153.389187,85.1691875 155.677188,85.1691875 C158.125187,85.1691875 159.517187,87.1691875 159.517187,89.3611875 C159.517187,89.6971875 159.245187,89.9371875 158.941188,89.9371875 L152.957187,89.9371875 C153.133187,91.7291875 154.397188,92.7371875 155.869188,92.7371875 C156.893188,92.7371875 157.645187,92.3371875 158.253187,91.7771875 C158.349187,91.6971875 158.461187,91.6331875 158.605187,91.6331875 C158.909188,91.6331875 159.149187,91.8731875 159.149187,92.1611875 C159.149187,92.3051875 159.085187,92.4491875 158.957187,92.5611875 Z M161.693188,82.9611875 C161.693188,83.3451875 162.013188,83.6171875 162.413188,83.6171875 C162.829188,83.6171875 163.149188,83.3451875 163.149188,82.9611875 L163.149188,82.7531875 C163.149188,82.3531875 162.829188,82.0971875 162.413188,82.0971875 C162.013188,82.0971875 161.693188,82.3531875 161.693188,82.7531875 L161.693188,82.9611875 Z M161.805187,93.0731875 C161.805187,93.4251875 162.077187,93.6971875 162.429187,93.6971875 C162.781187,93.6971875 163.037187,93.4251875 163.037187,93.0731875 L163.037187,85.8891875 C163.037187,85.5371875 162.765187,85.2651875 162.413187,85.2651875 C162.077187,85.2651875 161.805187,85.5531875 161.805187,85.8891875 L161.805187,93.0731875 Z M174.429188,93.8091875 C175.821188,93.8091875 176.765187,93.2651875 177.549188,92.4811875 C177.645188,92.3851875 177.709187,92.2411875 177.709187,92.0971875 C177.709187,91.8091875 177.453188,91.5371875 177.149187,91.5371875 C176.989188,91.5371875 176.877187,91.6171875 176.797188,91.6971875 C176.189188,92.2731875 175.437187,92.7051875 174.493187,92.7051875 C172.765187,92.7051875 171.453188,91.2811875 171.453188,89.4891875 L171.453188,89.4571875 C171.453188,87.6811875 172.733187,86.2571875 174.413187,86.2571875 C175.405188,86.2571875 176.077187,86.7051875 176.669187,87.2491875 C176.765187,87.3291875 176.909187,87.3931875 177.069187,87.3931875 C177.389187,87.3931875 177.661187,87.1371875 177.661187,86.8011875 C177.661187,86.6091875 177.565187,86.4491875 177.469187,86.3691875 C176.733187,85.6971875 175.805187,85.1691875 174.429188,85.1691875 C172.013188,85.1691875 170.189188,87.1531875 170.189188,89.4891875 L170.189188,89.5211875 C170.189188,91.8411875 172.013188,93.8091875 174.429188,93.8091875 Z M183.613187,93.8091875 C181.133187,93.8091875 179.325187,91.8571875 179.325187,89.5211875 L179.325187,89.4891875 C179.325187,87.1531875 181.149187,85.1691875 183.645187,85.1691875 C186.125187,85.1691875 187.949187,87.1211875 187.949187,89.4571875 L187.949187,89.4891875 C187.949187,91.8251875 186.109187,93.8091875 183.613187,93.8091875 Z M183.645188,92.7051875 C185.437188,92.7051875 186.685188,91.2651875 186.685188,89.5211875 L186.685188,89.4891875 C186.685188,87.7131875 185.357188,86.2571875 183.613188,86.2571875 C181.821188,86.2571875 180.589188,87.7131875 180.589188,89.4571875 L180.589188,89.4891875 C180.589188,91.2651875 181.901188,92.7051875 183.645188,92.7051875 Z M190.173187,93.0731875 C190.173187,93.4251875 190.445187,93.6971875 190.797187,93.6971875 C191.149187,93.6971875 191.405187,93.4251875 191.405187,93.0731875 L191.405187,88.8971875 C191.405187,87.3771875 192.397187,86.2891875 193.709187,86.2891875 C195.021187,86.2891875 195.837187,87.2011875 195.837187,88.7531875 L195.837187,93.0731875 C195.837187,93.4251875 196.109187,93.6971875 196.445187,93.6971875 C196.797187,93.6971875 197.069187,93.4251875 197.069187,93.0731875 L197.069187,88.8491875 C197.069187,87.2171875 198.093187,86.2891875 199.341187,86.2891875 C200.685187,86.2891875 201.485187,87.1851875 201.485187,88.7851875 L201.485187,93.0731875 C201.485187,93.4251875 201.757187,93.6971875 202.109187,93.6971875 C202.445187,93.6971875 202.717187,93.4251875 202.717187,93.0731875 L202.717187,88.4971875 C202.717187,86.4491875 201.549187,85.1691875 199.645187,85.1691875 C198.205187,85.1691875 197.325187,85.9051875 196.733187,86.8171875 C196.285187,85.8891875 195.421187,85.1691875 194.077187,85.1691875 C192.685187,85.1691875 191.949187,85.9211875 191.405187,86.7371875 L191.405187,85.8891875 C191.405187,85.5371875 191.133187,85.2651875 190.781187,85.2651875 C190.445187,85.2651875 190.173187,85.5531875 190.173187,85.8891875 L190.173187,93.0731875 Z M205.389187,95.6331875 L205.389187,85.8891875 C205.389187,85.5371875 205.661187,85.2651875 205.997187,85.2651875 C206.349187,85.2651875 206.621187,85.5371875 206.621187,85.8891875 L206.621187,87.0091875 C207.293187,86.0171875 208.269187,85.1691875 209.789187,85.1691875 C211.773187,85.1691875 213.741187,86.7371875 213.741187,89.4571875 L213.741187,89.4891875 C213.741187,92.1931875 211.789187,93.7931875 209.789187,93.7931875 C208.253187,93.7931875 207.261187,92.9611875 206.621187,92.0331875 L206.621187,95.6331875 C206.621187,95.9851875 206.365187,96.2571875 206.013187,96.2571875 C205.661187,96.2571875 205.389187,95.9851875 205.389187,95.6331875 Z M209.565188,92.6891875 C211.165188,92.6891875 212.477188,91.5051875 212.477188,89.5051875 L212.477188,89.4731875 C212.477188,87.5211875 211.133188,86.2731875 209.565188,86.2731875 C208.029188,86.2731875 206.573188,87.5691875 206.573188,89.4571875 L206.573188,89.4891875 C206.573188,91.4091875 208.029188,92.6891875 209.565188,92.6891875 Z M216.013188,93.0731875 C216.013188,93.4251875 216.285188,93.6971875 216.637188,93.6971875 C216.989188,93.6971875 217.245188,93.4091875 217.245188,93.0731875 L217.245188,90.2571875 C217.245188,87.8731875 218.557187,86.6731875 220.157188,86.4811875 C220.477188,86.4331875 220.701188,86.1931875 220.701188,85.8571875 C220.701188,85.5051875 220.461188,85.2331875 220.093187,85.2331875 C219.053188,85.2331875 217.853188,86.0651875 217.245188,87.4411875 L217.245188,85.8891875 C217.245188,85.5371875 216.973188,85.2651875 216.621188,85.2651875 C216.285188,85.2651875 216.013188,85.5531875 216.013188,85.8891875 L216.013188,93.0731875 Z M224.957187,93.7931875 C223.421187,93.7931875 221.869187,92.9131875 221.869187,91.2171875 L221.869187,91.1851875 C221.869187,89.4411875 223.309187,88.5131875 225.405187,88.5131875 C226.461187,88.5131875 227.213187,88.6571875 227.949187,88.8651875 L227.949187,88.5771875 C227.949187,87.0891875 227.037187,86.3211875 225.485187,86.3211875 C224.653187,86.3211875 223.949187,86.5131875 223.341187,86.7851875 C223.261187,86.8171875 223.181187,86.8331875 223.117187,86.8331875 C222.829187,86.8331875 222.573187,86.5931875 222.573187,86.3051875 C222.573187,86.0491875 222.749187,85.8571875 222.909187,85.7931875 C223.725187,85.4411875 224.557187,85.2331875 225.613187,85.2331875 C226.781187,85.2331875 227.677187,85.5371875 228.285187,86.1451875 C228.845187,86.7051875 229.133187,87.5051875 229.133187,88.5611875 L229.133187,93.0891875 C229.133187,93.4411875 228.877187,93.6971875 228.541187,93.6971875 C228.189187,93.6971875 227.949187,93.4411875 227.949187,93.1211875 L227.949187,92.3691875 C227.373187,93.1211875 226.413187,93.7931875 224.957187,93.7931875 Z M225.197187,92.8171875 C226.717187,92.8171875 227.965187,91.8891875 227.965187,90.5771875 L227.965187,89.7771875 C227.357187,89.6011875 226.541187,89.4251875 225.533187,89.4251875 C223.981187,89.4251875 223.117187,90.0971875 223.117187,91.1371875 L223.117187,91.1691875 C223.117187,92.2091875 224.077187,92.8171875 225.197187,92.8171875 Z M231.757187,93.0731875 C231.757187,93.4251875 232.029187,93.6971875 232.381187,93.6971875 C232.733187,93.6971875 232.989187,93.4251875 232.989187,93.0731875 L232.989187,88.8811875 C232.989187,87.3291875 234.045187,86.2891875 235.469187,86.2891875 C236.925187,86.2891875 237.757187,87.2491875 237.757187,88.7851875 L237.757187,93.0731875 C237.757187,93.4251875 238.029187,93.6971875 238.381187,93.6971875 C238.717187,93.6971875 238.989187,93.4251875 238.989187,93.0731875 L238.989187,88.4811875 C238.989187,86.5131875 237.821187,85.1691875 235.821187,85.1691875 C234.397187,85.1691875 233.533187,85.8891875 232.989187,86.7851875 L232.989187,85.8891875 C232.989187,85.5371875 232.717187,85.2651875 232.365187,85.2651875 C232.029187,85.2651875 231.757187,85.5531875 231.757187,85.8891875 L231.757187,93.0731875 Z M249.485188,82.4811875 L249.485188,93.0731875 C249.485188,93.4251875 249.213188,93.6971875 248.877188,93.6971875 C248.525188,93.6971875 248.253188,93.4251875 248.253188,93.0731875 L248.253188,91.9531875 C247.581188,92.9451875 246.605188,93.7931875 245.085188,93.7931875 C243.101188,93.7931875 241.133188,92.2251875 241.133188,89.5051875 L241.133188,89.4731875 C241.133188,86.7691875 243.101188,85.1691875 245.085188,85.1691875 C246.621188,85.1691875 247.613188,86.0011875 248.253188,86.9291875 L248.253188,82.4811875 C248.253188,82.1291875 248.509188,81.8571875 248.861188,81.8571875 C249.213188,81.8571875 249.485188,82.1291875 249.485188,82.4811875 Z M245.309188,86.2731875 C243.709188,86.2731875 242.397188,87.4571875 242.397188,89.4571875 L242.397188,89.4891875 C242.397188,91.4411875 243.757188,92.6891875 245.309188,92.6891875 C246.845188,92.6891875 248.301187,91.3931875 248.301187,89.4891875 L248.301187,89.4571875 C248.301187,87.5531875 246.845188,86.2731875 245.309188,86.2731875 Z M256.013187,93.8091875 C253.533187,93.8091875 251.725188,91.8571875 251.725188,89.5211875 L251.725188,89.4891875 C251.725188,87.1531875 253.549187,85.1691875 256.045187,85.1691875 C258.525188,85.1691875 260.349187,87.1211875 260.349187,89.4571875 L260.349187,89.4891875 C260.349187,91.8251875 258.509187,93.8091875 256.013187,93.8091875 Z M256.045187,92.7051875 C257.837187,92.7051875 259.085187,91.2651875 259.085187,89.5211875 L259.085187,89.4891875 C259.085187,87.7131875 257.757187,86.2571875 256.013187,86.2571875 C254.221187,86.2571875 252.989187,87.7131875 252.989187,89.4571875 L252.989187,89.4891875 C252.989187,91.2651875 254.301187,92.7051875 256.045187,92.7051875 Z M262.397187,92.6091875 L262.397187,92.9291875 C262.397187,93.3611875 262.717188,93.6971875 263.165188,93.6971875 C263.597188,93.6971875 263.917187,93.3611875 263.917187,92.9291875 L263.917187,92.6091875 C263.917187,92.1771875 263.597188,91.8571875 263.165188,91.8571875 C262.717188,91.8571875 262.397187,92.1771875 262.397187,92.6091875 Z M67.8211875,118.809188 C69.6611875,118.809188 70.8771875,118.169188 71.9811875,117.161188 C72.0931875,117.065188 72.1891875,116.905188 72.1891875,116.713188 C72.1891875,116.393188 71.9011875,116.105188 71.5811875,116.105188 C71.4211875,116.105188 71.2771875,116.185188 71.1811875,116.281188 C70.2211875,117.161188 69.2451875,117.641188 67.8531875,117.641188 C65.3891875,117.641188 63.5171875,115.609188 63.5171875,113.017188 L63.5171875,112.985188 C63.5171875,110.409188 65.3731875,108.393188 67.8531875,108.393188 C69.2291875,108.393188 70.2051875,108.905188 71.0691875,109.673188 C71.1651875,109.737188 71.3091875,109.817188 71.4851875,109.817188 C71.8211875,109.817188 72.1251875,109.529188 72.1251875,109.193188 C72.1251875,108.969188 71.9971875,108.793188 71.8691875,108.681188 C70.8291875,107.817188 69.6771875,107.225188 67.8691875,107.225188 C64.5731875,107.225188 62.2051875,109.849188 62.2051875,113.017188 L62.2051875,113.049188 C62.2051875,116.265188 64.5891875,118.809188 67.8211875,118.809188 Z M78.0771875,118.809188 C75.5971875,118.809188 73.7891875,116.857188 73.7891875,114.521188 L73.7891875,114.489188 C73.7891875,112.153188 75.6131875,110.169188 78.1091875,110.169188 C80.5891875,110.169188 82.4131875,112.121188 82.4131875,114.457188 L82.4131875,114.489188 C82.4131875,116.825188 80.5731875,118.809188 78.0771875,118.809188 Z M78.1091875,117.705188 C79.9011875,117.705188 81.1491875,116.265188 81.1491875,114.521188 L81.1491875,114.489188 C81.1491875,112.713188 79.8211875,111.257188 78.0771875,111.257188 C76.2851875,111.257188 75.0531875,112.713188 75.0531875,114.457188 L75.0531875,114.489188 C75.0531875,116.265188 76.3651875,117.705188 78.1091875,117.705188 Z M84.6371875,118.073188 C84.6371875,118.425188 84.9091875,118.697188 85.2611875,118.697188 C85.6131875,118.697188 85.8691875,118.409188 85.8691875,118.073188 L85.8691875,115.257188 C85.8691875,112.873188 87.1811875,111.673188 88.7811875,111.481188 C89.1011875,111.433188 89.3251875,111.193188 89.3251875,110.857188 C89.3251875,110.505188 89.0851875,110.233188 88.7171875,110.233188 C87.6771875,110.233188 86.4771875,111.065188 85.8691875,112.441188 L85.8691875,110.889188 C85.8691875,110.537188 85.5971875,110.265188 85.2451875,110.265188 C84.9091875,110.265188 84.6371875,110.553188 84.6371875,110.889188 L84.6371875,118.073188 Z M91.1171875,118.073188 C91.1171875,118.425188 91.3891875,118.697188 91.7411875,118.697188 C92.0931875,118.697188 92.3491875,118.409188 92.3491875,118.073188 L92.3491875,115.257188 C92.3491875,112.873188 93.6611875,111.673188 95.2611875,111.481188 C95.5811875,111.433188 95.8051875,111.193188 95.8051875,110.857188 C95.8051875,110.505188 95.5651875,110.233188 95.1971875,110.233188 C94.1571875,110.233188 92.9571875,111.065188 92.3491875,112.441188 L92.3491875,110.889188 C92.3491875,110.537188 92.0771875,110.265188 91.7251875,110.265188 C91.3891875,110.265188 91.1171875,110.553188 91.1171875,110.889188 L91.1171875,118.073188 Z M98.3331875,114.025188 L103.661188,114.025188 C103.533188,112.521188 102.669188,111.209188 101.021188,111.209188 C99.5811875,111.209188 98.4931875,112.409188 98.3331875,114.025188 Z M104.333188,117.561188 C103.549188,118.313188 102.621188,118.809188 101.213188,118.809188 C98.9411875,118.809188 97.0851875,117.065188 97.0851875,114.505188 L97.0851875,114.473188 C97.0851875,112.089188 98.7651875,110.169188 101.053188,110.169188 C103.501188,110.169188 104.893188,112.169188 104.893188,114.361188 C104.893188,114.697188 104.621188,114.937188 104.317188,114.937188 L98.3331875,114.937188 C98.5091875,116.729188 99.7731875,117.737188 101.245188,117.737188 C102.269188,117.737188 103.021188,117.337188 103.629188,116.777188 C103.725188,116.697188 103.837188,116.633188 103.981188,116.633188 C104.285188,116.633188 104.525188,116.873188 104.525188,117.161188 C104.525188,117.305188 104.461188,117.449188 104.333188,117.561188 Z M109.837188,118.761188 C110.317188,118.761188 110.701188,118.681188 111.053188,118.537188 C111.261188,118.457188 111.405188,118.281188 111.405188,118.057188 C111.405188,117.769188 111.165188,117.529188 110.877188,117.529188 C110.781188,117.529188 110.557188,117.641188 110.125188,117.641188 C109.293188,117.641188 108.733188,117.273188 108.733188,116.265188 L108.733188,111.433188 L110.877188,111.433188 C111.181188,111.433188 111.437188,111.193188 111.437188,110.889188 C111.437188,110.601188 111.181188,110.345188 110.877188,110.345188 L108.733188,110.345188 L108.733188,108.393188 C108.733188,108.057188 108.445188,107.769188 108.109188,107.769188 C107.757188,107.769188 107.501188,108.057188 107.501188,108.393188 L107.501188,110.345188 L106.829188,110.345188 C106.541188,110.345188 106.285188,110.585188 106.285188,110.889188 C106.285188,111.177188 106.541188,111.433188 106.829188,111.433188 L107.501188,111.433188 L107.501188,116.425188 C107.501188,118.105188 108.509188,118.761188 109.837188,118.761188 Z M117.309188,118.809188 C114.829188,118.809188 113.021188,116.857188 113.021188,114.521188 L113.021188,114.489188 C113.021188,112.153188 114.845188,110.169188 117.341188,110.169188 C119.821188,110.169188 121.645188,112.121188 121.645188,114.457188 L121.645188,114.489188 C121.645188,116.825188 119.805188,118.809188 117.309188,118.809188 Z M117.341188,117.705188 C119.133188,117.705188 120.381188,116.265188 120.381188,114.521188 L120.381188,114.489188 C120.381188,112.713188 119.053188,111.257188 117.309188,111.257188 C115.517188,111.257188 114.285188,112.713188 114.285188,114.457188 L114.285188,114.489188 C114.285188,116.265188 115.597188,117.705188 117.341188,117.705188 Z M123.213188,120.217188 C123.213188,120.409188 123.341188,120.537188 123.549188,120.537188 C123.805188,120.537188 124.301188,120.297188 124.637188,119.961188 C125.005188,119.593188 125.213188,119.001188 125.213188,118.041188 L125.213188,117.737188 C125.213188,117.209188 124.893188,116.857188 124.429188,116.857188 C123.997188,116.857188 123.693188,117.177188 123.693188,117.593188 L123.693188,117.849188 C123.693188,118.281188 123.981188,118.537188 124.317188,118.617188 C124.349188,119.241188 124.077188,119.641188 123.421188,119.929188 C123.293188,119.977188 123.213188,120.089188 123.213188,120.217188 Z M132.589188,120.633187 L132.589188,110.889187 C132.589188,110.537188 132.861187,110.265187 133.197188,110.265187 C133.549188,110.265187 133.821188,110.537188 133.821188,110.889187 L133.821188,112.009187 C134.493188,111.017188 135.469188,110.169187 136.989188,110.169187 C138.973188,110.169187 140.941188,111.737188 140.941188,114.457188 L140.941188,114.489187 C140.941188,117.193187 138.989188,118.793188 136.989188,118.793188 C135.453188,118.793188 134.461188,117.961187 133.821188,117.033187 L133.821188,120.633187 C133.821188,120.985187 133.565188,121.257188 133.213188,121.257188 C132.861187,121.257188 132.589188,120.985187 132.589188,120.633187 Z M136.765188,117.689188 C138.365188,117.689188 139.677188,116.505188 139.677188,114.505188 L139.677188,114.473188 C139.677188,112.521188 138.333188,111.273188 136.765188,111.273188 C135.229188,111.273188 133.773188,112.569188 133.773188,114.457188 L133.773188,114.489188 C133.773188,116.409188 135.229188,117.689188 136.765188,117.689188 Z M146.989188,118.809188 C144.509188,118.809188 142.701188,116.857188 142.701188,114.521188 L142.701188,114.489188 C142.701188,112.153188 144.525188,110.169188 147.021188,110.169188 C149.501188,110.169188 151.325187,112.121188 151.325187,114.457188 L151.325187,114.489188 C151.325187,116.825188 149.485188,118.809188 146.989188,118.809188 Z M147.021187,117.705188 C148.813187,117.705188 150.061187,116.265188 150.061187,114.521188 L150.061187,114.489188 C150.061187,112.713188 148.733187,111.257188 146.989187,111.257188 C145.197187,111.257188 143.965187,112.713188 143.965187,114.457188 L143.965187,114.489188 C143.965187,116.265188 145.277187,117.705188 147.021187,117.705188 Z M153.549188,118.073188 C153.549188,118.425187 153.821188,118.697187 154.173188,118.697187 C154.525188,118.697187 154.781188,118.425187 154.781188,118.073188 L154.781188,113.881188 C154.781188,112.329188 155.837187,111.289187 157.261188,111.289187 C158.717187,111.289187 159.549188,112.249188 159.549188,113.785188 L159.549188,118.073188 C159.549188,118.425187 159.821188,118.697187 160.173188,118.697187 C160.509188,118.697187 160.781188,118.425187 160.781188,118.073188 L160.781188,113.481188 C160.781188,111.513188 159.613188,110.169187 157.613188,110.169187 C156.189188,110.169187 155.325187,110.889187 154.781188,111.785188 L154.781188,110.889187 C154.781188,110.537188 154.509188,110.265187 154.157187,110.265187 C153.821188,110.265187 153.549188,110.553188 153.549188,110.889187 L153.549188,118.073188 Z M166.173187,118.761188 C166.653187,118.761188 167.037187,118.681188 167.389187,118.537188 C167.597187,118.457188 167.741187,118.281188 167.741187,118.057188 C167.741187,117.769188 167.501187,117.529188 167.213187,117.529188 C167.117187,117.529188 166.893187,117.641188 166.461187,117.641188 C165.629187,117.641188 165.069187,117.273188 165.069187,116.265188 L165.069187,111.433188 L167.213187,111.433188 C167.517187,111.433188 167.773187,111.193188 167.773187,110.889188 C167.773187,110.601188 167.517187,110.345188 167.213187,110.345188 L165.069187,110.345188 L165.069187,108.393188 C165.069187,108.057188 164.781187,107.769188 164.445187,107.769188 C164.093187,107.769188 163.837187,108.057188 163.837187,108.393188 L163.837187,110.345188 L163.165187,110.345188 C162.877187,110.345188 162.621187,110.585188 162.621187,110.889188 C162.621187,111.177188 162.877187,111.433188 163.165187,111.433188 L163.837187,111.433188 L163.837187,116.425188 C163.837187,118.105188 164.845187,118.761188 166.173187,118.761188 Z M176.957188,110.889187 C176.957188,110.537188 176.685188,110.265187 176.349187,110.265187 C175.997188,110.265187 175.741187,110.537188 175.741187,110.889187 L175.741187,115.081187 C175.741187,116.633187 174.669187,117.673187 173.261188,117.673187 C171.805188,117.673187 170.973188,116.713188 170.973188,115.177188 L170.973188,110.889187 C170.973188,110.537188 170.685188,110.265187 170.349187,110.265187 C169.997188,110.265187 169.741187,110.537188 169.741187,110.889187 L169.741187,115.481188 C169.741187,117.449187 170.909188,118.793188 172.909188,118.793188 C174.333188,118.793188 175.181187,118.073188 175.741187,117.177188 L175.741187,118.073188 C175.741187,118.425187 176.013187,118.697187 176.349187,118.697187 C176.701188,118.697187 176.957188,118.409188 176.957188,118.073188 L176.957188,110.889187 Z M182.189187,118.793188 C180.653187,118.793188 179.101187,117.913188 179.101187,116.217188 L179.101187,116.185188 C179.101187,114.441188 180.541187,113.513188 182.637187,113.513188 C183.693187,113.513188 184.445187,113.657188 185.181187,113.865188 L185.181187,113.577188 C185.181187,112.089188 184.269187,111.321188 182.717187,111.321188 C181.885187,111.321188 181.181187,111.513188 180.573187,111.785188 C180.493187,111.817188 180.413187,111.833188 180.349187,111.833188 C180.061187,111.833188 179.805187,111.593188 179.805187,111.305188 C179.805187,111.049188 179.981187,110.857188 180.141187,110.793188 C180.957187,110.441188 181.789187,110.233188 182.845187,110.233188 C184.013187,110.233188 184.909187,110.537188 185.517187,111.145188 C186.077187,111.705188 186.365187,112.505188 186.365187,113.561188 L186.365187,118.089188 C186.365187,118.441188 186.109187,118.697188 185.773187,118.697188 C185.421187,118.697188 185.181187,118.441188 185.181187,118.121188 L185.181187,117.369188 C184.605187,118.121188 183.645187,118.793188 182.189187,118.793188 Z M182.429187,117.817188 C183.949187,117.817188 185.197187,116.889188 185.197187,115.577188 L185.197187,114.777188 C184.589187,114.601188 183.773187,114.425188 182.765187,114.425188 C181.213187,114.425188 180.349187,115.097188 180.349187,116.137188 L180.349187,116.169188 C180.349187,117.209188 181.309187,117.817188 182.429187,117.817188 Z M189.101187,118.073188 C189.101187,118.425188 189.373187,118.697188 189.725187,118.697188 C190.077187,118.697188 190.333188,118.425188 190.333188,118.073188 L190.333188,107.481188 C190.333188,107.145188 190.061187,106.857188 189.709187,106.857188 C189.373187,106.857188 189.101187,107.145188 189.101187,107.481188 L189.101187,118.073188 Z M198.733187,114.025188 L204.061187,114.025188 C203.933188,112.521188 203.069187,111.209188 201.421188,111.209188 C199.981188,111.209188 198.893187,112.409188 198.733187,114.025188 Z M204.733188,117.561188 C203.949188,118.313188 203.021188,118.809188 201.613188,118.809188 C199.341188,118.809188 197.485188,117.065188 197.485188,114.505188 L197.485188,114.473188 C197.485188,112.089188 199.165188,110.169188 201.453188,110.169188 C203.901188,110.169188 205.293188,112.169188 205.293188,114.361188 C205.293188,114.697188 205.021188,114.937188 204.717188,114.937188 L198.733188,114.937188 C198.909188,116.729188 200.173188,117.737188 201.645188,117.737188 C202.669188,117.737188 203.421188,117.337188 204.029188,116.777188 C204.125188,116.697188 204.237188,116.633188 204.381188,116.633188 C204.685188,116.633188 204.925188,116.873188 204.925188,117.161188 C204.925188,117.305188 204.861188,117.449188 204.733188,117.561188 Z M215.005188,118.777188 C216.653188,118.777188 217.949188,117.865188 217.949188,116.297188 L217.949188,116.265188 C217.949188,114.777188 216.573188,114.281188 215.293188,113.897188 C214.189188,113.561188 213.165188,113.257188 213.165188,112.473188 L213.165188,112.441188 C213.165188,111.753188 213.789187,111.241188 214.765188,111.241188 C215.469188,111.241188 216.221188,111.481188 216.925188,111.881188 C216.989188,111.913188 217.085188,111.945188 217.197188,111.945188 C217.501188,111.945188 217.741188,111.705188 217.741188,111.417188 C217.741188,111.177188 217.597188,111.001188 217.437188,110.905188 C216.637188,110.473188 215.677188,110.201188 214.797188,110.201188 C213.165188,110.201188 211.981188,111.145188 211.981188,112.569188 L211.981188,112.601188 C211.981188,114.121188 213.421188,114.569188 214.717188,114.937188 C215.805188,115.241188 216.781188,115.561188 216.781188,116.393188 L216.781188,116.425188 C216.781188,117.225188 216.061188,117.737188 215.069187,117.737188 C214.173188,117.737188 213.293188,117.433188 212.445188,116.857188 C212.365188,116.793188 212.253188,116.761188 212.141188,116.761188 C211.837187,116.761188 211.597188,117.001188 211.597188,117.289188 C211.597188,117.497188 211.709188,117.657188 211.821188,117.737188 C212.717188,118.377188 213.917188,118.777188 215.005188,118.777188 Z M220.973188,114.025188 L226.301188,114.025188 C226.173188,112.521188 225.309188,111.209188 223.661188,111.209188 C222.221188,111.209188 221.133188,112.409188 220.973188,114.025188 Z M226.973188,117.561188 C226.189188,118.313188 225.261188,118.809188 223.853188,118.809188 C221.581188,118.809188 219.725188,117.065188 219.725188,114.505188 L219.725188,114.473188 C219.725188,112.089188 221.405188,110.169188 223.693188,110.169188 C226.141188,110.169188 227.533188,112.169188 227.533188,114.361188 C227.533188,114.697188 227.261188,114.937188 226.957188,114.937188 L220.973188,114.937188 C221.149188,116.729188 222.413188,117.737188 223.885188,117.737188 C224.909188,117.737188 225.661188,117.337188 226.269188,116.777188 C226.365188,116.697188 226.477188,116.633188 226.621188,116.633188 C226.925188,116.633188 227.165188,116.873188 227.165188,117.161188 C227.165188,117.305188 227.101188,117.449188 226.973188,117.561188 Z M229.709188,118.073188 C229.709188,118.425187 229.981188,118.697187 230.333188,118.697187 C230.685188,118.697187 230.941188,118.425187 230.941188,118.073188 L230.941188,113.897188 C230.941188,112.377187 231.933188,111.289187 233.245188,111.289187 C234.557188,111.289187 235.373188,112.201188 235.373188,113.753187 L235.373188,118.073188 C235.373188,118.425187 235.645188,118.697187 235.981188,118.697187 C236.333188,118.697187 236.605188,118.425187 236.605188,118.073188 L236.605188,113.849187 C236.605188,112.217187 237.629188,111.289187 238.877188,111.289187 C240.221188,111.289187 241.021188,112.185187 241.021188,113.785188 L241.021188,118.073188 C241.021188,118.425187 241.293188,118.697187 241.645188,118.697187 C241.981188,118.697187 242.253188,118.425187 242.253188,118.073188 L242.253188,113.497187 C242.253188,111.449187 241.085188,110.169187 239.181188,110.169187 C237.741188,110.169187 236.861188,110.905187 236.269188,111.817188 C235.821188,110.889187 234.957188,110.169187 233.613188,110.169187 C232.221188,110.169187 231.485188,110.921188 230.941188,111.737188 L230.941188,110.889187 C230.941188,110.537188 230.669188,110.265187 230.317188,110.265187 C229.981188,110.265187 229.709188,110.553188 229.709188,110.889187 L229.709188,118.073188 Z M244.925188,120.633187 L244.925188,110.889187 C244.925188,110.537188 245.197188,110.265187 245.533188,110.265187 C245.885188,110.265187 246.157188,110.537188 246.157188,110.889187 L246.157188,112.009187 C246.829188,111.017188 247.805188,110.169187 249.325188,110.169187 C251.309188,110.169187 253.277188,111.737188 253.277188,114.457188 L253.277188,114.489187 C253.277188,117.193187 251.325188,118.793188 249.325188,118.793188 C247.789188,118.793188 246.797188,117.961187 246.157188,117.033187 L246.157188,120.633187 C246.157188,120.985187 245.901188,121.257188 245.549188,121.257188 C245.197188,121.257188 244.925188,120.985187 244.925188,120.633187 Z M249.101188,117.689188 C250.701188,117.689188 252.013188,116.505188 252.013188,114.505188 L252.013188,114.473188 C252.013188,112.521188 250.669188,111.273188 249.101188,111.273188 C247.565188,111.273188 246.109188,112.569188 246.109188,114.457188 L246.109188,114.489188 C246.109188,116.409188 247.565188,117.689188 249.101188,117.689188 Z M255.549188,118.073188 C255.549188,118.425188 255.821188,118.697188 256.173188,118.697188 C256.525188,118.697188 256.781187,118.409188 256.781187,118.073188 L256.781187,115.257188 C256.781187,112.873188 258.093187,111.673188 259.693188,111.481188 C260.013187,111.433188 260.237188,111.193188 260.237188,110.857188 C260.237188,110.505188 259.997187,110.233188 259.629187,110.233188 C258.589187,110.233188 257.389188,111.065188 256.781187,112.441188 L256.781187,110.889188 C256.781187,110.537188 256.509188,110.265188 256.157187,110.265188 C255.821188,110.265188 255.549188,110.553188 255.549188,110.889188 L255.549188,118.073188 Z M262.765188,114.025188 L268.093187,114.025188 C267.965188,112.521188 267.101188,111.209188 265.453188,111.209188 C264.013188,111.209188 262.925187,112.409188 262.765188,114.025188 Z M268.765188,117.561188 C267.981188,118.313188 267.053188,118.809188 265.645188,118.809188 C263.373187,118.809188 261.517187,117.065188 261.517187,114.505188 L261.517187,114.473188 C261.517187,112.089188 263.197188,110.169188 265.485187,110.169188 C267.933188,110.169188 269.325187,112.169188 269.325187,114.361188 C269.325187,114.697188 269.053188,114.937188 268.749187,114.937188 L262.765188,114.937188 C262.941187,116.729188 264.205187,117.737188 265.677187,117.737188 C266.701187,117.737188 267.453188,117.337188 268.061187,116.777188 C268.157187,116.697188 268.269188,116.633188 268.413187,116.633188 C268.717188,116.633188 268.957188,116.873188 268.957188,117.161188 C268.957188,117.305188 268.893187,117.449188 268.765188,117.561188 Z M278.765188,118.793188 C277.229188,118.793188 275.677188,117.913188 275.677188,116.217188 L275.677188,116.185188 C275.677188,114.441188 277.117188,113.513188 279.213188,113.513188 C280.269188,113.513188 281.021187,113.657188 281.757187,113.865188 L281.757187,113.577188 C281.757187,112.089188 280.845188,111.321188 279.293188,111.321188 C278.461188,111.321188 277.757187,111.513188 277.149188,111.785188 C277.069187,111.817188 276.989188,111.833188 276.925187,111.833188 C276.637187,111.833188 276.381188,111.593188 276.381188,111.305188 C276.381188,111.049188 276.557188,110.857188 276.717188,110.793188 C277.533188,110.441188 278.365188,110.233188 279.421188,110.233188 C280.589187,110.233188 281.485188,110.537188 282.093187,111.145188 C282.653188,111.705188 282.941188,112.505188 282.941188,113.561188 L282.941188,118.089188 C282.941188,118.441188 282.685187,118.697188 282.349188,118.697188 C281.997187,118.697188 281.757187,118.441188 281.757187,118.121188 L281.757187,117.369188 C281.181188,118.121188 280.221188,118.793188 278.765188,118.793188 Z M279.005188,117.817188 C280.525188,117.817188 281.773188,116.889188 281.773188,115.577188 L281.773188,114.777188 C281.165188,114.601188 280.349188,114.425188 279.341188,114.425188 C277.789188,114.425188 276.925187,115.097188 276.925187,116.137188 L276.925187,116.169188 C276.925187,117.209188 277.885188,117.817188 279.005188,117.817188 Z M70.3651875,132.481188 L70.3651875,143.073188 C70.3651875,143.425187 70.0931875,143.697187 69.7571875,143.697187 C69.4051875,143.697187 69.1331875,143.425187 69.1331875,143.073188 L69.1331875,141.953188 C68.4611875,142.945188 67.4851875,143.793187 65.9651875,143.793187 C63.9811875,143.793187 62.0131875,142.225188 62.0131875,139.505188 L62.0131875,139.473187 C62.0131875,136.769187 63.9811875,135.169188 65.9651875,135.169188 C67.5011875,135.169188 68.4931875,136.001188 69.1331875,136.929188 L69.1331875,132.481188 C69.1331875,132.129188 69.3891875,131.857188 69.7411875,131.857188 C70.0931875,131.857188 70.3651875,132.129188 70.3651875,132.481188 Z M66.1891875,136.273188 C64.5891875,136.273188 63.2771875,137.457187 63.2771875,139.457187 L63.2771875,139.489188 C63.2771875,141.441188 64.6371875,142.689188 66.1891875,142.689188 C67.7251875,142.689188 69.1811875,141.393188 69.1811875,139.489188 L69.1811875,139.457187 C69.1811875,137.553187 67.7251875,136.273188 66.1891875,136.273188 Z M73.1171875,132.961187 C73.1171875,133.345188 73.4371875,133.617188 73.8371875,133.617188 C74.2531875,133.617188 74.5731875,133.345188 74.5731875,132.961187 L74.5731875,132.753188 C74.5731875,132.353187 74.2531875,132.097188 73.8371875,132.097188 C73.4371875,132.097188 73.1171875,132.353187 73.1171875,132.753188 L73.1171875,132.961187 Z M73.2291875,143.073188 C73.2291875,143.425187 73.5011875,143.697187 73.8531875,143.697187 C74.2051875,143.697187 74.4611875,143.425187 74.4611875,143.073188 L74.4611875,135.889187 C74.4611875,135.537188 74.1891875,135.265188 73.8371875,135.265188 C73.5011875,135.265188 73.2291875,135.553188 73.2291875,135.889187 L73.2291875,143.073188 Z M80.0611875,143.777188 C81.7091875,143.777188 83.0051875,142.865187 83.0051875,141.297188 L83.0051875,141.265188 C83.0051875,139.777188 81.6291875,139.281187 80.3491875,138.897188 C79.2451875,138.561188 78.2211875,138.257187 78.2211875,137.473187 L78.2211875,137.441188 C78.2211875,136.753188 78.8451875,136.241188 79.8211875,136.241188 C80.5251875,136.241188 81.2771875,136.481188 81.9811875,136.881188 C82.0451875,136.913187 82.1411875,136.945188 82.2531875,136.945188 C82.5571875,136.945188 82.7971875,136.705188 82.7971875,136.417188 C82.7971875,136.177188 82.6531875,136.001188 82.4931875,135.905188 C81.6931875,135.473187 80.7331875,135.201188 79.8531875,135.201188 C78.2211875,135.201188 77.0371875,136.145188 77.0371875,137.569187 L77.0371875,137.601187 C77.0371875,139.121188 78.4771875,139.569187 79.7731875,139.937187 C80.8611875,140.241188 81.8371875,140.561188 81.8371875,141.393188 L81.8371875,141.425187 C81.8371875,142.225188 81.1171875,142.737188 80.1251875,142.737188 C79.2291875,142.737188 78.3491875,142.433188 77.5011875,141.857188 C77.4211875,141.793187 77.3091875,141.761188 77.1971875,141.761188 C76.8931875,141.761188 76.6531875,142.001188 76.6531875,142.289188 C76.6531875,142.497187 76.7651875,142.657188 76.8771875,142.737188 C77.7731875,143.377187 78.9731875,143.777188 80.0611875,143.777188 Z M85.2931875,145.633188 L85.2931875,135.889187 C85.2931875,135.537188 85.5651875,135.265188 85.9011875,135.265188 C86.2531875,135.265188 86.5251875,135.537188 86.5251875,135.889187 L86.5251875,137.009187 C87.1971875,136.017188 88.1731875,135.169188 89.6931875,135.169188 C91.6771875,135.169188 93.6451875,136.737188 93.6451875,139.457188 L93.6451875,139.489188 C93.6451875,142.193188 91.6931875,143.793187 89.6931875,143.793187 C88.1571875,143.793187 87.1651875,142.961187 86.5251875,142.033187 L86.5251875,145.633188 C86.5251875,145.985187 86.2691875,146.257187 85.9171875,146.257187 C85.5651875,146.257187 85.2931875,145.985187 85.2931875,145.633188 Z M89.4691875,142.689188 C91.0691875,142.689188 92.3811875,141.505187 92.3811875,139.505187 L92.3811875,139.473187 C92.3811875,137.521187 91.0371875,136.273188 89.4691875,136.273188 C87.9331875,136.273188 86.4771875,137.569187 86.4771875,139.457187 L86.4771875,139.489188 C86.4771875,141.409187 87.9331875,142.689188 89.4691875,142.689188 Z M99.6931875,143.809188 C97.2131875,143.809188 95.4051875,141.857188 95.4051875,139.521187 L95.4051875,139.489188 C95.4051875,137.153188 97.2291875,135.169188 99.7251875,135.169188 C102.205188,135.169188 104.029188,137.121188 104.029188,139.457188 L104.029188,139.489188 C104.029188,141.825188 102.189188,143.809188 99.6931875,143.809188 Z M99.7251875,142.705188 C101.517188,142.705188 102.765188,141.265188 102.765188,139.521187 L102.765188,139.489188 C102.765188,137.713188 101.437188,136.257187 99.6931875,136.257187 C97.9011875,136.257187 96.6691875,137.713188 96.6691875,139.457188 L96.6691875,139.489188 C96.6691875,141.265188 97.9811875,142.705188 99.7251875,142.705188 Z M108.989188,143.777188 C110.637188,143.777188 111.933188,142.865187 111.933188,141.297188 L111.933188,141.265188 C111.933188,139.777188 110.557188,139.281187 109.277188,138.897188 C108.173188,138.561188 107.149188,138.257187 107.149188,137.473187 L107.149188,137.441188 C107.149188,136.753188 107.773188,136.241188 108.749188,136.241188 C109.453188,136.241188 110.205188,136.481188 110.909188,136.881188 C110.973188,136.913187 111.069188,136.945188 111.181188,136.945188 C111.485188,136.945188 111.725188,136.705188 111.725188,136.417188 C111.725188,136.177188 111.581188,136.001188 111.421188,135.905188 C110.621188,135.473187 109.661188,135.201188 108.781188,135.201188 C107.149188,135.201188 105.965188,136.145188 105.965188,137.569187 L105.965188,137.601187 C105.965188,139.121188 107.405188,139.569187 108.701188,139.937187 C109.789188,140.241188 110.765188,140.561188 110.765188,141.393188 L110.765188,141.425187 C110.765188,142.225188 110.045188,142.737188 109.053188,142.737188 C108.157188,142.737188 107.277188,142.433188 106.429188,141.857188 C106.349188,141.793187 106.237188,141.761188 106.125188,141.761188 C105.821188,141.761188 105.581188,142.001188 105.581188,142.289188 C105.581188,142.497187 105.693188,142.657188 105.805188,142.737188 C106.701188,143.377187 107.901188,143.777188 108.989188,143.777188 Z M114.221188,132.961187 C114.221188,133.345188 114.541188,133.617188 114.941188,133.617188 C115.357188,133.617188 115.677188,133.345188 115.677188,132.961187 L115.677188,132.753188 C115.677188,132.353187 115.357188,132.097188 114.941188,132.097188 C114.541188,132.097188 114.221188,132.353187 114.221188,132.753188 L114.221188,132.961187 Z M114.333188,143.073188 C114.333188,143.425187 114.605188,143.697187 114.957188,143.697187 C115.309188,143.697187 115.565188,143.425187 115.565188,143.073188 L115.565188,135.889187 C115.565188,135.537188 115.293188,135.265188 114.941188,135.265188 C114.605188,135.265188 114.333188,135.553188 114.333188,135.889187 L114.333188,143.073188 Z M125.277188,142.481188 C125.373188,142.385188 125.437188,142.241188 125.437188,142.097188 C125.437188,141.809188 125.181188,141.537188 124.877188,141.537188 C124.717188,141.537188 124.605188,141.617188 124.525188,141.697187 C123.917188,142.273188 123.165188,142.705188 122.221188,142.705188 C120.493188,142.705188 119.181188,141.281187 119.181188,139.489188 L119.181188,139.457188 C119.181188,137.681188 120.461188,136.257187 122.141188,136.257187 C123.133188,136.257187 123.805188,136.705188 124.397188,137.249188 C124.493188,137.329187 124.637188,137.393188 124.797188,137.393188 C125.117188,137.393188 125.389188,137.137187 125.389188,136.801188 C125.389188,136.609188 125.293188,136.449187 125.197188,136.369188 C124.461188,135.697187 123.533188,135.169188 122.157188,135.169188 C119.741188,135.169188 117.917188,137.153188 117.917188,139.489188 L117.917188,139.521187 C117.917188,141.585188 119.357188,143.377187 121.389188,143.729188 L120.381188,145.201188 C120.317188,145.313188 120.285188,145.409188 120.285188,145.489188 C120.285188,145.729188 120.749188,146.001188 121.053188,146.001188 C121.325188,146.001188 121.437188,145.857188 121.549188,145.633188 L122.397188,143.793187 C123.661188,143.745187 124.541188,143.217188 125.277188,142.481188 Z M130.029187,143.793188 C128.493187,143.793188 126.941187,142.913188 126.941187,141.217188 L126.941187,141.185188 C126.941187,139.441188 128.381187,138.513188 130.477187,138.513188 C131.533187,138.513188 132.285188,138.657188 133.021187,138.865188 L133.021187,138.577188 C133.021187,137.089188 132.109187,136.321188 130.557187,136.321188 C129.725188,136.321188 129.021187,136.513188 128.413187,136.785188 C128.333188,136.817188 128.253187,136.833188 128.189188,136.833188 C127.901187,136.833188 127.645187,136.593188 127.645187,136.305188 C127.645187,136.049188 127.821188,135.857188 127.981188,135.793188 C128.797188,135.441188 129.629188,135.233188 130.685187,135.233188 C131.853187,135.233188 132.749188,135.537188 133.357188,136.145188 C133.917187,136.705188 134.205187,137.505188 134.205187,138.561188 L134.205187,143.089188 C134.205187,143.441188 133.949187,143.697188 133.613187,143.697188 C133.261188,143.697188 133.021187,143.441188 133.021187,143.121188 L133.021187,142.369188 C132.445187,143.121188 131.485187,143.793188 130.029187,143.793188 Z M130.269188,142.817187 C131.789187,142.817187 133.037188,141.889187 133.037188,140.577187 L133.037188,139.777188 C132.429188,139.601187 131.613188,139.425187 130.605188,139.425187 C129.053188,139.425187 128.189188,140.097188 128.189188,141.137187 L128.189188,141.169188 C128.189188,142.209187 129.149188,142.817187 130.269188,142.817187 Z M129.101188,134.017188 C129.293188,133.617188 129.469188,133.457188 129.837187,133.457188 C130.381188,133.457188 131.261188,134.097188 131.981188,134.097188 C132.669188,134.097188 133.069188,133.729188 133.389188,132.801188 C133.405188,132.721187 133.437188,132.609188 133.437188,132.545187 C133.437188,132.337188 133.245188,132.161187 133.021188,132.161187 C132.845188,132.161187 132.717188,132.305187 132.653188,132.433188 C132.461188,132.833188 132.285188,132.993188 131.917188,132.993188 C131.373188,132.993188 130.493188,132.353187 129.773188,132.353187 C129.085188,132.353187 128.685188,132.721187 128.365188,133.649187 C128.349187,133.713188 128.317188,133.841187 128.317188,133.905188 C128.317188,134.113187 128.509188,134.289188 128.733188,134.289188 C128.925188,134.289188 129.037188,134.145188 129.101188,134.017188 Z M140.605187,143.809188 C138.125187,143.809188 136.317187,141.857188 136.317187,139.521187 L136.317187,139.489188 C136.317187,137.153188 138.141188,135.169188 140.637187,135.169188 C143.117188,135.169188 144.941187,137.121188 144.941187,139.457188 L144.941187,139.489188 C144.941187,141.825188 143.101187,143.809188 140.605187,143.809188 Z M140.637188,142.705188 C142.429188,142.705188 143.677188,141.265188 143.677188,139.521187 L143.677188,139.489188 C143.677188,137.713188 142.349187,136.257187 140.605188,136.257187 C138.813187,136.257187 137.581188,137.713188 137.581188,139.457188 L137.581188,139.489188 C137.581188,141.265188 138.893188,142.705188 140.637188,142.705188 Z" id="Excelente-vendedor-e" fill="#9B9B9B"></path>
                <g id="Group" transform="translate(29.000000, 30.000000)">
                    <path d="M9,18 C13.9705627,18 18,13.9705627 18,9 C18,4.02943725 13.9705627,0 9,0 C4.02943725,0 0,4.02943725 0,9 C0,13.9705627 4.02943725,18 9,18 Z" id="Oval" fill="#417505"></path>
                    <path d="M9,5 L9,13" id="Line" stroke="#FFFFFF" stroke-width="2" stroke-linecap="round" stroke-linejoin="round"></path>
                    <path d="M13,9 L5,9" id="Line" stroke="#FFFFFF" stroke-width="2" stroke-linecap="round" stroke-linejoin="round"></path>
                </g>
            </g>
        </g>
    </g>
</svg>