<?xml version="1.0" encoding="UTF-8"?>
<svg width="204px" height="98px" viewBox="0 0 204 98" version="1.1" xmlns="http://www.w3.org/2000/svg" xmlns:xlink="http://www.w3.org/1999/xlink">
    <!-- Generator: Sketch 42 (36781) - http://www.bohemiancoding.com/sketch -->
    <title>Group 10</title>
    <desc>Created with Sketch.</desc>
    <defs>
        <path d="M153.493123,79.4519248 C154.150744,78.5594397 155.584753,77.8359375 156.677319,77.8359375 L182.71512,77.8359375 C191.000424,77.8359375 197.722656,71.1244878 197.722656,62.8454951 L197.722656,14.9904424 C197.722656,6.7081163 191.003553,1.42108547e-14 182.71512,1.42108547e-14 L15.0075366,1.42108547e-14 C6.72223234,1.42108547e-14 1.13686838e-13,6.71144969 1.13686838e-13,14.9904424 L1.13686838e-13,62.8454951 C1.13686838e-13,71.1278212 6.719103,77.8359375 15.0075366,77.8359375 L129.097269,77.8359375 C130.196517,77.8359375 131.613491,78.5496016 132.278361,79.4519248 L139.916702,89.8182449 C141.556035,92.043053 144.215027,92.0436274 145.854782,89.8182449 L153.493123,79.4519248 Z" id="path-1"></path>
        <filter x="-50%" y="-50%" width="200%" height="200%" filterUnits="objectBoundingBox" id="filter-2">
            <feOffset dx="3" dy="3" in="SourceAlpha" result="shadowOffsetOuter1"></feOffset>
            <feGaussianBlur stdDeviation="1.5" in="shadowOffsetOuter1" result="shadowBlurOuter1"></feGaussianBlur>
            <feComposite in="shadowBlurOuter1" in2="SourceAlpha" operator="out" result="shadowBlurOuter1"></feComposite>
            <feColorMatrix values="0 0 0 0 0   0 0 0 0 0   0 0 0 0 0  0 0 0 0.0157382246 0" type="matrix" in="shadowBlurOuter1"></feColorMatrix>
        </filter>
        <mask id="mask-3" maskContentUnits="userSpaceOnUse" maskUnits="objectBoundingBox" x="0" y="0" width="197.722656" height="91.4870664" fill="white">
            <use xlink:href="#path-1"></use>
        </mask>
    </defs>
    <g id="Page-1" stroke="none" stroke-width="1" fill="none" fill-rule="evenodd">
        <g id="Desktop-HD" transform="translate(-816.000000, -280.000000)">
            <g id="Group-10" transform="translate(822.000000, 280.000000)">
                <g id="Group-11">
                    <g id="Combined-Shape" transform="translate(98.861328, 45.743533) scale(-1, 1) translate(-98.861328, -45.743533) ">
                        <use fill="black" fill-opacity="1" filter="url(#filter-2)" xlink:href="#path-1"></use>
                        <use stroke="#E1E1E1" mask="url(#mask-3)" stroke-width="2" fill="#FFFFFF" fill-rule="evenodd" xlink:href="#path-1"></use>
                    </g>
                    <path d="M62.7011875,43.0571875 L62.7011875,33.0571875 C62.7011875,32.7051875 62.9891875,32.4171875 63.3251875,32.4171875 L67.5171875,32.4171875 C68.8931875,32.4171875 69.9971875,32.8331875 70.7011875,33.5371875 C71.2451875,34.0811875 71.5651875,34.8651875 71.5651875,35.7451875 L71.5651875,35.7771875 C71.5651875,37.6171875 70.3171875,38.6891875 68.5731875,39.0251875 L71.3571875,42.6091875 C71.4851875,42.7531875 71.5651875,42.8971875 71.5651875,43.0731875 C71.5651875,43.4091875 71.2451875,43.6971875 70.9251875,43.6971875 C70.6691875,43.6971875 70.4771875,43.5531875 70.3331875,43.3611875 L67.1811875,39.2651875 L63.9651875,39.2651875 L63.9651875,43.0571875 C63.9651875,43.4091875 63.6771875,43.6971875 63.3251875,43.6971875 C62.9891875,43.6971875 62.7011875,43.4091875 62.7011875,43.0571875 Z M63.9651875,38.1291875 L67.4051875,38.1291875 C69.0851875,38.1291875 70.2851875,37.2651875 70.2851875,35.8251875 L70.2851875,35.7931875 C70.2851875,34.4171875 69.2291875,33.5851875 67.4211875,33.5851875 L63.9651875,33.5851875 L63.9651875,38.1291875 Z M74.7971875,39.0251875 L80.1251875,39.0251875 C79.9971875,37.5211875 79.1331875,36.2091875 77.4851875,36.2091875 C76.0451875,36.2091875 74.9571875,37.4091875 74.7971875,39.0251875 Z M80.7971875,42.5611875 C80.0131875,43.3131875 79.0851875,43.8091875 77.6771875,43.8091875 C75.4051875,43.8091875 73.5491875,42.0651875 73.5491875,39.5051875 L73.5491875,39.4731875 C73.5491875,37.0891875 75.2291875,35.1691875 77.5171875,35.1691875 C79.9651875,35.1691875 81.3571875,37.1691875 81.3571875,39.3611875 C81.3571875,39.6971875 81.0851875,39.9371875 80.7811875,39.9371875 L74.7971875,39.9371875 C74.9731875,41.7291875 76.2371875,42.7371875 77.7091875,42.7371875 C78.7331875,42.7371875 79.4851875,42.3371875 80.0931875,41.7771875 C80.1891875,41.6971875 80.3011875,41.6331875 80.4451875,41.6331875 C80.7491875,41.6331875 80.9891875,41.8731875 80.9891875,42.1611875 C80.9891875,42.3051875 80.9251875,42.4491875 80.7971875,42.5611875 Z M87.2611875,43.8091875 C88.6531875,43.8091875 89.5971875,43.2651875 90.3811875,42.4811875 C90.4771875,42.3851875 90.5411875,42.2411875 90.5411875,42.0971875 C90.5411875,41.8091875 90.2851875,41.5371875 89.9811875,41.5371875 C89.8211875,41.5371875 89.7091875,41.6171875 89.6291875,41.6971875 C89.0211875,42.2731875 88.2691875,42.7051875 87.3251875,42.7051875 C85.5971875,42.7051875 84.2851875,41.2811875 84.2851875,39.4891875 L84.2851875,39.4571875 C84.2851875,37.6811875 85.5651875,36.2571875 87.2451875,36.2571875 C88.2371875,36.2571875 88.9091875,36.7051875 89.5011875,37.2491875 C89.5971875,37.3291875 89.7411875,37.3931875 89.9011875,37.3931875 C90.2211875,37.3931875 90.4931875,37.1371875 90.4931875,36.8011875 C90.4931875,36.6091875 90.3971875,36.4491875 90.3011875,36.3691875 C89.5651875,35.6971875 88.6371875,35.1691875 87.2611875,35.1691875 C84.8451875,35.1691875 83.0211875,37.1531875 83.0211875,39.4891875 L83.0211875,39.5211875 C83.0211875,41.8411875 84.8451875,43.8091875 87.2611875,43.8091875 Z M96.4451875,43.8091875 C93.9651875,43.8091875 92.1571875,41.8571875 92.1571875,39.5211875 L92.1571875,39.4891875 C92.1571875,37.1531875 93.9811875,35.1691875 96.4771875,35.1691875 C98.9571875,35.1691875 100.781188,37.1211875 100.781188,39.4571875 L100.781188,39.4891875 C100.781188,41.8251875 98.9411875,43.8091875 96.4451875,43.8091875 Z M96.4771875,42.7051875 C98.2691875,42.7051875 99.5171875,41.2651875 99.5171875,39.5211875 L99.5171875,39.4891875 C99.5171875,37.7131875 98.1891875,36.2571875 96.4451875,36.2571875 C94.6531875,36.2571875 93.4211875,37.7131875 93.4211875,39.4571875 L93.4211875,39.4891875 C93.4211875,41.2651875 94.7331875,42.7051875 96.4771875,42.7051875 Z M103.005188,43.0731875 C103.005188,43.4251875 103.277188,43.6971875 103.629188,43.6971875 C103.981188,43.6971875 104.237188,43.4251875 104.237188,43.0731875 L104.237188,38.8971875 C104.237188,37.3771875 105.229188,36.2891875 106.541188,36.2891875 C107.853188,36.2891875 108.669188,37.2011875 108.669188,38.7531875 L108.669188,43.0731875 C108.669188,43.4251875 108.941188,43.6971875 109.277188,43.6971875 C109.629188,43.6971875 109.901188,43.4251875 109.901188,43.0731875 L109.901188,38.8491875 C109.901188,37.2171875 110.925188,36.2891875 112.173188,36.2891875 C113.517188,36.2891875 114.317188,37.1851875 114.317188,38.7851875 L114.317188,43.0731875 C114.317188,43.4251875 114.589188,43.6971875 114.941188,43.6971875 C115.277188,43.6971875 115.549188,43.4251875 115.549188,43.0731875 L115.549188,38.4971875 C115.549188,36.4491875 114.381188,35.1691875 112.477188,35.1691875 C111.037188,35.1691875 110.157188,35.9051875 109.565188,36.8171875 C109.117188,35.8891875 108.253188,35.1691875 106.909188,35.1691875 C105.517188,35.1691875 104.781188,35.9211875 104.237188,36.7371875 L104.237188,35.8891875 C104.237188,35.5371875 103.965188,35.2651875 103.613188,35.2651875 C103.277188,35.2651875 103.005188,35.5531875 103.005188,35.8891875 L103.005188,43.0731875 Z M118.957188,39.0251875 L124.285188,39.0251875 C124.157188,37.5211875 123.293188,36.2091875 121.645188,36.2091875 C120.205188,36.2091875 119.117188,37.4091875 118.957188,39.0251875 Z M124.957188,42.5611875 C124.173188,43.3131875 123.245188,43.8091875 121.837188,43.8091875 C119.565188,43.8091875 117.709188,42.0651875 117.709188,39.5051875 L117.709188,39.4731875 C117.709188,37.0891875 119.389188,35.1691875 121.677188,35.1691875 C124.125188,35.1691875 125.517188,37.1691875 125.517188,39.3611875 C125.517188,39.6971875 125.245188,39.9371875 124.941188,39.9371875 L118.957188,39.9371875 C119.133188,41.7291875 120.397188,42.7371875 121.869188,42.7371875 C122.893188,42.7371875 123.645188,42.3371875 124.253188,41.7771875 C124.349188,41.6971875 124.461188,41.6331875 124.605188,41.6331875 C124.909188,41.6331875 125.149188,41.8731875 125.149188,42.1611875 C125.149188,42.3051875 125.085188,42.4491875 124.957188,42.5611875 Z M127.693188,43.0731875 C127.693188,43.4251875 127.965188,43.6971875 128.317188,43.6971875 C128.669188,43.6971875 128.925188,43.4251875 128.925188,43.0731875 L128.925188,38.8811875 C128.925188,37.3291875 129.981188,36.2891875 131.405188,36.2891875 C132.861188,36.2891875 133.693188,37.2491875 133.693188,38.7851875 L133.693188,43.0731875 C133.693188,43.4251875 133.965188,43.6971875 134.317188,43.6971875 C134.653188,43.6971875 134.925188,43.4251875 134.925188,43.0731875 L134.925188,38.4811875 C134.925188,36.5131875 133.757188,35.1691875 131.757188,35.1691875 C130.333188,35.1691875 129.469188,35.8891875 128.925188,36.7851875 L128.925188,35.8891875 C128.925188,35.5371875 128.653188,35.2651875 128.301188,35.2651875 C127.965188,35.2651875 127.693188,35.5531875 127.693188,35.8891875 L127.693188,43.0731875 Z M145.421188,32.4811875 L145.421188,43.0731875 C145.421188,43.4251875 145.149188,43.6971875 144.813188,43.6971875 C144.461188,43.6971875 144.189188,43.4251875 144.189188,43.0731875 L144.189188,41.9531875 C143.517188,42.9451875 142.541188,43.7931875 141.021188,43.7931875 C139.037188,43.7931875 137.069188,42.2251875 137.069188,39.5051875 L137.069188,39.4731875 C137.069188,36.7691875 139.037188,35.1691875 141.021188,35.1691875 C142.557188,35.1691875 143.549188,36.0011875 144.189188,36.9291875 L144.189188,32.4811875 C144.189188,32.1291875 144.445188,31.8571875 144.797188,31.8571875 C145.149188,31.8571875 145.421188,32.1291875 145.421188,32.4811875 Z M141.245188,36.2731875 C139.645188,36.2731875 138.333188,37.4571875 138.333188,39.4571875 L138.333188,39.4891875 C138.333188,41.4411875 139.693188,42.6891875 141.245188,42.6891875 C142.781188,42.6891875 144.237188,41.3931875 144.237188,39.4891875 L144.237188,39.4571875 C144.237188,37.5531875 142.781188,36.2731875 141.245188,36.2731875 Z M151.949188,43.8091875 C149.469188,43.8091875 147.661188,41.8571875 147.661188,39.5211875 L147.661188,39.4891875 C147.661188,37.1531875 149.485188,35.1691875 151.981188,35.1691875 C154.461188,35.1691875 156.285188,37.1211875 156.285188,39.4571875 L156.285188,39.4891875 C156.285188,41.8251875 154.445188,43.8091875 151.949188,43.8091875 Z M151.981188,42.7051875 C153.773188,42.7051875 155.021188,41.2651875 155.021188,39.5211875 L155.021188,39.4891875 C155.021188,37.7131875 153.693188,36.2571875 151.949188,36.2571875 C150.157188,36.2571875 148.925188,37.7131875 148.925188,39.4571875 L148.925188,39.4891875 C148.925188,41.2651875 150.237188,42.7051875 151.981188,42.7051875 Z M158.925188,40.1451875 C158.941188,40.3531875 159.101188,40.5131875 159.309188,40.5131875 C159.501188,40.5131875 159.661188,40.3531875 159.677188,40.1451875 L160.045188,32.8811875 C160.061188,32.5931875 159.869188,32.3691875 159.581188,32.3691875 L159.021188,32.3691875 C158.749188,32.3691875 158.541188,32.5931875 158.557188,32.8811875 L158.925188,40.1451875 Z M158.541188,42.6091875 L158.541188,42.9291875 C158.541188,43.3611875 158.861188,43.6971875 159.309188,43.6971875 C159.741188,43.6971875 160.061188,43.3611875 160.061188,42.9291875 L160.061188,42.6091875 C160.061188,42.1771875 159.741188,41.8571875 159.309188,41.8571875 C158.861188,41.8571875 158.541188,42.1771875 158.541188,42.6091875 Z" id="Recomendo!" fill="#9B9B9B"></path>
                </g>
                <g id="Group" transform="translate(29.000000, 30.000000)">
                    <path d="M9,18 C13.9705627,18 18,13.9705627 18,9 C18,4.02943725 13.9705627,0 9,0 C4.02943725,0 0,4.02943725 0,9 C0,13.9705627 4.02943725,18 9,18 Z" id="Oval" fill="#417505"></path>
                    <path d="M9,5 L9,13" id="Line" stroke="#FFFFFF" stroke-width="2" stroke-linecap="round" stroke-linejoin="round"></path>
                    <path d="M13,9 L5,9" id="Line" stroke="#FFFFFF" stroke-width="2" stroke-linecap="round" stroke-linejoin="round"></path>
                </g>
            </g>
        </g>
    </g>
</svg>