<?xml version="1.0" encoding="UTF-8"?>
<svg width="234px" height="124px" viewBox="0 0 234 124" version="1.1" xmlns="http://www.w3.org/2000/svg" xmlns:xlink="http://www.w3.org/1999/xlink">
    <!-- Generator: Sketch 42 (36781) - http://www.bohemiancoding.com/sketch -->
    <title>Group 12</title>
    <desc>Created with Sketch.</desc>
    <defs>
        <path d="M183.493123,105.451925 C184.150744,104.55944 185.584753,103.835938 186.677319,103.835938 L212.71512,103.835938 C221.000424,103.835938 227.722656,97.1244878 227.722656,88.8454951 L227.722656,14.9904424 C227.722656,6.7081163 221.003553,0 212.71512,0 L15.0075366,0 C6.72223234,0 0,6.71144969 0,14.9904424 L0,88.8454951 C0,97.1278212 6.719103,103.835937 15.0075366,103.835937 L159.078192,103.835938 C160.187976,103.835938 161.613491,104.549602 162.278361,105.451925 L169.916702,115.818245 C171.556035,118.043053 174.215027,118.043627 175.854782,115.818245 L183.493123,105.451925 Z" id="path-1"></path>
        <filter x="-50%" y="-50%" width="200%" height="200%" filterUnits="objectBoundingBox" id="filter-2">
            <feOffset dx="3" dy="3" in="SourceAlpha" result="shadowOffsetOuter1"></feOffset>
            <feGaussianBlur stdDeviation="1.5" in="shadowOffsetOuter1" result="shadowBlurOuter1"></feGaussianBlur>
            <feComposite in="shadowBlurOuter1" in2="SourceAlpha" operator="out" result="shadowBlurOuter1"></feComposite>
            <feColorMatrix values="0 0 0 0 0   0 0 0 0 0   0 0 0 0 0  0 0 0 0.0157382246 0" type="matrix" in="shadowBlurOuter1"></feColorMatrix>
        </filter>
        <mask id="mask-3" maskContentUnits="userSpaceOnUse" maskUnits="objectBoundingBox" x="0" y="0" width="227.722656" height="117.487066" fill="white">
            <use xlink:href="#path-1"></use>
        </mask>
    </defs>
    <g id="Page-1" stroke="none" stroke-width="1" fill="none" fill-rule="evenodd">
        <g id="Desktop-HD" transform="translate(-1066.000000, -230.000000)">
            <g id="Group-12" transform="translate(1072.000000, 230.000000)">
                <g id="Combined-Shape" transform="translate(113.861328, 58.743533) scale(-1, 1) translate(-113.861328, -58.743533) ">
                    <use fill="black" fill-opacity="1" filter="url(#filter-2)" xlink:href="#path-1"></use>
                    <use stroke="#E1E1E1" mask="url(#mask-3)" stroke-width="2" fill="#FFFFFF" fill-rule="evenodd" xlink:href="#path-1"></use>
                </g>
                <path d="M62.7011875,43.0571875 L62.7011875,33.0571875 C62.7011875,32.7051875 62.9891875,32.4171875 63.3251875,32.4171875 L66.8931875,32.4171875 C69.4211875,32.4171875 71.0851875,33.7611875 71.0851875,35.9691875 L71.0851875,36.0011875 C71.0851875,38.4171875 69.0691875,39.6651875 66.6851875,39.6651875 L63.9651875,39.6651875 L63.9651875,43.0571875 C63.9651875,43.4091875 63.6771875,43.6971875 63.3251875,43.6971875 C62.9891875,43.6971875 62.7011875,43.4091875 62.7011875,43.0571875 Z M63.9651875,38.5131875 L66.7331875,38.5131875 C68.5891875,38.5131875 69.8051875,37.5211875 69.8051875,36.0491875 L69.8051875,36.0171875 C69.8051875,34.4171875 68.6051875,33.5851875 66.7971875,33.5851875 L63.9651875,33.5851875 L63.9651875,38.5131875 Z M73.1811875,43.0731875 C73.1811875,43.4251875 73.4531875,43.6971875 73.8051875,43.6971875 C74.1571875,43.6971875 74.4131875,43.4091875 74.4131875,43.0731875 L74.4131875,40.2571875 C74.4131875,37.8731875 75.7251875,36.6731875 77.3251875,36.4811875 C77.6451875,36.4331875 77.8691875,36.1931875 77.8691875,35.8571875 C77.8691875,35.5051875 77.6291875,35.2331875 77.2611875,35.2331875 C76.2211875,35.2331875 75.0211875,36.0651875 74.4131875,37.4411875 L74.4131875,35.8891875 C74.4131875,35.5371875 74.1411875,35.2651875 73.7891875,35.2651875 C73.4531875,35.2651875 73.1811875,35.5531875 73.1811875,35.8891875 L73.1811875,43.0731875 Z M83.4371875,43.8091875 C80.9571875,43.8091875 79.1491875,41.8571875 79.1491875,39.5211875 L79.1491875,39.4891875 C79.1491875,37.1531875 80.9731875,35.1691875 83.4691875,35.1691875 C85.9491875,35.1691875 87.7731875,37.1211875 87.7731875,39.4571875 L87.7731875,39.4891875 C87.7731875,41.8251875 85.9331875,43.8091875 83.4371875,43.8091875 Z M83.4691875,42.7051875 C85.2611875,42.7051875 86.5091875,41.2651875 86.5091875,39.5211875 L86.5091875,39.4891875 C86.5091875,37.7131875 85.1811875,36.2571875 83.4371875,36.2571875 C81.6451875,36.2571875 80.4131875,37.7131875 80.4131875,39.4571875 L80.4131875,39.4891875 C80.4131875,41.2651875 81.7251875,42.7051875 83.4691875,42.7051875 Z M97.8691875,32.4811875 L97.8691875,43.0731875 C97.8691875,43.4251875 97.5971875,43.6971875 97.2611875,43.6971875 C96.9091875,43.6971875 96.6371875,43.4251875 96.6371875,43.0731875 L96.6371875,41.9531875 C95.9651875,42.9451875 94.9891875,43.7931875 93.4691875,43.7931875 C91.4851875,43.7931875 89.5171875,42.2251875 89.5171875,39.5051875 L89.5171875,39.4731875 C89.5171875,36.7691875 91.4851875,35.1691875 93.4691875,35.1691875 C95.0051875,35.1691875 95.9971875,36.0011875 96.6371875,36.9291875 L96.6371875,32.4811875 C96.6371875,32.1291875 96.8931875,31.8571875 97.2451875,31.8571875 C97.5971875,31.8571875 97.8691875,32.1291875 97.8691875,32.4811875 Z M93.6931875,36.2731875 C92.0931875,36.2731875 90.7811875,37.4571875 90.7811875,39.4571875 L90.7811875,39.4891875 C90.7811875,41.4411875 92.1411875,42.6891875 93.6931875,42.6891875 C95.2291875,42.6891875 96.6851875,41.3931875 96.6851875,39.4891875 L96.6851875,39.4571875 C96.6851875,37.5531875 95.2291875,36.2731875 93.6931875,36.2731875 Z M107.709187,35.8891875 C107.709187,35.5371875 107.437187,35.2651875 107.101187,35.2651875 C106.749187,35.2651875 106.493187,35.5371875 106.493187,35.8891875 L106.493187,40.0811875 C106.493187,41.6331875 105.421187,42.6731875 104.013187,42.6731875 C102.557187,42.6731875 101.725187,41.7131875 101.725187,40.1771875 L101.725187,35.8891875 C101.725187,35.5371875 101.437187,35.2651875 101.101187,35.2651875 C100.749187,35.2651875 100.493187,35.5371875 100.493187,35.8891875 L100.493187,40.4811875 C100.493187,42.4491875 101.661187,43.7931875 103.661187,43.7931875 C105.085187,43.7931875 105.933187,43.0731875 106.493187,42.1771875 L106.493187,43.0731875 C106.493187,43.4251875 106.765187,43.6971875 107.101187,43.6971875 C107.453187,43.6971875 107.709187,43.4091875 107.709187,43.0731875 L107.709187,35.8891875 Z M113.245187,43.7611875 C113.725187,43.7611875 114.109187,43.6811875 114.461187,43.5371875 C114.669187,43.4571875 114.813187,43.2811875 114.813187,43.0571875 C114.813187,42.7691875 114.573187,42.5291875 114.285187,42.5291875 C114.189187,42.5291875 113.965187,42.6411875 113.533187,42.6411875 C112.701187,42.6411875 112.141187,42.2731875 112.141187,41.2651875 L112.141187,36.4331875 L114.285187,36.4331875 C114.589187,36.4331875 114.845187,36.1931875 114.845187,35.8891875 C114.845187,35.6011875 114.589187,35.3451875 114.285187,35.3451875 L112.141187,35.3451875 L112.141187,33.3931875 C112.141187,33.0571875 111.853187,32.7691875 111.517187,32.7691875 C111.165187,32.7691875 110.909187,33.0571875 110.909187,33.3931875 L110.909187,35.3451875 L110.237187,35.3451875 C109.949187,35.3451875 109.693187,35.5851875 109.693187,35.8891875 C109.693187,36.1771875 109.949187,36.4331875 110.237187,36.4331875 L110.909187,36.4331875 L110.909187,41.4251875 C110.909187,43.1051875 111.917187,43.7611875 113.245187,43.7611875 Z M120.717187,43.8091875 C118.237187,43.8091875 116.429187,41.8571875 116.429187,39.5211875 L116.429187,39.4891875 C116.429187,37.1531875 118.253187,35.1691875 120.749187,35.1691875 C123.229187,35.1691875 125.053187,37.1211875 125.053187,39.4571875 L125.053187,39.4891875 C125.053187,41.8251875 123.213187,43.8091875 120.717187,43.8091875 Z M120.749187,42.7051875 C122.541187,42.7051875 123.789187,41.2651875 123.789187,39.5211875 L123.789187,39.4891875 C123.789187,37.7131875 122.461187,36.2571875 120.717187,36.2571875 C118.925187,36.2571875 117.693187,37.7131875 117.693187,39.4571875 L117.693187,39.4891875 C117.693187,41.2651875 119.005187,42.7051875 120.749187,42.7051875 Z M135.805187,43.8091875 C137.197187,43.8091875 138.141187,43.2651875 138.925187,42.4811875 C139.021187,42.3851875 139.085187,42.2411875 139.085187,42.0971875 C139.085187,41.8091875 138.829187,41.5371875 138.525187,41.5371875 C138.365187,41.5371875 138.253187,41.6171875 138.173187,41.6971875 C137.565187,42.2731875 136.813187,42.7051875 135.869187,42.7051875 C134.141187,42.7051875 132.829187,41.2811875 132.829187,39.4891875 L132.829187,39.4571875 C132.829187,37.6811875 134.109187,36.2571875 135.789187,36.2571875 C136.781187,36.2571875 137.453187,36.7051875 138.045187,37.2491875 C138.141187,37.3291875 138.285187,37.3931875 138.445187,37.3931875 C138.765187,37.3931875 139.037187,37.1371875 139.037187,36.8011875 C139.037187,36.6091875 138.941187,36.4491875 138.845187,36.3691875 C138.109187,35.6971875 137.181187,35.1691875 135.805187,35.1691875 C133.389187,35.1691875 131.565187,37.1531875 131.565187,39.4891875 L131.565187,39.5211875 C131.565187,41.8411875 133.389187,43.8091875 135.805187,43.8091875 Z M141.213187,43.0731875 C141.213187,43.4251875 141.485187,43.6971875 141.837187,43.6971875 C142.189187,43.6971875 142.445187,43.4251875 142.445187,43.0731875 L142.445187,38.8811875 C142.445187,37.3291875 143.501187,36.2891875 144.925187,36.2891875 C146.381187,36.2891875 147.213187,37.2491875 147.213187,38.7851875 L147.213187,43.0731875 C147.213187,43.4251875 147.485187,43.6971875 147.837187,43.6971875 C148.173187,43.6971875 148.445187,43.4251875 148.445187,43.0731875 L148.445187,38.4811875 C148.445187,36.5131875 147.277187,35.1691875 145.277187,35.1691875 C143.853187,35.1691875 142.989187,35.8891875 142.445187,36.7851875 L142.445187,32.4811875 C142.445187,32.1451875 142.173187,31.8571875 141.821187,31.8571875 C141.485187,31.8571875 141.213187,32.1451875 141.213187,32.4811875 L141.213187,43.0731875 Z M151.805187,39.0251875 L157.133187,39.0251875 C157.005187,37.5211875 156.141187,36.2091875 154.493187,36.2091875 C153.053187,36.2091875 151.965187,37.4091875 151.805187,39.0251875 Z M157.805187,42.5611875 C157.021187,43.3131875 156.093187,43.8091875 154.685187,43.8091875 C152.413187,43.8091875 150.557187,42.0651875 150.557187,39.5051875 L150.557187,39.4731875 C150.557187,37.0891875 152.237187,35.1691875 154.525187,35.1691875 C156.973187,35.1691875 158.365187,37.1691875 158.365187,39.3611875 C158.365187,39.6971875 158.093187,39.9371875 157.789187,39.9371875 L151.805187,39.9371875 C151.981187,41.7291875 153.245187,42.7371875 154.717187,42.7371875 C155.741187,42.7371875 156.493187,42.3371875 157.101187,41.7771875 C157.197187,41.6971875 157.309187,41.6331875 157.453187,41.6331875 C157.757187,41.6331875 157.997187,41.8731875 157.997187,42.1611875 C157.997187,42.3051875 157.933187,42.4491875 157.805187,42.5611875 Z M164.205187,46.2091875 C162.941187,46.2091875 161.789187,45.8731875 160.749187,45.2331875 C160.557187,45.1371875 160.429187,44.9451875 160.429187,44.7211875 C160.429187,44.4491875 160.701187,44.1771875 160.989187,44.1771875 C161.101187,44.1771875 161.181187,44.2091875 161.261187,44.2571875 C162.125187,44.8331875 163.117187,45.1531875 164.189187,45.1531875 C166.013187,45.1531875 167.197187,44.1451875 167.197187,42.2091875 L167.197187,41.2331875 C166.477187,42.1931875 165.469187,42.9771875 163.949187,42.9771875 C161.965187,42.9771875 160.061187,41.4891875 160.061187,39.1051875 L160.061187,39.0731875 C160.061187,36.6571875 161.981187,35.1691875 163.949187,35.1691875 C165.501187,35.1691875 166.509187,35.9371875 167.181187,36.8331875 L167.181187,35.8891875 C167.181187,35.5531875 167.437187,35.2651875 167.789187,35.2651875 C168.141187,35.2651875 168.413187,35.5531875 168.413187,35.8891875 L168.413187,42.1771875 C168.413187,43.4571875 168.029187,44.4331875 167.357187,45.1051875 C166.621187,45.8411875 165.517187,46.2091875 164.205187,46.2091875 Z M164.189187,41.8891875 C165.757187,41.8891875 167.229187,40.7531875 167.229187,39.0891875 L167.229187,39.0571875 C167.229187,37.3611875 165.757187,36.2571875 164.189187,36.2571875 C162.621187,36.2571875 161.325187,37.3451875 161.325187,39.0411875 L161.325187,39.0731875 C161.325187,40.7371875 162.653187,41.8891875 164.189187,41.8891875 Z M174.941187,43.8091875 C172.461187,43.8091875 170.653187,41.8571875 170.653187,39.5211875 L170.653187,39.4891875 C170.653187,37.1531875 172.477187,35.1691875 174.973187,35.1691875 C177.453187,35.1691875 179.277187,37.1211875 179.277187,39.4571875 L179.277187,39.4891875 C179.277187,41.8251875 177.437187,43.8091875 174.941187,43.8091875 Z M174.973187,42.7051875 C176.765187,42.7051875 178.013187,41.2651875 178.013187,39.5211875 L178.013187,39.4891875 C178.013187,37.7131875 176.685187,36.2571875 174.941187,36.2571875 C173.149187,36.2571875 171.917187,37.7131875 171.917187,39.4571875 L171.917187,39.4891875 C171.917187,41.2651875 173.229187,42.7051875 174.973187,42.7051875 Z M188.589187,35.8891875 C188.589187,35.5371875 188.317187,35.2651875 187.981187,35.2651875 C187.629187,35.2651875 187.373187,35.5371875 187.373187,35.8891875 L187.373187,40.0811875 C187.373187,41.6331875 186.301187,42.6731875 184.893187,42.6731875 C183.437187,42.6731875 182.605187,41.7131875 182.605187,40.1771875 L182.605187,35.8891875 C182.605187,35.5371875 182.317187,35.2651875 181.981187,35.2651875 C181.629187,35.2651875 181.373187,35.5371875 181.373187,35.8891875 L181.373187,40.4811875 C181.373187,42.4491875 182.541187,43.7931875 184.541187,43.7931875 C185.965187,43.7931875 186.813187,43.0731875 187.373187,42.1771875 L187.373187,43.0731875 C187.373187,43.4251875 187.645187,43.6971875 187.981187,43.6971875 C188.333187,43.6971875 188.589187,43.4091875 188.589187,43.0731875 L188.589187,35.8891875 Z M62.4931875,68.0731875 C62.4931875,68.4251875 62.7651875,68.6971875 63.1171875,68.6971875 C63.4691875,68.6971875 63.7251875,68.4251875 63.7251875,68.0731875 L63.7251875,63.8811875 C63.7251875,62.3291875 64.7811875,61.2891875 66.2051875,61.2891875 C67.6611875,61.2891875 68.4931875,62.2491875 68.4931875,63.7851875 L68.4931875,68.0731875 C68.4931875,68.4251875 68.7651875,68.6971875 69.1171875,68.6971875 C69.4531875,68.6971875 69.7251875,68.4251875 69.7251875,68.0731875 L69.7251875,63.4811875 C69.7251875,61.5131875 68.5571875,60.1691875 66.5571875,60.1691875 C65.1331875,60.1691875 64.2691875,60.8891875 63.7251875,61.7851875 L63.7251875,60.8891875 C63.7251875,60.5371875 63.4531875,60.2651875 63.1011875,60.2651875 C62.7651875,60.2651875 62.4931875,60.5531875 62.4931875,60.8891875 L62.4931875,68.0731875 Z M76.1251875,68.8091875 C73.6451875,68.8091875 71.8371875,66.8571875 71.8371875,64.5211875 L71.8371875,64.4891875 C71.8371875,62.1531875 73.6611875,60.1691875 76.1571875,60.1691875 C78.6371875,60.1691875 80.4611875,62.1211875 80.4611875,64.4571875 L80.4611875,64.4891875 C80.4611875,66.8251875 78.6211875,68.8091875 76.1251875,68.8091875 Z M76.1571875,67.7051875 C77.9491875,67.7051875 79.1971875,66.2651875 79.1971875,64.5211875 L79.1971875,64.4891875 C79.1971875,62.7131875 77.8691875,61.2571875 76.1251875,61.2571875 C74.3331875,61.2571875 73.1011875,62.7131875 73.1011875,64.4571875 L73.1011875,64.4891875 C73.1011875,66.2651875 74.4131875,67.7051875 76.1571875,67.7051875 Z M87.4851875,70.6331875 L87.4851875,60.8891875 C87.4851875,60.5371875 87.7571875,60.2651875 88.0931875,60.2651875 C88.4451875,60.2651875 88.7171875,60.5371875 88.7171875,60.8891875 L88.7171875,62.0091875 C89.3891875,61.0171875 90.3651875,60.1691875 91.8851875,60.1691875 C93.8691875,60.1691875 95.8371875,61.7371875 95.8371875,64.4571875 L95.8371875,64.4891875 C95.8371875,67.1931875 93.8851875,68.7931875 91.8851875,68.7931875 C90.3491875,68.7931875 89.3571875,67.9611875 88.7171875,67.0331875 L88.7171875,70.6331875 C88.7171875,70.9851875 88.4611875,71.2571875 88.1091875,71.2571875 C87.7571875,71.2571875 87.4851875,70.9851875 87.4851875,70.6331875 Z M91.6611875,67.6891875 C93.2611875,67.6891875 94.5731875,66.5051875 94.5731875,64.5051875 L94.5731875,64.4731875 C94.5731875,62.5211875 93.2291875,61.2731875 91.6611875,61.2731875 C90.1251875,61.2731875 88.6691875,62.5691875 88.6691875,64.4571875 L88.6691875,64.4891875 C88.6691875,66.4091875 90.1251875,67.6891875 91.6611875,67.6891875 Z M98.1091875,68.0731875 C98.1091875,68.4251875 98.3811875,68.6971875 98.7331875,68.6971875 C99.0851875,68.6971875 99.3411875,68.4091875 99.3411875,68.0731875 L99.3411875,65.2571875 C99.3411875,62.8731875 100.653187,61.6731875 102.253187,61.4811875 C102.573188,61.4331875 102.797187,61.1931875 102.797187,60.8571875 C102.797187,60.5051875 102.557187,60.2331875 102.189187,60.2331875 C101.149187,60.2331875 99.9491875,61.0651875 99.3411875,62.4411875 L99.3411875,60.8891875 C99.3411875,60.5371875 99.0691875,60.2651875 98.7171875,60.2651875 C98.3811875,60.2651875 98.1091875,60.5531875 98.1091875,60.8891875 L98.1091875,68.0731875 Z M107.053187,68.7931875 C105.517187,68.7931875 103.965187,67.9131875 103.965187,66.2171875 L103.965187,66.1851875 C103.965187,64.4411875 105.405187,63.5131875 107.501187,63.5131875 C108.557187,63.5131875 109.309187,63.6571875 110.045187,63.8651875 L110.045187,63.5771875 C110.045187,62.0891875 109.133187,61.3211875 107.581187,61.3211875 C106.749187,61.3211875 106.045187,61.5131875 105.437187,61.7851875 C105.357187,61.8171875 105.277187,61.8331875 105.213187,61.8331875 C104.925187,61.8331875 104.669187,61.5931875 104.669187,61.3051875 C104.669187,61.0491875 104.845187,60.8571875 105.005187,60.7931875 C105.821187,60.4411875 106.653187,60.2331875 107.709187,60.2331875 C108.877187,60.2331875 109.773187,60.5371875 110.381187,61.1451875 C110.941187,61.7051875 111.229187,62.5051875 111.229187,63.5611875 L111.229187,68.0891875 C111.229187,68.4411875 110.973187,68.6971875 110.637187,68.6971875 C110.285187,68.6971875 110.045187,68.4411875 110.045187,68.1211875 L110.045187,67.3691875 C109.469187,68.1211875 108.509187,68.7931875 107.053187,68.7931875 Z M107.293187,67.8171875 C108.813187,67.8171875 110.061187,66.8891875 110.061187,65.5771875 L110.061187,64.7771875 C109.453187,64.6011875 108.637187,64.4251875 107.629187,64.4251875 C106.077187,64.4251875 105.213187,65.0971875 105.213187,66.1371875 L105.213187,66.1691875 C105.213187,67.2091875 106.173187,67.8171875 107.293187,67.8171875 Z M113.965187,68.6171875 L120.077187,68.6171875 C120.365187,68.6171875 120.605187,68.3771875 120.605187,68.0891875 C120.605187,67.8171875 120.365187,67.5771875 120.077187,67.5771875 L115.037187,67.5771875 L120.269187,61.4331875 C120.445187,61.2411875 120.525187,61.0811875 120.525187,60.8731875 L120.525187,60.8411875 C120.525187,60.5691875 120.269187,60.3451875 119.933187,60.3451875 L114.029187,60.3451875 C113.741187,60.3451875 113.501187,60.5851875 113.501187,60.8731875 C113.501187,61.1611875 113.741187,61.3851875 114.029187,61.3851875 L118.861187,61.3851875 L113.629187,67.5291875 C113.453187,67.7211875 113.373187,67.8811875 113.373187,68.0891875 L113.373187,68.1211875 C113.373187,68.3931875 113.645187,68.6171875 113.965187,68.6171875 Z M126.525187,68.8091875 C124.045187,68.8091875 122.237187,66.8571875 122.237187,64.5211875 L122.237187,64.4891875 C122.237187,62.1531875 124.061187,60.1691875 126.557187,60.1691875 C129.037187,60.1691875 130.861187,62.1211875 130.861187,64.4571875 L130.861187,64.4891875 C130.861187,66.8251875 129.021187,68.8091875 126.525187,68.8091875 Z M126.557187,67.7051875 C128.349187,67.7051875 129.597187,66.2651875 129.597187,64.5211875 L129.597187,64.4891875 C129.597187,62.7131875 128.269187,61.2571875 126.525187,61.2571875 C124.733187,61.2571875 123.501187,62.7131875 123.501187,64.4571875 L123.501187,64.4891875 C123.501187,66.2651875 124.813187,67.7051875 126.557187,67.7051875 Z" id="Produto-chegou-no-pr" fill="#9B9B9B"></path>
                <g id="Group" transform="translate(29.000000, 30.000000)">
                    <path d="M9,18 C13.9705627,18 18,13.9705627 18,9 C18,4.02943725 13.9705627,0 9,0 C4.02943725,0 0,4.02943725 0,9 C0,13.9705627 4.02943725,18 9,18 Z" id="Oval" fill="#417505"></path>
                    <path d="M9,5 L9,13" id="Line" stroke="#FFFFFF" stroke-width="2" stroke-linecap="round" stroke-linejoin="round"></path>
                    <path d="M13,9 L5,9" id="Line" stroke="#FFFFFF" stroke-width="2" stroke-linecap="round" stroke-linejoin="round"></path>
                </g>
            </g>
        </g>
    </g>
</svg>