<?xml version="1.0" encoding="UTF-8"?>
<svg width="264px" height="148px" viewBox="0 0 264 148" version="1.1" xmlns="http://www.w3.org/2000/svg" xmlns:xlink="http://www.w3.org/1999/xlink">
    <!-- Generator: Sketch 42 (36781) - http://www.bohemiancoding.com/sketch -->
    <title>Group 4</title>
    <desc>Created with Sketch.</desc>
    <defs>
        <path d="M213.493123,129.451925 C214.150744,128.55944 215.584753,127.835938 216.677319,127.835938 L242.71512,127.835938 C251.000424,127.835938 257.722656,121.124488 257.722656,112.845495 L257.722656,14.9904424 C257.722656,6.7081163 251.003553,0 242.71512,0 L15.0075366,0 C6.72223234,0 0,6.71144969 0,14.9904424 L0,112.845495 C0,121.127821 6.719103,127.835938 15.0075366,127.835938 L189.079835,127.835938 C190.188712,127.835938 191.613491,128.549602 192.278361,129.451925 L199.916702,139.818245 C201.556035,142.043053 204.215027,142.043627 205.854782,139.818245 L213.493123,129.451925 Z" id="path-1"></path>
        <filter x="-50%" y="-50%" width="200%" height="200%" filterUnits="objectBoundingBox" id="filter-2">
            <feOffset dx="3" dy="3" in="SourceAlpha" result="shadowOffsetOuter1"></feOffset>
            <feGaussianBlur stdDeviation="1.5" in="shadowOffsetOuter1" result="shadowBlurOuter1"></feGaussianBlur>
            <feComposite in="shadowBlurOuter1" in2="SourceAlpha" operator="out" result="shadowBlurOuter1"></feComposite>
            <feColorMatrix values="0 0 0 0 0   0 0 0 0 0   0 0 0 0 0  0 0 0 0.0157382246 0" type="matrix" in="shadowBlurOuter1"></feColorMatrix>
        </filter>
        <mask id="mask-3" maskContentUnits="userSpaceOnUse" maskUnits="objectBoundingBox" x="0" y="0" width="257.722656" height="141.487066" fill="white">
            <use xlink:href="#path-1"></use>
        </mask>
    </defs>
    <g id="Page-1" stroke="none" stroke-width="1" fill="none" fill-rule="evenodd">
        <g id="Desktop-HD" transform="translate(-213.000000, -333.000000)">
            <g id="Group-4" transform="translate(213.000000, 333.000000)">
                <g id="Combined-Shape">
                    <use fill="black" fill-opacity="1" filter="url(#filter-2)" xlink:href="#path-1"></use>
                    <use stroke="#E1E1E1" mask="url(#mask-3)" stroke-width="2" fill="#FFFFFF" fill-rule="evenodd" xlink:href="#path-1"></use>
                </g>
                <path d="M63.3251875,43.6171875 L70.3651875,43.6171875 C70.6851875,43.6171875 70.9411875,43.3611875 70.9411875,43.0411875 C70.9411875,42.7211875 70.6851875,42.4651875 70.3651875,42.4651875 L63.9651875,42.4651875 L63.9651875,38.5451875 L69.5651875,38.5451875 C69.8851875,38.5451875 70.1411875,38.2891875 70.1411875,37.9691875 C70.1411875,37.6651875 69.8851875,37.3931875 69.5651875,37.3931875 L63.9651875,37.3931875 L63.9651875,33.5691875 L70.2851875,33.5691875 C70.6051875,33.5691875 70.8611875,33.3131875 70.8611875,32.9931875 C70.8611875,32.6731875 70.6051875,32.4171875 70.2851875,32.4171875 L63.3251875,32.4171875 C62.9891875,32.4171875 62.7011875,32.7051875 62.7011875,33.0571875 L62.7011875,42.9771875 C62.7011875,43.3291875 62.9891875,43.6171875 63.3251875,43.6171875 Z M73.2131875,43.0731875 C73.2131875,43.4251875 73.4851875,43.6971875 73.8371875,43.6971875 C74.1891875,43.6971875 74.4451875,43.4251875 74.4451875,43.0731875 L74.4451875,38.8811875 C74.4451875,37.3291875 75.5011875,36.2891875 76.9251875,36.2891875 C78.3811875,36.2891875 79.2131875,37.2491875 79.2131875,38.7851875 L79.2131875,43.0731875 C79.2131875,43.4251875 79.4851875,43.6971875 79.8371875,43.6971875 C80.1731875,43.6971875 80.4451875,43.4251875 80.4451875,43.0731875 L80.4451875,38.4811875 C80.4451875,36.5131875 79.2771875,35.1691875 77.2771875,35.1691875 C75.8531875,35.1691875 74.9891875,35.8891875 74.4451875,36.7851875 L74.4451875,35.8891875 C74.4451875,35.5371875 74.1731875,35.2651875 73.8211875,35.2651875 C73.4851875,35.2651875 73.2131875,35.5531875 73.2131875,35.8891875 L73.2131875,43.0731875 Z M85.8371875,43.7611875 C86.3171875,43.7611875 86.7011875,43.6811875 87.0531875,43.5371875 C87.2611875,43.4571875 87.4051875,43.2811875 87.4051875,43.0571875 C87.4051875,42.7691875 87.1651875,42.5291875 86.8771875,42.5291875 C86.7811875,42.5291875 86.5571875,42.6411875 86.1251875,42.6411875 C85.2931875,42.6411875 84.7331875,42.2731875 84.7331875,41.2651875 L84.7331875,36.4331875 L86.8771875,36.4331875 C87.1811875,36.4331875 87.4371875,36.1931875 87.4371875,35.8891875 C87.4371875,35.6011875 87.1811875,35.3451875 86.8771875,35.3451875 L84.7331875,35.3451875 L84.7331875,33.3931875 C84.7331875,33.0571875 84.4451875,32.7691875 84.1091875,32.7691875 C83.7571875,32.7691875 83.5011875,33.0571875 83.5011875,33.3931875 L83.5011875,35.3451875 L82.8291875,35.3451875 C82.5411875,35.3451875 82.2851875,35.5851875 82.2851875,35.8891875 C82.2851875,36.1771875 82.5411875,36.4331875 82.8291875,36.4331875 L83.5011875,36.4331875 L83.5011875,41.4251875 C83.5011875,43.1051875 84.5091875,43.7611875 85.8371875,43.7611875 Z M89.5331875,43.0731875 C89.5331875,43.4251875 89.8051875,43.6971875 90.1571875,43.6971875 C90.5091875,43.6971875 90.7651875,43.4091875 90.7651875,43.0731875 L90.7651875,40.2571875 C90.7651875,37.8731875 92.0771875,36.6731875 93.6771875,36.4811875 C93.9971875,36.4331875 94.2211875,36.1931875 94.2211875,35.8571875 C94.2211875,35.5051875 93.9811875,35.2331875 93.6131875,35.2331875 C92.5731875,35.2331875 91.3731875,36.0651875 90.7651875,37.4411875 L90.7651875,35.8891875 C90.7651875,35.5371875 90.4931875,35.2651875 90.1411875,35.2651875 C89.8051875,35.2651875 89.5331875,35.5531875 89.5331875,35.8891875 L89.5331875,43.0731875 Z M96.7491875,39.0251875 L102.077187,39.0251875 C101.949187,37.5211875 101.085187,36.2091875 99.4371875,36.2091875 C97.9971875,36.2091875 96.9091875,37.4091875 96.7491875,39.0251875 Z M102.749187,42.5611875 C101.965187,43.3131875 101.037187,43.8091875 99.6291875,43.8091875 C97.3571875,43.8091875 95.5011875,42.0651875 95.5011875,39.5051875 L95.5011875,39.4731875 C95.5011875,37.0891875 97.1811875,35.1691875 99.4691875,35.1691875 C101.917187,35.1691875 103.309187,37.1691875 103.309187,39.3611875 C103.309187,39.6971875 103.037187,39.9371875 102.733187,39.9371875 L96.7491875,39.9371875 C96.9251875,41.7291875 98.1891875,42.7371875 99.6611875,42.7371875 C100.685187,42.7371875 101.437187,42.3371875 102.045187,41.7771875 C102.141187,41.6971875 102.253187,41.6331875 102.397187,41.6331875 C102.701187,41.6331875 102.941187,41.8731875 102.941187,42.1611875 C102.941187,42.3051875 102.877187,42.4491875 102.749187,42.5611875 Z M109.149187,46.2091875 C107.885187,46.2091875 106.733187,45.8731875 105.693187,45.2331875 C105.501187,45.1371875 105.373187,44.9451875 105.373187,44.7211875 C105.373187,44.4491875 105.645187,44.1771875 105.933187,44.1771875 C106.045187,44.1771875 106.125187,44.2091875 106.205187,44.2571875 C107.069187,44.8331875 108.061187,45.1531875 109.133187,45.1531875 C110.957187,45.1531875 112.141187,44.1451875 112.141187,42.2091875 L112.141187,41.2331875 C111.421187,42.1931875 110.413187,42.9771875 108.893187,42.9771875 C106.909187,42.9771875 105.005187,41.4891875 105.005187,39.1051875 L105.005187,39.0731875 C105.005187,36.6571875 106.925187,35.1691875 108.893187,35.1691875 C110.445187,35.1691875 111.453187,35.9371875 112.125187,36.8331875 L112.125187,35.8891875 C112.125187,35.5531875 112.381187,35.2651875 112.733187,35.2651875 C113.085187,35.2651875 113.357187,35.5531875 113.357187,35.8891875 L113.357187,42.1771875 C113.357187,43.4571875 112.973187,44.4331875 112.301187,45.1051875 C111.565187,45.8411875 110.461187,46.2091875 109.149187,46.2091875 Z M109.133187,41.8891875 C110.701187,41.8891875 112.173187,40.7531875 112.173187,39.0891875 L112.173187,39.0571875 C112.173187,37.3611875 110.701187,36.2571875 109.133187,36.2571875 C107.565187,36.2571875 106.269187,37.3451875 106.269187,39.0411875 L106.269187,39.0731875 C106.269187,40.7371875 107.597187,41.8891875 109.133187,41.8891875 Z M118.573187,43.7931875 C117.037187,43.7931875 115.485187,42.9131875 115.485187,41.2171875 L115.485187,41.1851875 C115.485187,39.4411875 116.925187,38.5131875 119.021187,38.5131875 C120.077187,38.5131875 120.829187,38.6571875 121.565187,38.8651875 L121.565187,38.5771875 C121.565187,37.0891875 120.653187,36.3211875 119.101187,36.3211875 C118.269187,36.3211875 117.565187,36.5131875 116.957187,36.7851875 C116.877187,36.8171875 116.797187,36.8331875 116.733187,36.8331875 C116.445187,36.8331875 116.189187,36.5931875 116.189187,36.3051875 C116.189187,36.0491875 116.365187,35.8571875 116.525187,35.7931875 C117.341187,35.4411875 118.173187,35.2331875 119.229187,35.2331875 C120.397187,35.2331875 121.293187,35.5371875 121.901187,36.1451875 C122.461187,36.7051875 122.749187,37.5051875 122.749187,38.5611875 L122.749187,43.0891875 C122.749187,43.4411875 122.493187,43.6971875 122.157187,43.6971875 C121.805187,43.6971875 121.565187,43.4411875 121.565187,43.1211875 L121.565187,42.3691875 C120.989187,43.1211875 120.029187,43.7931875 118.573187,43.7931875 Z M118.813187,42.8171875 C120.333187,42.8171875 121.581187,41.8891875 121.581187,40.5771875 L121.581187,39.7771875 C120.973187,39.6011875 120.157187,39.4251875 119.149187,39.4251875 C117.597187,39.4251875 116.733187,40.0971875 116.733187,41.1371875 L116.733187,41.1691875 C116.733187,42.2091875 117.693187,42.8171875 118.813187,42.8171875 Z M130.173187,43.0731875 C130.173187,43.4251875 130.445187,43.6971875 130.797187,43.6971875 C131.149187,43.6971875 131.405187,43.4091875 131.405187,43.0731875 L131.405187,40.2571875 C131.405187,37.8731875 132.717187,36.6731875 134.317187,36.4811875 C134.637187,36.4331875 134.861187,36.1931875 134.861187,35.8571875 C134.861187,35.5051875 134.621187,35.2331875 134.253187,35.2331875 C133.213187,35.2331875 132.013187,36.0651875 131.405187,37.4411875 L131.405187,35.8891875 C131.405187,35.5371875 131.133187,35.2651875 130.781187,35.2651875 C130.445187,35.2651875 130.173187,35.5531875 130.173187,35.8891875 L130.173187,43.0731875 Z M139.117187,43.7931875 C137.581187,43.7931875 136.029187,42.9131875 136.029187,41.2171875 L136.029187,41.1851875 C136.029187,39.4411875 137.469187,38.5131875 139.565187,38.5131875 C140.621187,38.5131875 141.373187,38.6571875 142.109187,38.8651875 L142.109187,38.5771875 C142.109187,37.0891875 141.197187,36.3211875 139.645187,36.3211875 C138.813187,36.3211875 138.109187,36.5131875 137.501187,36.7851875 C137.421187,36.8171875 137.341187,36.8331875 137.277187,36.8331875 C136.989187,36.8331875 136.733187,36.5931875 136.733187,36.3051875 C136.733187,36.0491875 136.909187,35.8571875 137.069187,35.7931875 C137.885187,35.4411875 138.717187,35.2331875 139.773187,35.2331875 C140.941187,35.2331875 141.837187,35.5371875 142.445187,36.1451875 C143.005187,36.7051875 143.293187,37.5051875 143.293187,38.5611875 L143.293187,43.0891875 C143.293187,43.4411875 143.037187,43.6971875 142.701187,43.6971875 C142.349187,43.6971875 142.109187,43.4411875 142.109187,43.1211875 L142.109187,42.3691875 C141.533187,43.1211875 140.573187,43.7931875 139.117187,43.7931875 Z M139.357187,42.8171875 C140.877187,42.8171875 142.125187,41.8891875 142.125187,40.5771875 L142.125187,39.7771875 C141.517187,39.6011875 140.701187,39.4251875 139.693187,39.4251875 C138.141187,39.4251875 137.277187,40.0971875 137.277187,41.1371875 L137.277187,41.1691875 C137.277187,42.2091875 138.237187,42.8171875 139.357187,42.8171875 Z M139.869187,34.1611875 C140.173187,34.1611875 140.365187,34.1131875 140.621187,33.8571875 L141.821187,32.7211875 C141.949187,32.5931875 142.045187,32.4811875 142.045187,32.3531875 C142.045187,32.1291875 141.565187,31.8731875 141.181187,31.8731875 C140.941187,31.8731875 140.765187,32.0011875 140.605187,32.2411875 L139.645187,33.6971875 C139.597187,33.7611875 139.565187,33.8571875 139.565187,33.9371875 C139.565187,34.0651875 139.693187,34.1611875 139.869187,34.1611875 Z M145.917187,45.6331875 L145.917187,35.8891875 C145.917187,35.5371875 146.189187,35.2651875 146.525187,35.2651875 C146.877187,35.2651875 147.149187,35.5371875 147.149187,35.8891875 L147.149187,37.0091875 C147.821187,36.0171875 148.797187,35.1691875 150.317187,35.1691875 C152.301187,35.1691875 154.269187,36.7371875 154.269187,39.4571875 L154.269187,39.4891875 C154.269187,42.1931875 152.317187,43.7931875 150.317187,43.7931875 C148.781187,43.7931875 147.789187,42.9611875 147.149187,42.0331875 L147.149187,45.6331875 C147.149187,45.9851875 146.893187,46.2571875 146.541187,46.2571875 C146.189187,46.2571875 145.917187,45.9851875 145.917187,45.6331875 Z M150.093187,42.6891875 C151.693187,42.6891875 153.005187,41.5051875 153.005187,39.5051875 L153.005187,39.4731875 C153.005187,37.5211875 151.661187,36.2731875 150.093187,36.2731875 C148.557187,36.2731875 147.101187,37.5691875 147.101187,39.4571875 L147.101187,39.4891875 C147.101187,41.4091875 148.557187,42.6891875 150.093187,42.6891875 Z M156.541187,32.9611875 C156.541187,33.3451875 156.861187,33.6171875 157.261187,33.6171875 C157.677187,33.6171875 157.997187,33.3451875 157.997187,32.9611875 L157.997187,32.7531875 C157.997187,32.3531875 157.677187,32.0971875 157.261187,32.0971875 C156.861187,32.0971875 156.541187,32.3531875 156.541187,32.7531875 L156.541187,32.9611875 Z M156.653187,43.0731875 C156.653187,43.4251875 156.925187,43.6971875 157.277187,43.6971875 C157.629187,43.6971875 157.885187,43.4251875 157.885187,43.0731875 L157.885187,35.8891875 C157.885187,35.5371875 157.613187,35.2651875 157.261187,35.2651875 C156.925187,35.2651875 156.653187,35.5531875 156.653187,35.8891875 L156.653187,43.0731875 Z M168.621187,32.4811875 L168.621187,43.0731875 C168.621187,43.4251875 168.349187,43.6971875 168.013187,43.6971875 C167.661187,43.6971875 167.389187,43.4251875 167.389187,43.0731875 L167.389187,41.9531875 C166.717187,42.9451875 165.741187,43.7931875 164.221187,43.7931875 C162.237187,43.7931875 160.269187,42.2251875 160.269187,39.5051875 L160.269187,39.4731875 C160.269187,36.7691875 162.237187,35.1691875 164.221187,35.1691875 C165.757187,35.1691875 166.749187,36.0011875 167.389187,36.9291875 L167.389187,32.4811875 C167.389187,32.1291875 167.645187,31.8571875 167.997187,31.8571875 C168.349187,31.8571875 168.621187,32.1291875 168.621187,32.4811875 Z M164.445187,36.2731875 C162.845187,36.2731875 161.533187,37.4571875 161.533187,39.4571875 L161.533187,39.4891875 C161.533187,41.4411875 162.893187,42.6891875 164.445187,42.6891875 C165.981187,42.6891875 167.437187,41.3931875 167.437187,39.4891875 L167.437187,39.4571875 C167.437187,37.5531875 165.981187,36.2731875 164.445187,36.2731875 Z M173.837187,43.7931875 C172.301187,43.7931875 170.749187,42.9131875 170.749187,41.2171875 L170.749187,41.1851875 C170.749187,39.4411875 172.189187,38.5131875 174.285187,38.5131875 C175.341187,38.5131875 176.093187,38.6571875 176.829187,38.8651875 L176.829187,38.5771875 C176.829187,37.0891875 175.917187,36.3211875 174.365187,36.3211875 C173.533187,36.3211875 172.829187,36.5131875 172.221187,36.7851875 C172.141187,36.8171875 172.061187,36.8331875 171.997187,36.8331875 C171.709187,36.8331875 171.453187,36.5931875 171.453187,36.3051875 C171.453187,36.0491875 171.629187,35.8571875 171.789187,35.7931875 C172.605187,35.4411875 173.437187,35.2331875 174.493187,35.2331875 C175.661187,35.2331875 176.557187,35.5371875 177.165187,36.1451875 C177.725187,36.7051875 178.013187,37.5051875 178.013187,38.5611875 L178.013187,43.0891875 C178.013187,43.4411875 177.757187,43.6971875 177.421187,43.6971875 C177.069187,43.6971875 176.829187,43.4411875 176.829187,43.1211875 L176.829187,42.3691875 C176.253187,43.1211875 175.293187,43.7931875 173.837187,43.7931875 Z M174.077187,42.8171875 C175.597187,42.8171875 176.845187,41.8891875 176.845187,40.5771875 L176.845187,39.7771875 C176.237187,39.6011875 175.421187,39.4251875 174.413187,39.4251875 C172.861187,39.4251875 171.997187,40.0971875 171.997187,41.1371875 L171.997187,41.1691875 C171.997187,42.2091875 172.957187,42.8171875 174.077187,42.8171875 Z M186.173187,39.0251875 L191.501187,39.0251875 C191.373187,37.5211875 190.509187,36.2091875 188.861187,36.2091875 C187.421187,36.2091875 186.333187,37.4091875 186.173187,39.0251875 Z M192.173187,42.5611875 C191.389187,43.3131875 190.461187,43.8091875 189.053187,43.8091875 C186.781187,43.8091875 184.925187,42.0651875 184.925187,39.5051875 L184.925187,39.4731875 C184.925187,37.0891875 186.605187,35.1691875 188.893187,35.1691875 C191.341187,35.1691875 192.733187,37.1691875 192.733187,39.3611875 C192.733187,39.6971875 192.461187,39.9371875 192.157187,39.9371875 L186.173187,39.9371875 C186.349187,41.7291875 187.613187,42.7371875 189.085187,42.7371875 C190.109187,42.7371875 190.861187,42.3371875 191.469187,41.7771875 C191.565187,41.6971875 191.677187,41.6331875 191.821187,41.6331875 C192.125187,41.6331875 192.365187,41.8731875 192.365187,42.1611875 C192.365187,42.3051875 192.301187,42.4491875 192.173187,42.5611875 Z M62.4931875,70.6331875 L62.4931875,60.8891875 C62.4931875,60.5371875 62.7651875,60.2651875 63.1011875,60.2651875 C63.4531875,60.2651875 63.7251875,60.5371875 63.7251875,60.8891875 L63.7251875,62.0091875 C64.3971875,61.0171875 65.3731875,60.1691875 66.8931875,60.1691875 C68.8771875,60.1691875 70.8451875,61.7371875 70.8451875,64.4571875 L70.8451875,64.4891875 C70.8451875,67.1931875 68.8931875,68.7931875 66.8931875,68.7931875 C65.3571875,68.7931875 64.3651875,67.9611875 63.7251875,67.0331875 L63.7251875,70.6331875 C63.7251875,70.9851875 63.4691875,71.2571875 63.1171875,71.2571875 C62.7651875,71.2571875 62.4931875,70.9851875 62.4931875,70.6331875 Z M66.6691875,67.6891875 C68.2691875,67.6891875 69.5811875,66.5051875 69.5811875,64.5051875 L69.5811875,64.4731875 C69.5811875,62.5211875 68.2371875,61.2731875 66.6691875,61.2731875 C65.1331875,61.2731875 63.6771875,62.5691875 63.6771875,64.4571875 L63.6771875,64.4891875 C63.6771875,66.4091875 65.1331875,67.6891875 66.6691875,67.6891875 Z M73.1171875,68.0731875 C73.1171875,68.4251875 73.3891875,68.6971875 73.7411875,68.6971875 C74.0931875,68.6971875 74.3491875,68.4091875 74.3491875,68.0731875 L74.3491875,65.2571875 C74.3491875,62.8731875 75.6611875,61.6731875 77.2611875,61.4811875 C77.5811875,61.4331875 77.8051875,61.1931875 77.8051875,60.8571875 C77.8051875,60.5051875 77.5651875,60.2331875 77.1971875,60.2331875 C76.1571875,60.2331875 74.9571875,61.0651875 74.3491875,62.4411875 L74.3491875,60.8891875 C74.3491875,60.5371875 74.0771875,60.2651875 73.7251875,60.2651875 C73.3891875,60.2651875 73.1171875,60.5531875 73.1171875,60.8891875 L73.1171875,68.0731875 Z M83.3731875,68.8091875 C80.8931875,68.8091875 79.0851875,66.8571875 79.0851875,64.5211875 L79.0851875,64.4891875 C79.0851875,62.1531875 80.9091875,60.1691875 83.4051875,60.1691875 C85.8851875,60.1691875 87.7091875,62.1211875 87.7091875,64.4571875 L87.7091875,64.4891875 C87.7091875,66.8251875 85.8691875,68.8091875 83.3731875,68.8091875 Z M83.4051875,67.7051875 C85.1971875,67.7051875 86.4451875,66.2651875 86.4451875,64.5211875 L86.4451875,64.4891875 C86.4451875,62.7131875 85.1171875,61.2571875 83.3731875,61.2571875 C81.5811875,61.2571875 80.3491875,62.7131875 80.3491875,64.4571875 L80.3491875,64.4891875 C80.3491875,66.2651875 81.6611875,67.7051875 83.4051875,67.7051875 Z M97.8051875,57.4811875 L97.8051875,68.0731875 C97.8051875,68.4251875 97.5331875,68.6971875 97.1971875,68.6971875 C96.8451875,68.6971875 96.5731875,68.4251875 96.5731875,68.0731875 L96.5731875,66.9531875 C95.9011875,67.9451875 94.9251875,68.7931875 93.4051875,68.7931875 C91.4211875,68.7931875 89.4531875,67.2251875 89.4531875,64.5051875 L89.4531875,64.4731875 C89.4531875,61.7691875 91.4211875,60.1691875 93.4051875,60.1691875 C94.9411875,60.1691875 95.9331875,61.0011875 96.5731875,61.9291875 L96.5731875,57.4811875 C96.5731875,57.1291875 96.8291875,56.8571875 97.1811875,56.8571875 C97.5331875,56.8571875 97.8051875,57.1291875 97.8051875,57.4811875 Z M93.6291875,61.2731875 C92.0291875,61.2731875 90.7171875,62.4571875 90.7171875,64.4571875 L90.7171875,64.4891875 C90.7171875,66.4411875 92.0771875,67.6891875 93.6291875,67.6891875 C95.1651875,67.6891875 96.6211875,66.3931875 96.6211875,64.4891875 L96.6211875,64.4571875 C96.6211875,62.5531875 95.1651875,61.2731875 93.6291875,61.2731875 Z M107.645187,60.8891875 C107.645187,60.5371875 107.373187,60.2651875 107.037187,60.2651875 C106.685187,60.2651875 106.429187,60.5371875 106.429187,60.8891875 L106.429187,65.0811875 C106.429187,66.6331875 105.357187,67.6731875 103.949187,67.6731875 C102.493187,67.6731875 101.661187,66.7131875 101.661187,65.1771875 L101.661187,60.8891875 C101.661187,60.5371875 101.373187,60.2651875 101.037187,60.2651875 C100.685187,60.2651875 100.429187,60.5371875 100.429187,60.8891875 L100.429187,65.4811875 C100.429187,67.4491875 101.597187,68.7931875 103.597187,68.7931875 C105.021187,68.7931875 105.869187,68.0731875 106.429187,67.1771875 L106.429187,68.0731875 C106.429187,68.4251875 106.701187,68.6971875 107.037187,68.6971875 C107.389187,68.6971875 107.645187,68.4091875 107.645187,68.0731875 L107.645187,60.8891875 Z M113.181187,68.7611875 C113.661187,68.7611875 114.045187,68.6811875 114.397187,68.5371875 C114.605187,68.4571875 114.749187,68.2811875 114.749187,68.0571875 C114.749187,67.7691875 114.509187,67.5291875 114.221187,67.5291875 C114.125187,67.5291875 113.901187,67.6411875 113.469187,67.6411875 C112.637187,67.6411875 112.077187,67.2731875 112.077187,66.2651875 L112.077187,61.4331875 L114.221187,61.4331875 C114.525187,61.4331875 114.781187,61.1931875 114.781187,60.8891875 C114.781187,60.6011875 114.525187,60.3451875 114.221187,60.3451875 L112.077187,60.3451875 L112.077187,58.3931875 C112.077187,58.0571875 111.789187,57.7691875 111.453187,57.7691875 C111.101187,57.7691875 110.845187,58.0571875 110.845187,58.3931875 L110.845187,60.3451875 L110.173187,60.3451875 C109.885187,60.3451875 109.629187,60.5851875 109.629187,60.8891875 C109.629187,61.1771875 109.885187,61.4331875 110.173187,61.4331875 L110.845187,61.4331875 L110.845187,66.4251875 C110.845187,68.1051875 111.853187,68.7611875 113.181187,68.7611875 Z M120.653187,68.8091875 C118.173187,68.8091875 116.365187,66.8571875 116.365187,64.5211875 L116.365187,64.4891875 C116.365187,62.1531875 118.189187,60.1691875 120.685187,60.1691875 C123.165187,60.1691875 124.989187,62.1211875 124.989187,64.4571875 L124.989187,64.4891875 C124.989187,66.8251875 123.149187,68.8091875 120.653187,68.8091875 Z M120.685187,67.7051875 C122.477187,67.7051875 123.725187,66.2651875 123.725187,64.5211875 L123.725187,64.4891875 C123.725187,62.7131875 122.397187,61.2571875 120.653187,61.2571875 C118.861187,61.2571875 117.629187,62.7131875 117.629187,64.4571875 L117.629187,64.4891875 C117.629187,66.2651875 118.941187,67.7051875 120.685187,67.7051875 Z M132.749187,64.0251875 L138.077187,64.0251875 C137.949187,62.5211875 137.085187,61.2091875 135.437187,61.2091875 C133.997187,61.2091875 132.909187,62.4091875 132.749187,64.0251875 Z M138.749187,67.5611875 C137.965187,68.3131875 137.037187,68.8091875 135.629187,68.8091875 C133.357187,68.8091875 131.501187,67.0651875 131.501187,64.5051875 L131.501187,64.4731875 C131.501187,62.0891875 133.181187,60.1691875 135.469187,60.1691875 C137.917187,60.1691875 139.309187,62.1691875 139.309187,64.3611875 C139.309187,64.6971875 139.037187,64.9371875 138.733187,64.9371875 L132.749187,64.9371875 C132.925187,66.7291875 134.189187,67.7371875 135.661187,67.7371875 C136.685187,67.7371875 137.437187,67.3371875 138.045187,66.7771875 C138.141187,66.6971875 138.253187,66.6331875 138.397187,66.6331875 C138.701187,66.6331875 138.941187,66.8731875 138.941187,67.1611875 C138.941187,67.3051875 138.877187,67.4491875 138.749187,67.5611875 Z M141.069187,68.1371875 C141.069187,68.4411875 141.309187,68.6971875 141.629187,68.6971875 C141.853187,68.6971875 142.013187,68.5691875 142.157187,68.3931875 L144.653187,65.2251875 L147.165187,68.4091875 C147.309187,68.5851875 147.469187,68.6971875 147.709187,68.6971875 C148.029187,68.6971875 148.285187,68.4571875 148.285187,68.1211875 C148.285187,67.9611875 148.221187,67.8171875 148.109187,67.6731875 L145.421187,64.3771875 L147.997187,61.2251875 C148.093187,61.1131875 148.157187,60.9851875 148.157187,60.8251875 C148.157187,60.5051875 147.917187,60.2651875 147.597187,60.2651875 C147.373187,60.2651875 147.213187,60.3931875 147.069187,60.5691875 L144.701187,63.5771875 L142.317187,60.5531875 C142.173187,60.3771875 142.013187,60.2651875 141.773187,60.2651875 C141.453187,60.2651875 141.197187,60.4891875 141.197187,60.8411875 C141.197187,61.0011875 141.261187,61.1451875 141.389187,61.2891875 L143.933187,64.4091875 L141.229187,67.7371875 C141.117187,67.8491875 141.069187,67.9771875 141.069187,68.1371875 Z M154.349187,68.8091875 C155.741187,68.8091875 156.685187,68.2651875 157.469187,67.4811875 C157.565187,67.3851875 157.629187,67.2411875 157.629187,67.0971875 C157.629187,66.8091875 157.373187,66.5371875 157.069187,66.5371875 C156.909187,66.5371875 156.797187,66.6171875 156.717187,66.6971875 C156.109187,67.2731875 155.357187,67.7051875 154.413187,67.7051875 C152.685187,67.7051875 151.373187,66.2811875 151.373187,64.4891875 L151.373187,64.4571875 C151.373187,62.6811875 152.653187,61.2571875 154.333187,61.2571875 C155.325187,61.2571875 155.997187,61.7051875 156.589187,62.2491875 C156.685187,62.3291875 156.829187,62.3931875 156.989187,62.3931875 C157.309187,62.3931875 157.581187,62.1371875 157.581187,61.8011875 C157.581187,61.6091875 157.485187,61.4491875 157.389187,61.3691875 C156.653187,60.6971875 155.725187,60.1691875 154.349187,60.1691875 C151.933187,60.1691875 150.109187,62.1531875 150.109187,64.4891875 L150.109187,64.5211875 C150.109187,66.8411875 151.933187,68.8091875 154.349187,68.8091875 Z M160.493187,64.0251875 L165.821187,64.0251875 C165.693187,62.5211875 164.829187,61.2091875 163.181187,61.2091875 C161.741187,61.2091875 160.653187,62.4091875 160.493187,64.0251875 Z M166.493187,67.5611875 C165.709187,68.3131875 164.781187,68.8091875 163.373187,68.8091875 C161.101187,68.8091875 159.245187,67.0651875 159.245187,64.5051875 L159.245187,64.4731875 C159.245187,62.0891875 160.925187,60.1691875 163.213187,60.1691875 C165.661187,60.1691875 167.053187,62.1691875 167.053187,64.3611875 C167.053187,64.6971875 166.781187,64.9371875 166.477187,64.9371875 L160.493187,64.9371875 C160.669187,66.7291875 161.933187,67.7371875 163.405187,67.7371875 C164.429187,67.7371875 165.181187,67.3371875 165.789187,66.7771875 C165.885187,66.6971875 165.997187,66.6331875 166.141187,66.6331875 C166.445187,66.6331875 166.685187,66.8731875 166.685187,67.1611875 C166.685187,67.3051875 166.621187,67.4491875 166.493187,67.5611875 Z M169.341187,68.0731875 C169.341187,68.4251875 169.613187,68.6971875 169.965187,68.6971875 C170.317187,68.6971875 170.573187,68.4251875 170.573187,68.0731875 L170.573187,57.4811875 C170.573187,57.1451875 170.301187,56.8571875 169.949187,56.8571875 C169.613187,56.8571875 169.341187,57.1451875 169.341187,57.4811875 L169.341187,68.0731875 Z M174.173187,64.0251875 L179.501187,64.0251875 C179.373187,62.5211875 178.509187,61.2091875 176.861187,61.2091875 C175.421187,61.2091875 174.333187,62.4091875 174.173187,64.0251875 Z M180.173187,67.5611875 C179.389187,68.3131875 178.461187,68.8091875 177.053187,68.8091875 C174.781187,68.8091875 172.925187,67.0651875 172.925187,64.5051875 L172.925187,64.4731875 C172.925187,62.0891875 174.605187,60.1691875 176.893187,60.1691875 C179.341187,60.1691875 180.733187,62.1691875 180.733187,64.3611875 C180.733187,64.6971875 180.461187,64.9371875 180.157187,64.9371875 L174.173187,64.9371875 C174.349187,66.7291875 175.613187,67.7371875 177.085187,67.7371875 C178.109187,67.7371875 178.861187,67.3371875 179.469187,66.7771875 C179.565187,66.6971875 179.677187,66.6331875 179.821187,66.6331875 C180.125187,66.6331875 180.365187,66.8731875 180.365187,67.1611875 C180.365187,67.3051875 180.301187,67.4491875 180.173187,67.5611875 Z M182.909187,68.0731875 C182.909187,68.4251875 183.181187,68.6971875 183.533187,68.6971875 C183.885187,68.6971875 184.141187,68.4251875 184.141187,68.0731875 L184.141187,63.8811875 C184.141187,62.3291875 185.197187,61.2891875 186.621187,61.2891875 C188.077187,61.2891875 188.909187,62.2491875 188.909187,63.7851875 L188.909187,68.0731875 C188.909187,68.4251875 189.181187,68.6971875 189.533187,68.6971875 C189.869187,68.6971875 190.141187,68.4251875 190.141187,68.0731875 L190.141187,63.4811875 C190.141187,61.5131875 188.973187,60.1691875 186.973187,60.1691875 C185.549187,60.1691875 184.685187,60.8891875 184.141187,61.7851875 L184.141187,60.8891875 C184.141187,60.5371875 183.869187,60.2651875 183.517187,60.2651875 C183.181187,60.2651875 182.909187,60.5531875 182.909187,60.8891875 L182.909187,68.0731875 Z M195.533187,68.7611875 C196.013187,68.7611875 196.397187,68.6811875 196.749187,68.5371875 C196.957187,68.4571875 197.101187,68.2811875 197.101187,68.0571875 C197.101187,67.7691875 196.861187,67.5291875 196.573187,67.5291875 C196.477187,67.5291875 196.253187,67.6411875 195.821187,67.6411875 C194.989187,67.6411875 194.429187,67.2731875 194.429187,66.2651875 L194.429187,61.4331875 L196.573187,61.4331875 C196.877187,61.4331875 197.133187,61.1931875 197.133187,60.8891875 C197.133187,60.6011875 196.877187,60.3451875 196.573187,60.3451875 L194.429187,60.3451875 L194.429187,58.3931875 C194.429187,58.0571875 194.141187,57.7691875 193.805187,57.7691875 C193.453187,57.7691875 193.197187,58.0571875 193.197187,58.3931875 L193.197187,60.3451875 L192.525187,60.3451875 C192.237187,60.3451875 191.981187,60.5851875 191.981187,60.8891875 C191.981187,61.1771875 192.237187,61.4331875 192.525187,61.4331875 L193.197187,61.4331875 L193.197187,66.4251875 C193.197187,68.1051875 194.205187,68.7611875 195.533187,68.7611875 Z M199.965187,64.0251875 L205.293187,64.0251875 C205.165187,62.5211875 204.301187,61.2091875 202.653187,61.2091875 C201.213187,61.2091875 200.125187,62.4091875 199.965187,64.0251875 Z M205.965187,67.5611875 C205.181187,68.3131875 204.253187,68.8091875 202.845187,68.8091875 C200.573187,68.8091875 198.717187,67.0651875 198.717187,64.5051875 L198.717187,64.4731875 C198.717187,62.0891875 200.397187,60.1691875 202.685187,60.1691875 C205.133187,60.1691875 206.525187,62.1691875 206.525187,64.3611875 C206.525187,64.6971875 206.253187,64.9371875 205.949187,64.9371875 L199.965187,64.9371875 C200.141187,66.7291875 201.405187,67.7371875 202.877187,67.7371875 C203.901187,67.7371875 204.653187,67.3371875 205.261187,66.7771875 C205.357187,66.6971875 205.469187,66.6331875 205.613187,66.6331875 C205.917187,66.6331875 206.157187,66.8731875 206.157187,67.1611875 C206.157187,67.3051875 206.093187,67.4491875 205.965187,67.5611875 Z M208.525187,67.6091875 L208.525187,67.9291875 C208.525187,68.3611875 208.845187,68.6971875 209.293187,68.6971875 C209.725187,68.6971875 210.045187,68.3611875 210.045187,67.9291875 L210.045187,67.6091875 C210.045187,67.1771875 209.725187,66.8571875 209.293187,66.8571875 C208.845187,66.8571875 208.525187,67.1771875 208.525187,67.6091875 Z M67.9011875,93.8091875 C64.4931875,93.8091875 62.2051875,91.1371875 62.2051875,88.0491875 L62.2051875,88.0171875 C62.2051875,84.9291875 64.5251875,82.2251875 67.9331875,82.2251875 C71.3411875,82.2251875 73.6291875,84.8971875 73.6291875,87.9851875 L73.6291875,88.0171875 C73.6291875,91.1051875 71.3091875,93.8091875 67.9011875,93.8091875 Z M67.9331875,92.6411875 C70.4931875,92.6411875 72.3171875,90.5931875 72.3171875,88.0491875 L72.3171875,88.0171875 C72.3171875,85.4731875 70.4611875,83.3931875 67.9011875,83.3931875 C65.3411875,83.3931875 63.5171875,85.4411875 63.5171875,87.9851875 L63.5171875,88.0171875 C63.5171875,90.5611875 65.3731875,92.6411875 67.9331875,92.6411875 Z M76.0931875,93.0731875 L76.0931875,82.4811875 C76.0931875,82.1291875 76.3651875,81.8571875 76.7011875,81.8571875 C77.0531875,81.8571875 77.3251875,82.1291875 77.3251875,82.4811875 L77.3251875,87.0091875 C77.9971875,86.0171875 78.9731875,85.1691875 80.4931875,85.1691875 C82.4771875,85.1691875 84.4451875,86.7371875 84.4451875,89.4571875 L84.4451875,89.4891875 C84.4451875,92.1931875 82.4931875,93.7931875 80.4931875,93.7931875 C78.9571875,93.7931875 77.9651875,92.9611875 77.3251875,92.0331875 L77.3251875,93.0731875 C77.3251875,93.4091875 77.0691875,93.6971875 76.7171875,93.6971875 C76.3651875,93.6971875 76.0931875,93.4091875 76.0931875,93.0731875 Z M80.2691875,92.6891875 C81.8691875,92.6891875 83.1811875,91.5051875 83.1811875,89.5051875 L83.1811875,89.4731875 C83.1811875,87.5211875 81.8371875,86.2731875 80.2691875,86.2731875 C78.7331875,86.2731875 77.2771875,87.5691875 77.2771875,89.4571875 L77.2771875,89.4891875 C77.2771875,91.4091875 78.7331875,92.6891875 80.2691875,92.6891875 Z M86.7171875,93.0731875 C86.7171875,93.4251875 86.9891875,93.6971875 87.3411875,93.6971875 C87.6931875,93.6971875 87.9491875,93.4091875 87.9491875,93.0731875 L87.9491875,90.2571875 C87.9491875,87.8731875 89.2611875,86.6731875 90.8611875,86.4811875 C91.1811875,86.4331875 91.4051875,86.1931875 91.4051875,85.8571875 C91.4051875,85.5051875 91.1651875,85.2331875 90.7971875,85.2331875 C89.7571875,85.2331875 88.5571875,86.0651875 87.9491875,87.4411875 L87.9491875,85.8891875 C87.9491875,85.5371875 87.6771875,85.2651875 87.3251875,85.2651875 C86.9891875,85.2651875 86.7171875,85.5531875 86.7171875,85.8891875 L86.7171875,93.0731875 Z M93.1971875,82.9611875 C93.1971875,83.3451875 93.5171875,83.6171875 93.9171875,83.6171875 C94.3331875,83.6171875 94.6531875,83.3451875 94.6531875,82.9611875 L94.6531875,82.7531875 C94.6531875,82.3531875 94.3331875,82.0971875 93.9171875,82.0971875 C93.5171875,82.0971875 93.1971875,82.3531875 93.1971875,82.7531875 L93.1971875,82.9611875 Z M93.3091875,93.0731875 C93.3091875,93.4251875 93.5811875,93.6971875 93.9331875,93.6971875 C94.2851875,93.6971875 94.5411875,93.4251875 94.5411875,93.0731875 L94.5411875,85.8891875 C94.5411875,85.5371875 94.2691875,85.2651875 93.9171875,85.2651875 C93.5811875,85.2651875 93.3091875,85.5531875 93.3091875,85.8891875 L93.3091875,93.0731875 Z M101.069187,96.2091875 C99.8051875,96.2091875 98.6531875,95.8731875 97.6131875,95.2331875 C97.4211875,95.1371875 97.2931875,94.9451875 97.2931875,94.7211875 C97.2931875,94.4491875 97.5651875,94.1771875 97.8531875,94.1771875 C97.9651875,94.1771875 98.0451875,94.2091875 98.1251875,94.2571875 C98.9891875,94.8331875 99.9811875,95.1531875 101.053187,95.1531875 C102.877187,95.1531875 104.061187,94.1451875 104.061187,92.2091875 L104.061187,91.2331875 C103.341187,92.1931875 102.333187,92.9771875 100.813187,92.9771875 C98.8291875,92.9771875 96.9251875,91.4891875 96.9251875,89.1051875 L96.9251875,89.0731875 C96.9251875,86.6571875 98.8451875,85.1691875 100.813187,85.1691875 C102.365187,85.1691875 103.373187,85.9371875 104.045187,86.8331875 L104.045187,85.8891875 C104.045187,85.5531875 104.301187,85.2651875 104.653187,85.2651875 C105.005187,85.2651875 105.277187,85.5531875 105.277187,85.8891875 L105.277187,92.1771875 C105.277187,93.4571875 104.893187,94.4331875 104.221187,95.1051875 C103.485187,95.8411875 102.381187,96.2091875 101.069187,96.2091875 Z M101.053187,91.8891875 C102.621187,91.8891875 104.093187,90.7531875 104.093187,89.0891875 L104.093187,89.0571875 C104.093187,87.3611875 102.621187,86.2571875 101.053187,86.2571875 C99.4851875,86.2571875 98.1891875,87.3451875 98.1891875,89.0411875 L98.1891875,89.0731875 C98.1891875,90.7371875 99.5171875,91.8891875 101.053187,91.8891875 Z M110.493187,93.7931875 C108.957187,93.7931875 107.405187,92.9131875 107.405187,91.2171875 L107.405187,91.1851875 C107.405187,89.4411875 108.845187,88.5131875 110.941187,88.5131875 C111.997187,88.5131875 112.749187,88.6571875 113.485187,88.8651875 L113.485187,88.5771875 C113.485187,87.0891875 112.573187,86.3211875 111.021187,86.3211875 C110.189187,86.3211875 109.485187,86.5131875 108.877187,86.7851875 C108.797187,86.8171875 108.717187,86.8331875 108.653187,86.8331875 C108.365187,86.8331875 108.109187,86.5931875 108.109187,86.3051875 C108.109187,86.0491875 108.285187,85.8571875 108.445187,85.7931875 C109.261187,85.4411875 110.093187,85.2331875 111.149187,85.2331875 C112.317187,85.2331875 113.213187,85.5371875 113.821187,86.1451875 C114.381187,86.7051875 114.669187,87.5051875 114.669187,88.5611875 L114.669187,93.0891875 C114.669187,93.4411875 114.413187,93.6971875 114.077187,93.6971875 C113.725187,93.6971875 113.485187,93.4411875 113.485187,93.1211875 L113.485187,92.3691875 C112.909187,93.1211875 111.949187,93.7931875 110.493187,93.7931875 Z M110.733187,92.8171875 C112.253187,92.8171875 113.501187,91.8891875 113.501187,90.5771875 L113.501187,89.7771875 C112.893187,89.6011875 112.077187,89.4251875 111.069187,89.4251875 C109.517187,89.4251875 108.653187,90.0971875 108.653187,91.1371875 L108.653187,91.1691875 C108.653187,92.2091875 109.613187,92.8171875 110.733187,92.8171875 Z M125.165187,82.4811875 L125.165187,93.0731875 C125.165187,93.4251875 124.893187,93.6971875 124.557187,93.6971875 C124.205187,93.6971875 123.933187,93.4251875 123.933187,93.0731875 L123.933187,91.9531875 C123.261187,92.9451875 122.285187,93.7931875 120.765187,93.7931875 C118.781187,93.7931875 116.813187,92.2251875 116.813187,89.5051875 L116.813187,89.4731875 C116.813187,86.7691875 118.781187,85.1691875 120.765187,85.1691875 C122.301187,85.1691875 123.293187,86.0011875 123.933187,86.9291875 L123.933187,82.4811875 C123.933187,82.1291875 124.189187,81.8571875 124.541187,81.8571875 C124.893187,81.8571875 125.165187,82.1291875 125.165187,82.4811875 Z M120.989187,86.2731875 C119.389187,86.2731875 118.077187,87.4571875 118.077187,89.4571875 L118.077187,89.4891875 C118.077187,91.4411875 119.437187,92.6891875 120.989187,92.6891875 C122.525187,92.6891875 123.981187,91.3931875 123.981187,89.4891875 L123.981187,89.4571875 C123.981187,87.5531875 122.525187,86.2731875 120.989187,86.2731875 Z M131.693187,93.8091875 C129.213187,93.8091875 127.405187,91.8571875 127.405187,89.5211875 L127.405187,89.4891875 C127.405187,87.1531875 129.229187,85.1691875 131.725187,85.1691875 C134.205187,85.1691875 136.029187,87.1211875 136.029187,89.4571875 L136.029187,89.4891875 C136.029187,91.8251875 134.189187,93.8091875 131.693187,93.8091875 Z M131.725187,92.7051875 C133.517187,92.7051875 134.765187,91.2651875 134.765187,89.5211875 L134.765187,89.4891875 C134.765187,87.7131875 133.437187,86.2571875 131.693187,86.2571875 C129.901187,86.2571875 128.669187,87.7131875 128.669187,89.4571875 L128.669187,89.4891875 C128.669187,91.2651875 129.981187,92.7051875 131.725187,92.7051875 Z M138.669187,90.1451875 C138.685187,90.3531875 138.845187,90.5131875 139.053187,90.5131875 C139.245187,90.5131875 139.405187,90.3531875 139.421187,90.1451875 L139.789187,82.8811875 C139.805187,82.5931875 139.613187,82.3691875 139.325187,82.3691875 L138.765187,82.3691875 C138.493187,82.3691875 138.285187,82.5931875 138.301187,82.8811875 L138.669187,90.1451875 Z M138.285187,92.6091875 L138.285187,92.9291875 C138.285187,93.3611875 138.605187,93.6971875 139.053187,93.6971875 C139.485187,93.6971875 139.805187,93.3611875 139.805187,92.9291875 L139.805187,92.6091875 C139.805187,92.1771875 139.485187,91.8571875 139.053187,91.8571875 C138.605187,91.8571875 138.285187,92.1771875 138.285187,92.6091875 Z" id="Entrega-rápida-e-pro" fill="#9B9B9B"></path>
                <g id="Group" transform="translate(29.000000, 30.000000)">
                    <path d="M9,18 C13.9705627,18 18,13.9705627 18,9 C18,4.02943725 13.9705627,0 9,0 C4.02943725,0 0,4.02943725 0,9 C0,13.9705627 4.02943725,18 9,18 Z" id="Oval" fill="#417505"></path>
                    <path d="M9,5 L9,13" id="Line" stroke="#FFFFFF" stroke-width="2" stroke-linecap="round" stroke-linejoin="round"></path>
                    <path d="M13,9 L5,9" id="Line" stroke="#FFFFFF" stroke-width="2" stroke-linecap="round" stroke-linejoin="round"></path>
                </g>
            </g>
        </g>
    </g>
</svg>