<?xml version="1.0" encoding="utf-8"?>
<!-- Generator: Adobe Illustrator 16.0.0, SVG Export Plug-In . SVG Version: 6.00 Build 0)  -->
<!DOCTYPE svg PUBLIC "-//W3C//DTD SVG 1.1//EN" "http://www.w3.org/Graphics/SVG/1.1/DTD/svg11.dtd">
<svg version="1.1" id="Capa_1" xmlns="http://www.w3.org/2000/svg" xmlns:xlink="http://www.w3.org/1999/xlink" x="0px" y="0px"
	 width="28.315px" height="23px" viewBox="465.842 268.5 28.315 23" enable-background="new 465.842 268.5 28.315 23"
	 xml:space="preserve">
<g>
	<g>
		<path fill="#FFFFFF" d="M494.157,271.222c-1.042,0.461-2.16,0.775-3.335,0.914c1.199-0.718,2.117-1.857,2.553-3.211
			c-1.125,0.666-2.367,1.148-3.69,1.41c-1.06-1.131-2.567-1.835-4.239-1.835c-3.208,0-5.809,2.601-5.809,5.808
			c0,0.455,0.051,0.898,0.15,1.323c-4.827-0.243-9.107-2.556-11.972-6.069c-0.5,0.857-0.786,1.854-0.786,2.92
			c0,2.016,1.026,3.793,2.583,4.834c-0.952-0.032-1.847-0.294-2.631-0.729v0.072c0,2.812,2.003,5.161,4.659,5.695
			c-0.487,0.131-1,0.203-1.531,0.203c-0.375,0-0.738-0.037-1.093-0.107c0.739,2.309,2.884,3.988,5.425,4.034
			c-1.987,1.557-4.493,2.482-7.214,2.482c-0.469,0-0.931-0.028-1.385-0.08c2.571,1.651,5.623,2.613,8.903,2.613
			c10.686,0,16.526-8.851,16.526-16.525l-0.02-0.752C492.393,273.408,493.381,272.386,494.157,271.222z"/>
	</g>
</g>
</svg>
