<?xml version="1.0" encoding="utf-8"?>
<!-- Generator: Adobe Illustrator 16.0.0, SVG Export Plug-In . SVG Version: 6.00 Build 0)  -->
<!DOCTYPE svg PUBLIC "-//W3C//DTD SVG 1.1//EN" "http://www.w3.org/Graphics/SVG/1.1/DTD/svg11.dtd">
<svg version="1.1" id="Capa_1" xmlns="http://www.w3.org/2000/svg" xmlns:xlink="http://www.w3.org/1999/xlink" x="0px" y="0px"
	 width="23px" height="23px" viewBox="33.5 33.5 23 23" enable-background="new 33.5 33.5 23 23" xml:space="preserve">
<g>
	<path fill="#FFFFFF" d="M44.451,33.68c-5.986,0.285-10.71,5.27-10.692,11.263c0.005,1.826,0.446,3.548,1.223,5.071l-1.193,5.794
		c-0.064,0.312,0.218,0.587,0.529,0.514l5.677-1.346c1.458,0.728,3.097,1.146,4.831,1.174c6.118,0.093,11.22-4.765,11.41-10.881
		C56.439,38.711,51.029,33.367,44.451,33.68z M51.224,51.132c-1.662,1.663-3.872,2.579-6.224,2.579c-1.376,0-2.695-0.31-3.917-0.919
		l-0.791-0.394l-3.48,0.825l0.732-3.556l-0.389-0.764c-0.635-1.243-0.957-2.588-0.957-3.996c0-2.351,0.916-4.562,2.578-6.224
		c1.647-1.648,3.894-2.578,6.224-2.578c2.352,0,4.562,0.916,6.224,2.578c1.663,1.662,2.578,3.873,2.578,6.224
		C53.802,47.238,52.871,49.484,51.224,51.132z"/>
	<path fill="#FFFFFF" d="M50.456,47.347l-2.178-0.625c-0.286-0.083-0.595-0.001-0.803,0.211l-0.533,0.543
		c-0.225,0.229-0.565,0.302-0.862,0.182c-1.03-0.417-3.197-2.344-3.75-3.307c-0.16-0.278-0.133-0.625,0.063-0.88l0.465-0.601
		c0.182-0.236,0.22-0.552,0.1-0.824l-0.917-2.072c-0.219-0.497-0.854-0.641-1.268-0.291c-0.608,0.514-1.329,1.295-1.417,2.161
		c-0.155,1.525,0.5,3.449,2.974,5.759c2.858,2.668,5.147,3.02,6.638,2.659c0.845-0.204,1.521-1.025,1.947-1.698
		C51.206,48.104,50.978,47.496,50.456,47.347z"/>
</g>
</svg>
